<svg width="90" height="39" viewBox="0 0 90 39" fill="none" xmlns="http://www.w3.org/2000/svg">
<path d="M6.32812 2.73389C6.38672 2.32373 6.48193 1.98682 6.61377 1.72314C6.76025 1.45947 7.0166 1.25439 7.38281 1.10791C7.76367 0.961426 8.30566 0.866211 9.00879 0.822266C9.71191 0.763672 10.6641 0.734375 11.8652 0.734375C13.0518 0.734375 13.9966 0.763672 14.6997 0.822266C15.4028 0.866211 15.9375 0.961426 16.3037 1.10791C16.6846 1.25439 16.9409 1.45947 17.0728 1.72314C17.2046 1.98682 17.3071 2.32373 17.3804 2.73389L23.2031 36.2861C23.2617 36.6816 23.2544 36.9966 23.1812 37.231C23.1226 37.4507 22.9761 37.6191 22.7417 37.7363C22.522 37.8535 22.2144 37.9268 21.8188 37.9561C21.4233 37.9854 20.9399 38 20.3687 38C19.6655 38 19.1016 37.9854 18.6768 37.9561C18.2666 37.9268 17.9443 37.8535 17.71 37.7363C17.4756 37.6191 17.2998 37.4507 17.1826 37.231C17.0801 36.9966 16.9995 36.6816 16.9409 36.2861L16.04 31.0347H7.66846L6.76758 36.2861C6.69434 36.6816 6.60645 36.9966 6.50391 37.231C6.40137 37.4507 6.23291 37.6191 5.99854 37.7363C5.76416 37.8535 5.43457 37.9268 5.00977 37.9561C4.59961 37.9854 4.04297 38 3.33984 38C2.76855 38 2.28516 37.9854 1.88965 37.9561C1.50879 37.9268 1.20117 37.8535 0.966797 37.7363C0.732422 37.6191 0.578613 37.4507 0.505371 37.231C0.432129 36.9966 0.432129 36.6816 0.505371 36.2861L6.32812 2.73389ZM15.3149 26.8599L11.9531 7.37012H11.7554L8.39355 26.8599H15.3149ZM26.3892 13.1929C26.3892 12.8853 26.4185 12.6289 26.4771 12.4238C26.5503 12.2041 26.6968 12.0356 26.9165 11.9185C27.1509 11.8013 27.4878 11.7207 27.9272 11.6768C28.3813 11.6182 28.9819 11.5889 29.729 11.5889C30.4761 11.5889 31.0693 11.6182 31.5088 11.6768C31.9482 11.7207 32.2852 11.8013 32.5195 11.9185C32.7539 12.0356 32.9004 12.2041 32.959 12.4238C33.0322 12.6289 33.0688 12.8853 33.0688 13.1929V14.4893C33.479 14.0352 33.8965 13.6177 34.3213 13.2368C34.7607 12.8413 35.2148 12.5044 35.6836 12.2261C36.167 11.9478 36.6724 11.728 37.1997 11.5669C37.7417 11.4058 38.3203 11.3252 38.9355 11.3252C39.6387 11.3252 40.2905 11.4277 40.8911 11.6328C41.5063 11.8379 42.0264 12.1675 42.4512 12.6216C42.8906 13.0757 43.2275 13.6689 43.4619 14.4014C43.6963 15.1191 43.7988 15.998 43.7695 17.0381L43.6157 22.0918C43.6157 22.3701 43.5718 22.5898 43.4839 22.751C43.4106 22.9121 43.2642 23.0366 43.0444 23.1245C42.8247 23.2124 42.5098 23.271 42.0996 23.3003C41.7041 23.3296 41.1768 23.3442 40.5176 23.3442C39.8584 23.3442 39.3311 23.3296 38.9355 23.3003C38.54 23.271 38.2324 23.2124 38.0127 23.1245C37.8076 23.0366 37.6685 22.9121 37.5952 22.751C37.5366 22.5898 37.5 22.3701 37.4854 22.0918L37.3975 19.0815C37.3828 18.5103 37.3315 18.0342 37.2437 17.6533C37.1558 17.2725 37.0312 16.9722 36.8701 16.7524C36.7236 16.5327 36.5479 16.3789 36.3428 16.291C36.1377 16.2031 35.9033 16.1592 35.6396 16.1592C35.2148 16.1592 34.8047 16.3203 34.4092 16.6426C34.0283 16.9648 33.6841 17.3237 33.3765 17.7192L32.8271 36.7476C32.8271 37.0259 32.7905 37.2456 32.7173 37.4067C32.644 37.5679 32.5049 37.6924 32.2998 37.7803C32.0947 37.8682 31.8018 37.9268 31.4209 37.9561C31.0547 37.9854 30.564 38 29.9487 38C29.3335 38 28.8354 37.9854 28.4546 37.9561C28.0884 37.9268 27.8027 37.8682 27.5977 37.7803C27.4072 37.6924 27.2754 37.5679 27.2021 37.4067C27.1289 37.2456 27.0923 37.0259 27.0923 36.7476L26.3892 13.1929ZM47.0874 18.0049C47.0435 16.833 47.2852 15.8296 47.8125 14.9946C48.3545 14.145 49.0723 13.4492 49.9658 12.9072C50.874 12.3652 51.9067 11.9697 53.064 11.7207C54.2358 11.457 55.4297 11.3252 56.6455 11.3252C57.8027 11.3252 58.938 11.457 60.0513 11.7207C61.1646 11.9697 62.1533 12.3652 63.0176 12.9072C63.8818 13.4492 64.563 14.145 65.061 14.9946C65.5737 15.8296 65.8081 16.833 65.7642 18.0049L65.4346 26.1128C65.4199 26.3911 65.3687 26.6108 65.2808 26.772C65.2075 26.9331 65.061 27.0576 64.8413 27.1455C64.6216 27.2334 64.3066 27.292 63.8965 27.3213C63.501 27.3506 62.9736 27.3652 62.3145 27.3652H53.7451L53.6133 32.1113C53.5986 32.668 53.6499 33.1367 53.7671 33.5176C53.8989 33.8984 54.0894 34.2061 54.3384 34.4404C54.5874 34.6748 54.895 34.8433 55.2612 34.9458C55.6274 35.0483 56.0449 35.0996 56.5137 35.0996C57.4512 35.0996 58.1396 34.8945 58.5791 34.4844C59.0186 34.0742 59.2383 33.3491 59.2383 32.3091V31.6279C59.2383 31.3496 59.2749 31.1226 59.3481 30.9468C59.4214 30.7563 59.5605 30.6099 59.7656 30.5073C59.9854 30.3901 60.293 30.3096 60.6885 30.2656C61.084 30.2217 61.6113 30.1997 62.2705 30.1997C62.915 30.1997 63.4351 30.2217 63.8306 30.2656C64.2261 30.3096 64.5264 30.3901 64.7314 30.5073C64.9512 30.6099 65.0903 30.749 65.1489 30.9248C65.2222 31.1006 65.2588 31.3276 65.2588 31.606V32.5728C65.2588 33.73 65.0098 34.6748 64.5117 35.4072C64.0137 36.1396 63.3545 36.7183 62.5342 37.1431C61.7285 37.5679 60.7983 37.8608 59.7437 38.022C58.7036 38.1831 57.6343 38.2637 56.5356 38.2637C55.4224 38.2637 54.3384 38.1611 53.2837 37.9561C52.229 37.7363 51.2842 37.3848 50.4492 36.9014C49.6289 36.4033 48.9551 35.7515 48.4277 34.9458C47.915 34.1401 47.6367 33.1367 47.5928 31.9355L47.0874 18.0049ZM59.2383 24.0693L59.0186 17.6313C59.0039 17.0161 58.9307 16.5181 58.7988 16.1372C58.6816 15.7563 58.5132 15.4634 58.2935 15.2583C58.0884 15.0532 57.8394 14.9214 57.5464 14.8628C57.2681 14.7896 56.9678 14.7529 56.6455 14.7529C56.2793 14.7529 55.9424 14.7896 55.6348 14.8628C55.3271 14.9214 55.0562 15.0532 54.8218 15.2583C54.6021 15.4634 54.4189 15.7563 54.2725 16.1372C54.1406 16.5181 54.0674 17.0161 54.0527 17.6313L53.855 24.0693H59.2383ZM70.3784 31.606C70.3638 30.7856 70.5396 30.0679 70.9058 29.4526C71.272 28.8228 71.7407 28.2734 72.312 27.8047C72.8979 27.3359 73.5571 26.9404 74.2896 26.6182C75.022 26.2812 75.7471 25.9956 76.4648 25.7612C77.3877 25.4536 78.3618 25.1899 79.3872 24.9702C80.4272 24.7505 81.438 24.5601 82.4194 24.3989L82.2217 17.126C82.1924 16.3203 81.9873 15.7271 81.6064 15.3462C81.2402 14.9507 80.6543 14.7529 79.8486 14.7529C79.4678 14.7529 79.1235 14.7822 78.8159 14.8408C78.5083 14.8994 78.2373 15.0166 78.0029 15.1924C77.7832 15.3682 77.6074 15.6099 77.4756 15.9175C77.3438 16.2251 77.2705 16.6206 77.2559 17.104L77.1021 22.0918C77.1021 22.3701 77.0581 22.5898 76.9702 22.751C76.897 22.9121 76.7432 23.0366 76.5088 23.1245C76.2744 23.2124 75.9375 23.271 75.498 23.3003C75.0732 23.3296 74.502 23.3442 73.7842 23.3442C73.125 23.3442 72.5903 23.3296 72.1802 23.3003C71.77 23.271 71.4551 23.2124 71.2354 23.1245C71.0156 23.0366 70.8691 22.9121 70.7959 22.751C70.7227 22.5898 70.6787 22.3701 70.6641 22.0918L70.4883 17.4116C70.459 16.6353 70.5908 15.9468 70.8838 15.3462C71.1768 14.731 71.5723 14.2036 72.0703 13.7642C72.583 13.3101 73.1616 12.9292 73.8062 12.6216C74.4653 12.314 75.1465 12.0649 75.8496 11.8745C76.5674 11.6694 77.2778 11.5303 77.981 11.457C78.6841 11.3691 79.3286 11.3252 79.9146 11.3252C81.1743 11.3252 82.3682 11.4717 83.4961 11.7646C84.6387 12.043 85.6348 12.4531 86.4844 12.9951C87.334 13.5371 88.0005 14.2036 88.4839 14.9946C88.9819 15.771 89.2163 16.6646 89.187 17.6753L88.5059 36.7476C88.4912 37.0259 88.4473 37.2456 88.374 37.4067C88.3154 37.5679 88.1836 37.6924 87.9785 37.7803C87.7734 37.8682 87.4805 37.9268 87.0996 37.9561C86.7334 37.9854 86.2427 38 85.6274 38C85.0562 38 84.5947 37.9854 84.2432 37.9561C83.9062 37.9268 83.6426 37.8682 83.4521 37.7803C83.2764 37.6924 83.1519 37.5679 83.0786 37.4067C83.02 37.2456 82.9907 37.0259 82.9907 36.7476L82.9688 35.9785C82.5732 36.2715 82.1411 36.5571 81.6724 36.8354C81.2036 37.0991 80.7056 37.3408 80.1782 37.5605C79.6509 37.7656 79.0869 37.9341 78.4863 38.0659C77.9004 38.1978 77.2852 38.2637 76.6406 38.2637C75.6152 38.2637 74.7144 38.1245 73.938 37.8462C73.1616 37.5532 72.5098 37.165 71.9824 36.6816C71.4697 36.1836 71.0815 35.605 70.8179 34.9458C70.5542 34.272 70.415 33.5542 70.4004 32.7925L70.3784 31.606ZM76.3989 32.1333C76.3989 32.5728 76.4648 32.9536 76.5967 33.2759C76.7285 33.5835 76.9043 33.8398 77.124 34.0449C77.3438 34.2354 77.6001 34.3818 77.8931 34.4844C78.2007 34.5723 78.5303 34.6162 78.8818 34.6162C79.7314 34.6162 80.4639 34.4771 81.0791 34.1987C81.6943 33.9204 82.2217 33.5981 82.6611 33.2319L82.5073 27.585C81.7163 27.7168 81.0205 27.8706 80.4199 28.0464C79.8193 28.2075 79.2847 28.3906 78.8159 28.5957C78.0835 28.9326 77.4976 29.3062 77.0581 29.7163C76.6187 30.1118 76.3989 30.6318 76.3989 31.2764V32.1333Z" fill="#22414A"/>
</svg>
