<svg width="46" height="27" viewBox="0 0 46 27" fill="none" xmlns="http://www.w3.org/2000/svg">
<path d="M0.831055 2.45996C0.821289 2.20605 0.845703 2.00098 0.904297 1.84473C0.962891 1.68848 1.08496 1.56641 1.27051 1.47852C1.46582 1.39062 1.73926 1.33203 2.09082 1.30273C2.44238 1.26367 2.91113 1.24414 3.49707 1.24414C3.66309 1.24414 3.81934 1.24414 3.96582 1.24414C4.12207 1.24414 4.26855 1.24902 4.40527 1.25879H10.2793C10.5332 1.25879 10.7285 1.27832 10.8652 1.31738C11.0117 1.35645 11.1143 1.42969 11.1729 1.53711C11.2412 1.64453 11.2803 1.79102 11.29 1.97656C11.3096 2.16211 11.3193 2.40137 11.3193 2.69434C11.3193 2.9873 11.3096 3.23145 11.29 3.42676C11.2803 3.6123 11.2412 3.75879 11.1729 3.86621C11.1143 3.96387 11.0117 4.03223 10.8652 4.07129C10.7285 4.11035 10.5332 4.12988 10.2793 4.12988H6.11914L5.85547 13.124H9.38574C9.63965 13.124 9.83496 13.1436 9.97168 13.1826C10.1182 13.2217 10.2207 13.2949 10.2793 13.4023C10.3477 13.5 10.3867 13.6416 10.3965 13.8271C10.416 14.0029 10.4258 14.2324 10.4258 14.5156C10.4258 14.7988 10.416 15.0332 10.3965 15.2188C10.3867 15.3945 10.3477 15.5361 10.2793 15.6436C10.2207 15.7412 10.1182 15.8096 9.97168 15.8486C9.83496 15.8877 9.63965 15.9072 9.38574 15.9072H5.78223L5.5625 23.2754H9.7373C9.99121 23.2754 10.1865 23.2998 10.3232 23.3486C10.4697 23.3877 10.5723 23.4609 10.6309 23.5684C10.6992 23.666 10.7383 23.8027 10.748 23.9785C10.7676 24.1543 10.7773 24.374 10.7773 24.6377C10.7773 24.9014 10.7676 25.1211 10.748 25.2969C10.7383 25.4727 10.6992 25.6143 10.6309 25.7217C10.5723 25.8193 10.4697 25.8926 10.3232 25.9414C10.1865 25.9805 9.99121 26 9.7373 26H3.87793H3.49707C3.04785 26 2.68652 25.9902 2.41309 25.9707C2.14941 25.9512 1.94922 25.9072 1.8125 25.8389C1.67578 25.7705 1.58301 25.6729 1.53418 25.5459C1.49512 25.4092 1.4707 25.2285 1.46094 25.0039L0.831055 2.45996ZM13.9854 13.0654C13.9658 12.3623 14.0586 11.7129 14.2637 11.1172C14.4688 10.5215 14.7666 10.0088 15.1572 9.5791C15.5576 9.14941 16.0361 8.81738 16.5928 8.58301C17.1494 8.33887 17.7695 8.2168 18.4531 8.2168C18.8633 8.2168 19.2441 8.27051 19.5957 8.37793C19.9473 8.48535 20.2695 8.62207 20.5625 8.78809C20.8555 8.94434 21.1143 9.12012 21.3389 9.31543C21.5732 9.51074 21.7734 9.69629 21.9395 9.87207L21.7783 1.81543C21.7783 1.61035 21.7979 1.43945 21.8369 1.30273C21.8857 1.15625 21.9932 1.04395 22.1592 0.96582C22.3252 0.887695 22.5645 0.833984 22.877 0.804688C23.1992 0.765625 23.624 0.746094 24.1514 0.746094C24.6787 0.746094 25.0986 0.765625 25.4111 0.804688C25.7334 0.833984 25.9775 0.887695 26.1436 0.96582C26.3096 1.04395 26.4121 1.15625 26.4512 1.30273C26.5 1.43945 26.5244 1.61035 26.5244 1.81543L26.0703 25.165C26.0703 25.3506 26.0459 25.4971 25.9971 25.6045C25.9482 25.7119 25.8555 25.7949 25.7188 25.8535C25.582 25.9121 25.3867 25.9512 25.1328 25.9707C24.8887 25.9902 24.5615 26 24.1514 26C23.7705 26 23.4629 25.9902 23.2285 25.9707C23.0039 25.9512 22.8281 25.9121 22.7012 25.8535C22.584 25.7949 22.501 25.7119 22.4521 25.6045C22.4131 25.4971 22.3936 25.3506 22.3936 25.165V24.6084C22.1885 24.7939 21.9492 24.9795 21.6758 25.165C21.4121 25.3506 21.1143 25.5215 20.7822 25.6777C20.4502 25.8242 20.0889 25.9414 19.6982 26.0293C19.3076 26.127 18.8877 26.1758 18.4385 26.1758C17.8037 26.1758 17.2324 26.0879 16.7246 25.9121C16.2266 25.7363 15.7969 25.458 15.4355 25.0771C15.084 24.6865 14.8057 24.1836 14.6006 23.5684C14.3955 22.9434 14.2783 22.1914 14.249 21.3125L13.9854 13.0654ZM18.292 21.3125C18.2725 22.0352 18.4385 22.5918 18.79 22.9824C19.1514 23.3633 19.6445 23.5537 20.2695 23.5537C20.6797 23.5537 21.0459 23.4805 21.3682 23.334C21.7002 23.1777 21.9785 23.002 22.2031 22.8066L21.9834 11.9961C21.749 11.8008 21.4707 11.6299 21.1484 11.4834C20.8262 11.3271 20.499 11.249 20.167 11.249C19.9521 11.249 19.7471 11.2832 19.5518 11.3516C19.3564 11.4102 19.1807 11.5127 19.0244 11.6592C18.8779 11.7959 18.7559 11.9814 18.6582 12.2158C18.5703 12.4502 18.5215 12.7334 18.5117 13.0654L18.292 21.3125ZM32.5303 6.07812C32.0518 6.07812 31.666 6.06836 31.373 6.04883C31.0898 6.0293 30.8701 5.99023 30.7139 5.93164C30.5674 5.87305 30.4648 5.79004 30.4062 5.68262C30.3574 5.5752 30.333 5.42871 30.333 5.24316L30.1572 2.38672C30.1572 2.18164 30.1768 2.01074 30.2158 1.87402C30.2646 1.72754 30.3721 1.61523 30.5381 1.53711C30.7041 1.45898 30.9434 1.40527 31.2559 1.37598C31.5781 1.33691 32.0029 1.31738 32.5303 1.31738C33.0576 1.31738 33.4775 1.33691 33.79 1.37598C34.1123 1.40527 34.3564 1.45898 34.5225 1.53711C34.6885 1.61523 34.791 1.72754 34.8301 1.87402C34.8789 2.01074 34.9033 2.18164 34.9033 2.38672L34.7422 5.24316C34.7422 5.42871 34.7129 5.5752 34.6543 5.68262C34.6055 5.79004 34.5029 5.87305 34.3467 5.93164C34.1904 5.99023 33.9658 6.0293 33.6729 6.04883C33.3896 6.06836 33.0088 6.07812 32.5303 6.07812ZM30.0693 9.46191C30.0693 9.25684 30.0889 9.08594 30.1279 8.94922C30.1768 8.80273 30.2842 8.69043 30.4502 8.6123C30.6162 8.53418 30.8555 8.48047 31.168 8.45117C31.4902 8.41211 31.915 8.39258 32.4424 8.39258C32.9697 8.39258 33.3896 8.41211 33.7021 8.45117C34.0244 8.48047 34.2686 8.53418 34.4346 8.6123C34.6006 8.69043 34.7031 8.80273 34.7422 8.94922C34.791 9.08594 34.8154 9.25684 34.8154 9.46191L34.3613 25.165C34.3613 25.3506 34.3369 25.4971 34.2881 25.6045C34.2393 25.7119 34.1465 25.7949 34.0098 25.8535C33.873 25.9121 33.6777 25.9512 33.4238 25.9707C33.1797 25.9902 32.8525 26 32.4424 26C32.0322 26 31.7002 25.9902 31.4463 25.9707C31.2021 25.9512 31.0117 25.9121 30.875 25.8535C30.748 25.7949 30.6602 25.7119 30.6113 25.6045C30.5625 25.4971 30.5381 25.3506 30.5381 25.165L30.0693 9.46191ZM39.0781 12.4355H38.2578C38.0039 12.4355 37.8037 12.416 37.6572 12.377C37.5205 12.3379 37.418 12.2646 37.3496 12.1572C37.2812 12.0498 37.2373 11.9033 37.2178 11.7178C37.208 11.5225 37.2031 11.2734 37.2031 10.9707C37.2031 10.6973 37.208 10.4775 37.2178 10.3115C37.2373 10.1357 37.2812 9.99902 37.3496 9.90137C37.418 9.80371 37.5205 9.74023 37.6572 9.71094C37.8037 9.67187 38.0039 9.65234 38.2578 9.65234H39.0049L38.917 5.56543C38.917 5.36035 38.9365 5.18945 38.9756 5.05273C39.0244 4.90625 39.1318 4.79395 39.2979 4.71582C39.4639 4.6377 39.7031 4.58398 40.0156 4.55469C40.3379 4.51562 40.7627 4.49609 41.29 4.49609C41.8174 4.49609 42.2373 4.51562 42.5498 4.55469C42.8721 4.58398 43.1162 4.6377 43.2822 4.71582C43.4482 4.79395 43.5508 4.90625 43.5898 5.05273C43.6387 5.18945 43.6631 5.36035 43.6631 5.56543L43.5605 9.65234H44.3223C44.5762 9.65234 44.7715 9.67187 44.9082 9.71094C45.0547 9.74023 45.1621 9.80371 45.2305 9.90137C45.2988 9.99902 45.3379 10.1357 45.3477 10.3115C45.3672 10.4775 45.377 10.6973 45.377 10.9707C45.377 11.2734 45.3672 11.5225 45.3477 11.7178C45.3379 11.9033 45.2988 12.0498 45.2305 12.1572C45.1621 12.2646 45.0547 12.3379 44.9082 12.377C44.7715 12.416 44.5762 12.4355 44.3223 12.4355H43.502L43.209 25.165C43.209 25.3506 43.1846 25.4971 43.1357 25.6045C43.0869 25.7119 42.9941 25.7949 42.8574 25.8535C42.7207 25.9121 42.5254 25.9512 42.2715 25.9707C42.0273 25.9902 41.7002 26 41.29 26C40.8799 26 40.5479 25.9902 40.2939 25.9707C40.0498 25.9512 39.8594 25.9121 39.7227 25.8535C39.5957 25.7949 39.5078 25.7119 39.459 25.6045C39.4102 25.4971 39.3857 25.3506 39.3857 25.165L39.0781 12.4355Z" fill="#1C2E33"/>
</svg>
