<svg width="196" height="39" viewBox="0 0 196 39" fill="none" xmlns="http://www.w3.org/2000/svg">
<path d="M0.746582 2.68994C0.731934 2.30908 0.768555 2.00146 0.856445 1.76709C0.944336 1.53271 1.12744 1.34961 1.40576 1.21777C1.69873 1.08594 2.10889 0.998047 2.63623 0.954102C3.16357 0.895508 3.8667 0.866211 4.74561 0.866211C4.99463 0.866211 5.229 0.866211 5.44873 0.866211C5.68311 0.866211 5.90283 0.873535 6.10791 0.888184H14.9189C15.2998 0.888184 15.5928 0.91748 15.7979 0.976074C16.0176 1.03467 16.1714 1.14453 16.2593 1.30566C16.3618 1.4668 16.4204 1.68652 16.4351 1.96484C16.4644 2.24316 16.479 2.60205 16.479 3.0415C16.479 3.48096 16.4644 3.84717 16.4351 4.14014C16.4204 4.41846 16.3618 4.63818 16.2593 4.79932C16.1714 4.9458 16.0176 5.04834 15.7979 5.10693C15.5928 5.16553 15.2998 5.19482 14.9189 5.19482H8.67871L8.2832 18.686H13.5786C13.9595 18.686 14.2524 18.7153 14.4575 18.7739C14.6772 18.8325 14.8311 18.9424 14.9189 19.1035C15.0215 19.25 15.0801 19.4624 15.0947 19.7407C15.124 20.0044 15.1387 20.3486 15.1387 20.7734C15.1387 21.1982 15.124 21.5498 15.0947 21.8281C15.0801 22.0918 15.0215 22.3042 14.9189 22.4653C14.8311 22.6118 14.6772 22.7144 14.4575 22.7729C14.2524 22.8315 13.9595 22.8608 13.5786 22.8608H8.17334L7.84375 33.9131H14.106C14.4868 33.9131 14.7798 33.9497 14.9849 34.0229C15.2046 34.0815 15.3584 34.1914 15.4463 34.3525C15.5488 34.499 15.6074 34.7041 15.6221 34.9678C15.6514 35.2314 15.666 35.561 15.666 35.9565C15.666 36.3521 15.6514 36.6816 15.6221 36.9453C15.6074 37.209 15.5488 37.4214 15.4463 37.5825C15.3584 37.729 15.2046 37.8389 14.9849 37.9121C14.7798 37.9707 14.4868 38 14.106 38H5.31689H4.74561C4.07178 38 3.52979 37.9854 3.11963 37.9561C2.72412 37.9268 2.42383 37.8608 2.21875 37.7583C2.01367 37.6558 1.87451 37.5093 1.80127 37.3188C1.74268 37.1138 1.70605 36.8428 1.69141 36.5059L0.746582 2.68994ZM20.5879 31.606C20.5879 31.3276 20.6245 31.1006 20.6978 30.9248C20.771 30.749 20.9102 30.6099 21.1152 30.5073C21.335 30.3901 21.6426 30.3096 22.0381 30.2656C22.4336 30.2217 22.9536 30.1997 23.5981 30.1997C24.2573 30.1997 24.7847 30.2217 25.1802 30.2656C25.5757 30.3096 25.876 30.3901 26.0811 30.5073C26.3008 30.6099 26.4473 30.7563 26.5205 30.9468C26.5938 31.1226 26.6304 31.3496 26.6304 31.6279V32.7046C26.6304 33.5981 26.8867 34.2207 27.3994 34.5723C27.9268 34.9238 28.6665 35.0996 29.6187 35.0996C30.5708 35.0996 31.23 34.9019 31.5962 34.5063C31.9771 34.0962 32.1675 33.4224 32.1675 32.4849V31.4082C32.1675 31.042 32.1162 30.7271 32.0137 30.4634C31.9258 30.1997 31.7866 29.9727 31.5962 29.7822C31.4058 29.5771 31.1567 29.4014 30.8491 29.2549C30.5562 29.1084 30.2119 28.9692 29.8164 28.8374L23.3125 26.5522C22.2725 26.186 21.4961 25.5854 20.9834 24.7505C20.4854 23.9155 20.2144 22.8901 20.1704 21.6743L20.0386 17.8291C19.9946 16.6572 20.2363 15.6611 20.7637 14.8408C21.291 14.0205 22.0015 13.354 22.895 12.8413C23.7886 12.314 24.814 11.9331 25.9712 11.6987C27.1284 11.4497 28.3149 11.3252 29.5308 11.3252C30.7173 11.3252 31.8745 11.4277 33.0024 11.6328C34.1304 11.8379 35.1265 12.1821 35.9907 12.6655C36.8696 13.1343 37.5581 13.7642 38.0562 14.5552C38.5688 15.3315 38.8032 16.3057 38.7593 17.4775L38.5835 22.0918C38.5688 22.3701 38.5176 22.5898 38.4297 22.751C38.3564 22.9121 38.21 23.0366 37.9902 23.1245C37.7705 23.2124 37.4556 23.271 37.0454 23.3003C36.6499 23.3296 36.1226 23.3442 35.4634 23.3442C34.7456 23.3442 34.167 23.3296 33.7275 23.3003C33.3027 23.271 32.9731 23.2124 32.7388 23.1245C32.5044 23.0366 32.3433 22.9121 32.2554 22.751C32.1821 22.5898 32.1455 22.3701 32.1455 22.0918L31.9917 17.104C31.9771 16.6206 31.9038 16.2251 31.772 15.9175C31.6548 15.6099 31.4863 15.3682 31.2666 15.1924C31.0615 15.0166 30.8125 14.8994 30.5195 14.8408C30.2266 14.7822 29.897 14.7529 29.5308 14.7529C29.1646 14.7529 28.8276 14.7896 28.52 14.8628C28.2271 14.9214 27.9707 15.0386 27.751 15.2144C27.5312 15.3901 27.3555 15.6318 27.2236 15.9395C27.1064 16.2324 27.0405 16.6133 27.0259 17.082L26.8721 21.8501C26.8428 22.5679 26.9893 23.1611 27.3115 23.6299C27.6484 24.084 28.1978 24.4355 28.9595 24.6846L34.4966 26.6621C35.2437 26.9258 35.8589 27.2114 36.3423 27.519C36.8257 27.8267 37.2065 28.1855 37.4849 28.5957C37.7778 29.0059 37.9756 29.4746 38.0781 30.002C38.1807 30.5146 38.2173 31.1226 38.188 31.8257L38.144 32.8364C38.1001 33.8472 37.8364 34.6968 37.353 35.3853C36.8843 36.0737 36.2544 36.6377 35.4634 37.0771C34.687 37.502 33.7935 37.8096 32.7827 38C31.7866 38.1758 30.7393 38.2637 29.6406 38.2637C28.5713 38.2637 27.4946 38.1758 26.4106 38C25.3413 37.8389 24.3745 37.5459 23.5103 37.1211C22.646 36.6816 21.9429 36.0957 21.4009 35.3633C20.8589 34.6162 20.5879 33.6641 20.5879 32.5068V31.606ZM43.7471 31.606C43.7471 31.3276 43.7837 31.1006 43.8569 30.9248C43.9302 30.749 44.0693 30.6099 44.2744 30.5073C44.4941 30.3901 44.8018 30.3096 45.1973 30.2656C45.5928 30.2217 46.1128 30.1997 46.7573 30.1997C47.4165 30.1997 47.9438 30.2217 48.3394 30.2656C48.7349 30.3096 49.0352 30.3901 49.2402 30.5073C49.46 30.6099 49.6064 30.7563 49.6797 30.9468C49.7529 31.1226 49.7896 31.3496 49.7896 31.6279V32.7046C49.7896 33.5981 50.0459 34.2207 50.5586 34.5723C51.0859 34.9238 51.8257 35.0996 52.7778 35.0996C53.73 35.0996 54.3892 34.9019 54.7554 34.5063C55.1362 34.0962 55.3267 33.4224 55.3267 32.4849V31.4082C55.3267 31.042 55.2754 30.7271 55.1729 30.4634C55.085 30.1997 54.9458 29.9727 54.7554 29.7822C54.5649 29.5771 54.3159 29.4014 54.0083 29.2549C53.7153 29.1084 53.3711 28.9692 52.9756 28.8374L46.4717 26.5522C45.4316 26.186 44.6553 25.5854 44.1426 24.7505C43.6445 23.9155 43.3735 22.8901 43.3296 21.6743L43.1978 17.8291C43.1538 16.6572 43.3955 15.6611 43.9229 14.8408C44.4502 14.0205 45.1606 13.354 46.0542 12.8413C46.9478 12.314 47.9731 11.9331 49.1304 11.6987C50.2876 11.4497 51.4741 11.3252 52.6899 11.3252C53.8765 11.3252 55.0337 11.4277 56.1616 11.6328C57.2896 11.8379 58.2856 12.1821 59.1499 12.6655C60.0288 13.1343 60.7173 13.7642 61.2153 14.5552C61.728 15.3315 61.9624 16.3057 61.9185 17.4775L61.7427 22.0918C61.728 22.3701 61.6768 22.5898 61.5889 22.751C61.5156 22.9121 61.3691 23.0366 61.1494 23.1245C60.9297 23.2124 60.6147 23.271 60.2046 23.3003C59.8091 23.3296 59.2817 23.3442 58.6226 23.3442C57.9048 23.3442 57.3262 23.3296 56.8867 23.3003C56.4619 23.271 56.1323 23.2124 55.8979 23.1245C55.6636 23.0366 55.5024 22.9121 55.4146 22.751C55.3413 22.5898 55.3047 22.3701 55.3047 22.0918L55.1509 17.104C55.1362 16.6206 55.063 16.2251 54.9312 15.9175C54.814 15.6099 54.6455 15.3682 54.4258 15.1924C54.2207 15.0166 53.9717 14.8994 53.6787 14.8408C53.3857 14.7822 53.0562 14.7529 52.6899 14.7529C52.3237 14.7529 51.9868 14.7896 51.6792 14.8628C51.3862 14.9214 51.1299 15.0386 50.9102 15.2144C50.6904 15.3901 50.5146 15.6318 50.3828 15.9395C50.2656 16.2324 50.1997 16.6133 50.1851 17.082L50.0312 21.8501C50.002 22.5679 50.1484 23.1611 50.4707 23.6299C50.8076 24.084 51.3569 24.4355 52.1187 24.6846L57.6558 26.6621C58.4028 26.9258 59.0181 27.2114 59.5015 27.519C59.9849 27.8267 60.3657 28.1855 60.644 28.5957C60.937 29.0059 61.1348 29.4746 61.2373 30.002C61.3398 30.5146 61.3765 31.1226 61.3472 31.8257L61.3032 32.8364C61.2593 33.8472 60.9956 34.6968 60.5122 35.3853C60.0435 36.0737 59.4136 36.6377 58.6226 37.0771C57.8462 37.502 56.9526 37.8096 55.9419 38C54.9458 38.1758 53.8984 38.2637 52.7998 38.2637C51.7305 38.2637 50.6538 38.1758 49.5698 38C48.5005 37.8389 47.5337 37.5459 46.6694 37.1211C45.8052 36.6816 45.1021 36.0957 44.5601 35.3633C44.0181 34.6162 43.7471 33.6641 43.7471 32.5068V31.606ZM66.5767 18.0049C66.5327 16.833 66.7744 15.8296 67.3018 14.9946C67.8438 14.145 68.5615 13.4492 69.4551 12.9072C70.3633 12.3652 71.396 11.9697 72.5532 11.7207C73.7251 11.457 74.9189 11.3252 76.1348 11.3252C77.292 11.3252 78.4272 11.457 79.5405 11.7207C80.6538 11.9697 81.6426 12.3652 82.5068 12.9072C83.3711 13.4492 84.0522 14.145 84.5503 14.9946C85.063 15.8296 85.2974 16.833 85.2534 18.0049L84.9238 26.1128C84.9092 26.3911 84.8579 26.6108 84.77 26.772C84.6968 26.9331 84.5503 27.0576 84.3306 27.1455C84.1108 27.2334 83.7959 27.292 83.3857 27.3213C82.9902 27.3506 82.4629 27.3652 81.8037 27.3652H73.2344L73.1025 32.1113C73.0879 32.668 73.1392 33.1367 73.2563 33.5176C73.3882 33.8984 73.5786 34.2061 73.8276 34.4404C74.0767 34.6748 74.3843 34.8433 74.7505 34.9458C75.1167 35.0483 75.5342 35.0996 76.0029 35.0996C76.9404 35.0996 77.6289 34.8945 78.0684 34.4844C78.5078 34.0742 78.7275 33.3491 78.7275 32.3091V31.6279C78.7275 31.3496 78.7642 31.1226 78.8374 30.9468C78.9106 30.7563 79.0498 30.6099 79.2549 30.5073C79.4746 30.3901 79.7822 30.3096 80.1777 30.2656C80.5732 30.2217 81.1006 30.1997 81.7598 30.1997C82.4043 30.1997 82.9243 30.2217 83.3198 30.2656C83.7153 30.3096 84.0156 30.3901 84.2207 30.5073C84.4404 30.6099 84.5796 30.749 84.6382 30.9248C84.7114 31.1006 84.748 31.3276 84.748 31.606V32.5728C84.748 33.73 84.499 34.6748 84.001 35.4072C83.5029 36.1396 82.8438 36.7183 82.0234 37.1431C81.2178 37.5679 80.2876 37.8608 79.2329 38.022C78.1929 38.1831 77.1235 38.2637 76.0249 38.2637C74.9116 38.2637 73.8276 38.1611 72.7729 37.9561C71.7183 37.7363 70.7734 37.3848 69.9385 36.9014C69.1182 36.4033 68.4443 35.7515 67.917 34.9458C67.4043 34.1401 67.126 33.1367 67.082 31.9355L66.5767 18.0049ZM78.7275 24.0693L78.5078 17.6313C78.4932 17.0161 78.4199 16.5181 78.2881 16.1372C78.1709 15.7563 78.0024 15.4634 77.7827 15.2583C77.5776 15.0532 77.3286 14.9214 77.0356 14.8628C76.7573 14.7896 76.457 14.7529 76.1348 14.7529C75.7686 14.7529 75.4316 14.7896 75.124 14.8628C74.8164 14.9214 74.5454 15.0532 74.311 15.2583C74.0913 15.4634 73.9082 15.7563 73.7617 16.1372C73.6299 16.5181 73.5566 17.0161 73.542 17.6313L73.3442 24.0693H78.7275ZM90.1313 13.1929C90.1313 12.8853 90.1606 12.6289 90.2192 12.4238C90.2925 12.2041 90.439 12.0356 90.6587 11.9185C90.8931 11.8013 91.23 11.7207 91.6694 11.6768C92.1235 11.6182 92.7241 11.5889 93.4712 11.5889C94.2183 11.5889 94.8115 11.6182 95.251 11.6768C95.7051 11.7207 96.042 11.8013 96.2617 11.9185C96.4961 12.0356 96.6426 12.2041 96.7012 12.4238C96.7744 12.6289 96.811 12.8853 96.811 13.1929L96.7671 14.5332C97.1772 14.0645 97.5947 13.6396 98.0195 13.2588C98.459 12.8633 98.9204 12.5264 99.4038 12.248C99.9019 11.9551 100.429 11.728 100.986 11.5669C101.542 11.4058 102.15 11.3252 102.81 11.3252C103.703 11.3252 104.531 11.4863 105.292 11.8086C106.069 12.1309 106.728 12.5996 107.27 13.2148C107.827 13.8301 108.251 14.5771 108.544 15.4561C108.852 16.335 108.991 17.3311 108.962 18.4443L108.435 36.7476C108.435 37.0259 108.398 37.2456 108.325 37.4067C108.251 37.5679 108.112 37.6924 107.907 37.7803C107.702 37.8682 107.409 37.9268 107.028 37.9561C106.662 37.9854 106.171 38 105.556 38C104.941 38 104.443 37.9854 104.062 37.9561C103.696 37.9268 103.41 37.8682 103.205 37.7803C103.015 37.6924 102.883 37.5679 102.81 37.4067C102.736 37.2456 102.7 37.0259 102.7 36.7476L102.194 19.0815C102.18 18.5103 102.106 18.0342 101.975 17.6533C101.843 17.2725 101.667 16.9722 101.447 16.7524C101.228 16.5327 100.964 16.3789 100.656 16.291C100.363 16.2031 100.041 16.1592 99.6895 16.1592C99.1328 16.1592 98.6421 16.313 98.2173 16.6206C97.7925 16.9282 97.4263 17.2944 97.1187 17.7192L96.5693 36.7476C96.5693 37.0259 96.5327 37.2456 96.4595 37.4067C96.3862 37.5679 96.2471 37.6924 96.042 37.7803C95.8369 37.8682 95.5439 37.9268 95.1631 37.9561C94.7969 37.9854 94.3062 38 93.6909 38C93.0757 38 92.5776 37.9854 92.1968 37.9561C91.8306 37.9268 91.5449 37.8682 91.3398 37.7803C91.1494 37.6924 91.0176 37.5679 90.9443 37.4067C90.8711 37.2456 90.8345 37.0259 90.8345 36.7476L90.1313 13.1929ZM114.895 17.6533H113.664C113.283 17.6533 112.983 17.624 112.763 17.5654C112.558 17.5068 112.404 17.397 112.302 17.2358C112.199 17.0747 112.133 16.855 112.104 16.5767C112.089 16.2837 112.082 15.9102 112.082 15.4561C112.082 15.0459 112.089 14.7163 112.104 14.4673C112.133 14.2036 112.199 13.9985 112.302 13.8521C112.404 13.7056 112.558 13.6104 112.763 13.5664C112.983 13.5078 113.283 13.4785 113.664 13.4785H114.785L114.653 7.34814C114.653 7.04053 114.682 6.78418 114.741 6.5791C114.814 6.35938 114.975 6.19092 115.224 6.07373C115.473 5.95654 115.832 5.87598 116.301 5.83203C116.784 5.77344 117.421 5.74414 118.212 5.74414C119.003 5.74414 119.633 5.77344 120.102 5.83203C120.585 5.87598 120.952 5.95654 121.201 6.07373C121.45 6.19092 121.604 6.35938 121.662 6.5791C121.735 6.78418 121.772 7.04053 121.772 7.34814L121.618 13.4785H122.761C123.142 13.4785 123.435 13.5078 123.64 13.5664C123.859 13.6104 124.021 13.7056 124.123 13.8521C124.226 13.9985 124.284 14.2036 124.299 14.4673C124.328 14.7163 124.343 15.0459 124.343 15.4561C124.343 15.9102 124.328 16.2837 124.299 16.5767C124.284 16.855 124.226 17.0747 124.123 17.2358C124.021 17.397 123.859 17.5068 123.64 17.5654C123.435 17.624 123.142 17.6533 122.761 17.6533H121.53L121.091 36.7476C121.091 37.0259 121.054 37.2456 120.981 37.4067C120.908 37.5679 120.769 37.6924 120.563 37.7803C120.358 37.8682 120.065 37.9268 119.685 37.9561C119.318 37.9854 118.828 38 118.212 38C117.597 38 117.099 37.9854 116.718 37.9561C116.352 37.9268 116.066 37.8682 115.861 37.7803C115.671 37.6924 115.539 37.5679 115.466 37.4067C115.393 37.2456 115.356 37.0259 115.356 36.7476L114.895 17.6533ZM131.572 8.11719C130.854 8.11719 130.275 8.10254 129.836 8.07324C129.411 8.04395 129.082 7.98535 128.847 7.89746C128.627 7.80957 128.474 7.68506 128.386 7.52393C128.312 7.36279 128.276 7.14307 128.276 6.86475L128.012 2.58008C128.012 2.27246 128.042 2.01611 128.1 1.81104C128.173 1.59131 128.334 1.42285 128.583 1.30566C128.833 1.18848 129.191 1.10791 129.66 1.06396C130.144 1.00537 130.781 0.976074 131.572 0.976074C132.363 0.976074 132.993 1.00537 133.461 1.06396C133.945 1.10791 134.311 1.18848 134.56 1.30566C134.809 1.42285 134.963 1.59131 135.021 1.81104C135.095 2.01611 135.131 2.27246 135.131 2.58008L134.89 6.86475C134.89 7.14307 134.846 7.36279 134.758 7.52393C134.685 7.68506 134.531 7.80957 134.296 7.89746C134.062 7.98535 133.725 8.04395 133.286 8.07324C132.861 8.10254 132.29 8.11719 131.572 8.11719ZM127.88 13.1929C127.88 12.8853 127.91 12.6289 127.968 12.4238C128.042 12.2041 128.203 12.0356 128.452 11.9185C128.701 11.8013 129.06 11.7207 129.528 11.6768C130.012 11.6182 130.649 11.5889 131.44 11.5889C132.231 11.5889 132.861 11.6182 133.33 11.6768C133.813 11.7207 134.179 11.8013 134.428 11.9185C134.677 12.0356 134.831 12.2041 134.89 12.4238C134.963 12.6289 135 12.8853 135 13.1929L134.318 36.7476C134.318 37.0259 134.282 37.2456 134.208 37.4067C134.135 37.5679 133.996 37.6924 133.791 37.7803C133.586 37.8682 133.293 37.9268 132.912 37.9561C132.546 37.9854 132.055 38 131.44 38C130.825 38 130.327 37.9854 129.946 37.9561C129.58 37.9268 129.294 37.8682 129.089 37.7803C128.898 37.6924 128.767 37.5679 128.693 37.4067C128.62 37.2456 128.583 37.0259 128.583 36.7476L127.88 13.1929ZM140.097 31.606C140.083 30.7856 140.258 30.0679 140.625 29.4526C140.991 28.8228 141.459 28.2734 142.031 27.8047C142.617 27.3359 143.276 26.9404 144.008 26.6182C144.741 26.2812 145.466 25.9956 146.184 25.7612C147.106 25.4536 148.081 25.1899 149.106 24.9702C150.146 24.7505 151.157 24.5601 152.138 24.3989L151.94 17.126C151.911 16.3203 151.706 15.7271 151.325 15.3462C150.959 14.9507 150.373 14.7529 149.567 14.7529C149.187 14.7529 148.842 14.7822 148.535 14.8408C148.227 14.8994 147.956 15.0166 147.722 15.1924C147.502 15.3682 147.326 15.6099 147.194 15.9175C147.062 16.2251 146.989 16.6206 146.975 17.104L146.821 22.0918C146.821 22.3701 146.777 22.5898 146.689 22.751C146.616 22.9121 146.462 23.0366 146.228 23.1245C145.993 23.2124 145.656 23.271 145.217 23.3003C144.792 23.3296 144.221 23.3442 143.503 23.3442C142.844 23.3442 142.309 23.3296 141.899 23.3003C141.489 23.271 141.174 23.2124 140.954 23.1245C140.734 23.0366 140.588 22.9121 140.515 22.751C140.441 22.5898 140.397 22.3701 140.383 22.0918L140.207 17.4116C140.178 16.6353 140.31 15.9468 140.603 15.3462C140.896 14.731 141.291 14.2036 141.789 13.7642C142.302 13.3101 142.88 12.9292 143.525 12.6216C144.184 12.314 144.865 12.0649 145.568 11.8745C146.286 11.6694 146.997 11.5303 147.7 11.457C148.403 11.3691 149.047 11.3252 149.633 11.3252C150.893 11.3252 152.087 11.4717 153.215 11.7646C154.357 12.043 155.354 12.4531 156.203 12.9951C157.053 13.5371 157.719 14.2036 158.203 14.9946C158.701 15.771 158.935 16.6646 158.906 17.6753L158.225 36.7476C158.21 37.0259 158.166 37.2456 158.093 37.4067C158.034 37.5679 157.902 37.6924 157.697 37.7803C157.492 37.8682 157.199 37.9268 156.818 37.9561C156.452 37.9854 155.961 38 155.346 38C154.775 38 154.313 37.9854 153.962 37.9561C153.625 37.9268 153.361 37.8682 153.171 37.7803C152.995 37.6924 152.871 37.5679 152.797 37.4067C152.739 37.2456 152.709 37.0259 152.709 36.7476L152.688 35.9785C152.292 36.2715 151.86 36.5571 151.391 36.8354C150.922 37.0991 150.424 37.3408 149.897 37.5605C149.37 37.7656 148.806 37.9341 148.205 38.0659C147.619 38.1978 147.004 38.2637 146.359 38.2637C145.334 38.2637 144.433 38.1245 143.657 37.8462C142.88 37.5532 142.229 37.165 141.701 36.6816C141.188 36.1836 140.8 35.605 140.537 34.9458C140.273 34.272 140.134 33.5542 140.119 32.7925L140.097 31.606ZM146.118 32.1333C146.118 32.5728 146.184 32.9536 146.315 33.2759C146.447 33.5835 146.623 33.8398 146.843 34.0449C147.062 34.2354 147.319 34.3818 147.612 34.4844C147.919 34.5723 148.249 34.6162 148.601 34.6162C149.45 34.6162 150.183 34.4771 150.798 34.1987C151.413 33.9204 151.94 33.5981 152.38 33.2319L152.226 27.585C151.435 27.7168 150.739 27.8706 150.139 28.0464C149.538 28.2075 149.003 28.3906 148.535 28.5957C147.802 28.9326 147.216 29.3062 146.777 29.7163C146.337 30.1118 146.118 30.6318 146.118 31.2764V32.1333ZM164.443 1.72314C164.443 1.41553 164.472 1.15918 164.531 0.954102C164.604 0.734375 164.765 0.565918 165.014 0.44873C165.263 0.331543 165.622 0.250977 166.091 0.207031C166.574 0.148437 167.211 0.119141 168.002 0.119141C168.793 0.119141 169.423 0.148437 169.892 0.207031C170.375 0.250977 170.742 0.331543 170.991 0.44873C171.24 0.565918 171.394 0.734375 171.452 0.954102C171.525 1.15918 171.562 1.41553 171.562 1.72314L170.881 36.7476C170.881 37.0259 170.844 37.2456 170.771 37.4067C170.698 37.5679 170.559 37.6924 170.354 37.7803C170.148 37.8682 169.855 37.9268 169.475 37.9561C169.108 37.9854 168.618 38 168.002 38C167.387 38 166.889 37.9854 166.508 37.9561C166.142 37.9268 165.856 37.8682 165.651 37.7803C165.461 37.6924 165.329 37.5679 165.256 37.4067C165.183 37.2456 165.146 37.0259 165.146 36.7476L164.443 1.72314ZM177.209 31.606C177.209 31.3276 177.246 31.1006 177.319 30.9248C177.392 30.749 177.531 30.6099 177.736 30.5073C177.956 30.3901 178.264 30.3096 178.659 30.2656C179.055 30.2217 179.575 30.1997 180.219 30.1997C180.878 30.1997 181.406 30.2217 181.801 30.2656C182.197 30.3096 182.497 30.3901 182.702 30.5073C182.922 30.6099 183.068 30.7563 183.142 30.9468C183.215 31.1226 183.251 31.3496 183.251 31.6279V32.7046C183.251 33.5981 183.508 34.2207 184.021 34.5723C184.548 34.9238 185.288 35.0996 186.24 35.0996C187.192 35.0996 187.851 34.9019 188.217 34.5063C188.598 34.0962 188.789 33.4224 188.789 32.4849V31.4082C188.789 31.042 188.737 30.7271 188.635 30.4634C188.547 30.1997 188.408 29.9727 188.217 29.7822C188.027 29.5771 187.778 29.4014 187.47 29.2549C187.177 29.1084 186.833 28.9692 186.438 28.8374L179.934 26.5522C178.894 26.186 178.117 25.5854 177.604 24.7505C177.106 23.9155 176.835 22.8901 176.792 21.6743L176.66 17.8291C176.616 16.6572 176.857 15.6611 177.385 14.8408C177.912 14.0205 178.623 13.354 179.516 12.8413C180.41 12.314 181.435 11.9331 182.592 11.6987C183.75 11.4497 184.936 11.3252 186.152 11.3252C187.338 11.3252 188.496 11.4277 189.624 11.6328C190.751 11.8379 191.748 12.1821 192.612 12.6655C193.491 13.1343 194.179 13.7642 194.677 14.5552C195.19 15.3315 195.424 16.3057 195.38 17.4775L195.205 22.0918C195.19 22.3701 195.139 22.5898 195.051 22.751C194.978 22.9121 194.831 23.0366 194.611 23.1245C194.392 23.2124 194.077 23.271 193.667 23.3003C193.271 23.3296 192.744 23.3442 192.084 23.3442C191.367 23.3442 190.788 23.3296 190.349 23.3003C189.924 23.271 189.594 23.2124 189.36 23.1245C189.125 23.0366 188.964 22.9121 188.876 22.751C188.803 22.5898 188.767 22.3701 188.767 22.0918L188.613 17.104C188.598 16.6206 188.525 16.2251 188.393 15.9175C188.276 15.6099 188.107 15.3682 187.888 15.1924C187.683 15.0166 187.434 14.8994 187.141 14.8408C186.848 14.7822 186.518 14.7529 186.152 14.7529C185.786 14.7529 185.449 14.7896 185.141 14.8628C184.848 14.9214 184.592 15.0386 184.372 15.2144C184.152 15.3901 183.977 15.6318 183.845 15.9395C183.728 16.2324 183.662 16.6133 183.647 17.082L183.493 21.8501C183.464 22.5679 183.61 23.1611 183.933 23.6299C184.27 24.084 184.819 24.4355 185.581 24.6846L191.118 26.6621C191.865 26.9258 192.48 27.2114 192.963 27.519C193.447 27.8267 193.828 28.1855 194.106 28.5957C194.399 29.0059 194.597 29.4746 194.699 30.002C194.802 30.5146 194.838 31.1226 194.809 31.8257L194.765 32.8364C194.721 33.8472 194.458 34.6968 193.974 35.3853C193.505 36.0737 192.875 36.6377 192.084 37.0771C191.308 37.502 190.415 37.8096 189.404 38C188.408 38.1758 187.36 38.2637 186.262 38.2637C185.192 38.2637 184.116 38.1758 183.032 38C181.962 37.8389 180.996 37.5459 180.131 37.1211C179.267 36.6816 178.564 36.0957 178.022 35.3633C177.48 34.6162 177.209 33.6641 177.209 32.5068V31.606Z" fill="#22414A"/>
</svg>
