<svg width="128" height="39" viewBox="0 0 128 39" fill="none" xmlns="http://www.w3.org/2000/svg">
<path d="M0.746582 2.68994C0.731934 2.30908 0.768555 2.00146 0.856445 1.76709C0.944336 1.53271 1.12744 1.34961 1.40576 1.21777C1.69873 1.08594 2.10889 0.998047 2.63623 0.954102C3.16357 0.895508 3.8667 0.866211 4.74561 0.866211H5.29492H10.3047C11.8135 0.866211 13.2124 1.00537 14.5015 1.28369C15.8052 1.54736 16.9331 1.97217 17.8853 2.55811C18.8374 3.12939 19.5771 3.86914 20.1045 4.77734C20.6465 5.6709 20.8955 6.75488 20.8516 8.0293L20.5659 18.4663C20.5513 19.0229 20.4634 19.5869 20.3022 20.1582C20.1558 20.7295 19.9214 21.2788 19.5991 21.8062C19.2769 22.3188 18.8594 22.8022 18.3467 23.2563C17.8486 23.7104 17.2334 24.106 16.501 24.4429L20.6099 34.8799C20.8149 35.4072 20.9688 35.8394 21.0713 36.1763C21.1885 36.4985 21.2471 36.7769 21.2471 37.0112C21.2471 37.187 21.2178 37.3408 21.1592 37.4727C21.1006 37.5898 20.9688 37.6924 20.7637 37.7803C20.5732 37.8535 20.2949 37.9121 19.9287 37.9561C19.5625 37.9854 19.0791 38 18.4785 38C17.8926 38 17.4165 37.978 17.0503 37.9341C16.6987 37.8755 16.4058 37.7803 16.1714 37.6484C15.937 37.5166 15.7393 37.3408 15.5781 37.1211C15.4316 36.8867 15.2705 36.5938 15.0947 36.2422L10.5024 25.4756H8.08545L7.77783 36.5059C7.77783 36.8428 7.74121 37.1138 7.66797 37.3188C7.60938 37.5093 7.47021 37.6558 7.25049 37.7583C7.04541 37.8608 6.74512 37.9268 6.34961 37.9561C5.9541 37.9854 5.41943 38 4.74561 38C4.07178 38 3.52979 37.9854 3.11963 37.9561C2.72412 37.9268 2.42383 37.8608 2.21875 37.7583C2.01367 37.6558 1.87451 37.5093 1.80127 37.3188C1.74268 37.1138 1.70605 36.8428 1.69141 36.5059L0.746582 2.68994ZM9.84326 21.894C10.5464 21.894 11.1323 21.8428 11.6011 21.7402C12.0698 21.623 12.436 21.4399 12.6997 21.1909C12.978 20.9419 13.1685 20.6123 13.271 20.2021C13.3882 19.7773 13.4395 19.2573 13.4248 18.6421L13.1172 7.32617C13.1025 6.75488 13.0439 6.30078 12.9414 5.96387C12.8389 5.6123 12.6558 5.34131 12.3921 5.15088C12.1284 4.96045 11.7695 4.83594 11.3154 4.77734C10.876 4.7041 10.3047 4.66748 9.60156 4.66748H8.67871L8.19531 21.894H9.84326ZM25.4878 18.0049C25.4438 16.833 25.6782 15.8296 26.1909 14.9946C26.7183 14.145 27.4214 13.4492 28.3003 12.9072C29.1938 12.3652 30.2192 11.9697 31.3765 11.7207C32.5337 11.457 33.7202 11.3252 34.936 11.3252C36.1519 11.3252 37.3384 11.457 38.4956 11.7207C39.6528 11.9697 40.6709 12.3652 41.5498 12.9072C42.4434 13.4492 43.1465 14.145 43.6592 14.9946C44.1865 15.8296 44.4282 16.833 44.3843 18.0049L43.8789 31.9136C43.835 33.1147 43.5566 34.1255 43.0439 34.9458C42.5312 35.7515 41.8647 36.4033 41.0444 36.9014C40.2241 37.3848 39.2866 37.7363 38.2319 37.9561C37.1772 38.1611 36.0859 38.2637 34.958 38.2637C33.8154 38.2637 32.7168 38.1611 31.6621 37.9561C30.6074 37.7363 29.6626 37.3848 28.8276 36.9014C28.0073 36.4033 27.3408 35.7515 26.8281 34.9458C26.3154 34.1401 26.0371 33.1367 25.9932 31.9355L25.4878 18.0049ZM32.0137 32.1113C31.999 32.668 32.043 33.1367 32.1455 33.5176C32.2627 33.8984 32.4385 34.2061 32.6729 34.4404C32.9219 34.6748 33.2295 34.8433 33.5957 34.9458C33.9766 35.0483 34.4233 35.0996 34.936 35.0996C35.9614 35.0996 36.7085 34.8799 37.1772 34.4404C37.6606 34.001 37.8877 33.2173 37.8584 32.0894L37.4189 17.6313C37.4043 17.0161 37.3311 16.5181 37.1992 16.1372C37.082 15.7563 36.9136 15.4634 36.6938 15.2583C36.4741 15.0532 36.2178 14.9214 35.9248 14.8628C35.6318 14.7896 35.3022 14.7529 34.936 14.7529C34.5698 14.7529 34.2402 14.7896 33.9473 14.8628C33.6543 14.9214 33.3979 15.0532 33.1782 15.2583C32.9585 15.4634 32.7827 15.7563 32.6509 16.1372C32.5337 16.5181 32.4678 17.0161 32.4531 17.6313L32.0137 32.1113ZM49.2622 18.0049C49.2183 16.833 49.4526 15.8296 49.9653 14.9946C50.4927 14.145 51.1958 13.4492 52.0747 12.9072C52.9683 12.3652 53.9937 11.9697 55.1509 11.7207C56.3081 11.457 57.4946 11.3252 58.7104 11.3252C59.9263 11.3252 61.1128 11.457 62.27 11.7207C63.4272 11.9697 64.4453 12.3652 65.3242 12.9072C66.2178 13.4492 66.9209 14.145 67.4336 14.9946C67.9609 15.8296 68.2026 16.833 68.1587 18.0049L67.6533 31.9136C67.6094 33.1147 67.3311 34.1255 66.8184 34.9458C66.3057 35.7515 65.6392 36.4033 64.8188 36.9014C63.9985 37.3848 63.061 37.7363 62.0063 37.9561C60.9517 38.1611 59.8604 38.2637 58.7324 38.2637C57.5898 38.2637 56.4912 38.1611 55.4365 37.9561C54.3818 37.7363 53.437 37.3848 52.6021 36.9014C51.7817 36.4033 51.1152 35.7515 50.6025 34.9458C50.0898 34.1401 49.8115 33.1367 49.7676 31.9355L49.2622 18.0049ZM55.7881 32.1113C55.7734 32.668 55.8174 33.1367 55.9199 33.5176C56.0371 33.8984 56.2129 34.2061 56.4473 34.4404C56.6963 34.6748 57.0039 34.8433 57.3701 34.9458C57.751 35.0483 58.1978 35.0996 58.7104 35.0996C59.7358 35.0996 60.4829 34.8799 60.9517 34.4404C61.4351 34.001 61.6621 33.2173 61.6328 32.0894L61.1934 17.6313C61.1787 17.0161 61.1055 16.5181 60.9736 16.1372C60.8564 15.7563 60.688 15.4634 60.4683 15.2583C60.2485 15.0532 59.9922 14.9214 59.6992 14.8628C59.4062 14.7896 59.0767 14.7529 58.7104 14.7529C58.3442 14.7529 58.0146 14.7896 57.7217 14.8628C57.4287 14.9214 57.1724 15.0532 56.9526 15.2583C56.7329 15.4634 56.5571 15.7563 56.4253 16.1372C56.3081 16.5181 56.2422 17.0161 56.2275 17.6313L55.7881 32.1113ZM73.2563 13.1929C73.2563 12.8853 73.2856 12.6289 73.3442 12.4238C73.4175 12.2041 73.564 12.0356 73.7837 11.9185C74.0181 11.8013 74.355 11.7207 74.7944 11.6768C75.2485 11.6182 75.8491 11.5889 76.5962 11.5889C77.3433 11.5889 77.9365 11.6182 78.376 11.6768C78.8301 11.7207 79.167 11.8013 79.3867 11.9185C79.6211 12.0356 79.7676 12.2041 79.8262 12.4238C79.8994 12.6289 79.936 12.8853 79.936 13.1929L79.8921 14.5332C80.3022 14.0645 80.7197 13.6396 81.1445 13.2588C81.584 12.8633 82.0454 12.5264 82.5288 12.248C83.0269 11.9551 83.5542 11.728 84.1108 11.5669C84.6675 11.4058 85.2754 11.3252 85.9346 11.3252C87.1797 11.3252 88.2856 11.6328 89.2524 12.248C90.2192 12.8633 90.9517 13.7422 91.4497 14.8848C91.8892 14.3721 92.3286 13.9033 92.7681 13.4785C93.2222 13.0391 93.7056 12.6582 94.2183 12.3359C94.731 12.0137 95.2803 11.7646 95.8662 11.5889C96.4521 11.4131 97.0967 11.3252 97.7998 11.3252C98.6934 11.3252 99.521 11.4863 100.283 11.8086C101.059 12.1309 101.718 12.5996 102.26 13.2148C102.817 13.8301 103.242 14.5771 103.535 15.4561C103.842 16.335 103.981 17.3311 103.952 18.4443L103.425 36.7476C103.425 37.0259 103.388 37.2456 103.315 37.4067C103.242 37.5679 103.103 37.6924 102.897 37.7803C102.692 37.8682 102.399 37.9268 102.019 37.9561C101.652 37.9854 101.162 38 100.546 38C99.9312 38 99.4331 37.9854 99.0522 37.9561C98.686 37.9268 98.4004 37.8682 98.1953 37.7803C98.0049 37.6924 97.873 37.5679 97.7998 37.4067C97.7266 37.2456 97.6899 37.0259 97.6899 36.7476L97.1846 19.0815C97.1699 18.5103 97.0967 18.0342 96.9648 17.6533C96.833 17.2725 96.6572 16.9722 96.4375 16.7524C96.2178 16.5327 95.9541 16.3789 95.6465 16.291C95.3535 16.2031 95.0312 16.1592 94.6797 16.1592C94.123 16.1592 93.625 16.3203 93.1855 16.6426C92.7607 16.9502 92.3945 17.3237 92.0869 17.7632V18.4443L91.5596 36.7476C91.5596 37.0259 91.5229 37.2456 91.4497 37.4067C91.3765 37.5679 91.2373 37.6924 91.0322 37.7803C90.8271 37.8682 90.5342 37.9268 90.1533 37.9561C89.7871 37.9854 89.2964 38 88.6812 38C88.0659 38 87.5679 37.9854 87.187 37.9561C86.8208 37.9268 86.5352 37.8682 86.3301 37.7803C86.1396 37.6924 86.0078 37.5679 85.9346 37.4067C85.8613 37.2456 85.8247 37.0259 85.8247 36.7476L85.3193 19.0815C85.3047 18.5103 85.2314 18.0342 85.0996 17.6533C84.9678 17.2725 84.792 16.9722 84.5723 16.7524C84.3525 16.5327 84.0889 16.3789 83.7812 16.291C83.4883 16.2031 83.166 16.1592 82.8145 16.1592C82.2578 16.1592 81.7671 16.313 81.3423 16.6206C80.9175 16.9282 80.5513 17.2944 80.2437 17.7192L79.6943 36.7476C79.6943 37.0259 79.6577 37.2456 79.5845 37.4067C79.5112 37.5679 79.3721 37.6924 79.167 37.7803C78.9619 37.8682 78.6689 37.9268 78.2881 37.9561C77.9219 37.9854 77.4312 38 76.8159 38C76.2007 38 75.7026 37.9854 75.3218 37.9561C74.9556 37.9268 74.6699 37.8682 74.4648 37.7803C74.2744 37.6924 74.1426 37.5679 74.0693 37.4067C73.9961 37.2456 73.9595 37.0259 73.9595 36.7476L73.2563 13.1929ZM108.962 31.606C108.962 31.3276 108.999 31.1006 109.072 30.9248C109.145 30.749 109.284 30.6099 109.489 30.5073C109.709 30.3901 110.017 30.3096 110.412 30.2656C110.808 30.2217 111.328 30.1997 111.972 30.1997C112.631 30.1997 113.159 30.2217 113.554 30.2656C113.95 30.3096 114.25 30.3901 114.455 30.5073C114.675 30.6099 114.821 30.7563 114.895 30.9468C114.968 31.1226 115.004 31.3496 115.004 31.6279V32.7046C115.004 33.5981 115.261 34.2207 115.773 34.5723C116.301 34.9238 117.041 35.0996 117.993 35.0996C118.945 35.0996 119.604 34.9019 119.97 34.5063C120.351 34.0962 120.542 33.4224 120.542 32.4849V31.4082C120.542 31.042 120.49 30.7271 120.388 30.4634C120.3 30.1997 120.161 29.9727 119.97 29.7822C119.78 29.5771 119.531 29.4014 119.223 29.2549C118.93 29.1084 118.586 28.9692 118.19 28.8374L111.687 26.5522C110.646 26.186 109.87 25.5854 109.357 24.7505C108.859 23.9155 108.588 22.8901 108.544 21.6743L108.413 17.8291C108.369 16.6572 108.61 15.6611 109.138 14.8408C109.665 14.0205 110.375 13.354 111.269 12.8413C112.163 12.314 113.188 11.9331 114.345 11.6987C115.502 11.4497 116.689 11.3252 117.905 11.3252C119.091 11.3252 120.249 11.4277 121.376 11.6328C122.504 11.8379 123.5 12.1821 124.365 12.6655C125.244 13.1343 125.932 13.7642 126.43 14.5552C126.943 15.3315 127.177 16.3057 127.133 17.4775L126.958 22.0918C126.943 22.3701 126.892 22.5898 126.804 22.751C126.73 22.9121 126.584 23.0366 126.364 23.1245C126.145 23.2124 125.83 23.271 125.419 23.3003C125.024 23.3296 124.497 23.3442 123.837 23.3442C123.12 23.3442 122.541 23.3296 122.102 23.3003C121.677 23.271 121.347 23.2124 121.113 23.1245C120.878 23.0366 120.717 22.9121 120.629 22.751C120.556 22.5898 120.52 22.3701 120.52 22.0918L120.366 17.104C120.351 16.6206 120.278 16.2251 120.146 15.9175C120.029 15.6099 119.86 15.3682 119.641 15.1924C119.436 15.0166 119.187 14.8994 118.894 14.8408C118.601 14.7822 118.271 14.7529 117.905 14.7529C117.539 14.7529 117.202 14.7896 116.894 14.8628C116.601 14.9214 116.345 15.0386 116.125 15.2144C115.905 15.3901 115.729 15.6318 115.598 15.9395C115.48 16.2324 115.415 16.6133 115.4 17.082L115.246 21.8501C115.217 22.5679 115.363 23.1611 115.686 23.6299C116.022 24.084 116.572 24.4355 117.333 24.6846L122.871 26.6621C123.618 26.9258 124.233 27.2114 124.716 27.519C125.2 27.8267 125.581 28.1855 125.859 28.5957C126.152 29.0059 126.35 29.4746 126.452 30.002C126.555 30.5146 126.591 31.1226 126.562 31.8257L126.518 32.8364C126.474 33.8472 126.21 34.6968 125.727 35.3853C125.258 36.0737 124.628 36.6377 123.837 37.0771C123.061 37.502 122.167 37.8096 121.157 38C120.161 38.1758 119.113 38.2637 118.015 38.2637C116.945 38.2637 115.869 38.1758 114.785 38C113.715 37.8389 112.749 37.5459 111.884 37.1211C111.02 36.6816 110.317 36.0957 109.775 35.3633C109.233 34.6162 108.962 33.6641 108.962 32.5068V31.606Z" fill="#22414A"/>
</svg>
