<svg width="149" height="30" viewBox="0 0 149 30" fill="none" xmlns="http://www.w3.org/2000/svg">
<path d="M0.139648 2.32129C0.128581 2.03353 0.15625 1.80111 0.222656 1.62402C0.289062 1.44694 0.427409 1.30859 0.637695 1.20898C0.859049 1.10938 1.16895 1.04297 1.56738 1.00977C1.97689 0.965495 2.50814 0.943359 3.16113 0.943359C3.81413 0.943359 4.33984 0.965495 4.73828 1.00977C5.13672 1.04297 5.44108 1.10938 5.65137 1.20898C5.87272 1.30859 6.0166 1.44694 6.08301 1.62402C6.16048 1.80111 6.19368 2.03353 6.18262 2.32129L5.61816 24.0859C5.6071 24.5508 5.64583 24.9382 5.73438 25.248C5.83398 25.5579 5.98893 25.807 6.19922 25.9951C6.42057 26.1722 6.7028 26.2995 7.0459 26.377C7.389 26.4544 7.80404 26.4932 8.29102 26.4932C8.77799 26.4932 9.19303 26.4544 9.53613 26.377C9.87923 26.2995 10.1559 26.1722 10.3662 25.9951C10.5876 25.807 10.7425 25.5579 10.8311 25.248C10.9307 24.9382 10.9749 24.5508 10.9639 24.0859L10.3828 2.32129C10.3717 2.03353 10.3994 1.80111 10.4658 1.62402C10.5322 1.44694 10.6706 1.30859 10.8809 1.20898C11.1022 1.10938 11.4121 1.04297 11.8105 1.00977C12.209 0.965495 12.7402 0.943359 13.4043 0.943359C14.0573 0.943359 14.583 0.965495 14.9814 1.00977C15.3799 1.04297 15.6842 1.10938 15.8945 1.20898C16.1159 1.30859 16.2598 1.44694 16.3262 1.62402C16.4036 1.80111 16.4368 2.03353 16.4258 2.32129L15.8447 23.9365C15.8226 24.6559 15.6676 25.3366 15.3799 25.9785C15.0921 26.6204 14.6439 27.1794 14.0352 27.6553C13.4375 28.1312 12.6628 28.5075 11.7109 28.7842C10.7702 29.0609 9.63021 29.1992 8.29102 29.1992C6.95182 29.1992 5.80632 29.0609 4.85449 28.7842C3.90267 28.5075 3.1224 28.1312 2.51367 27.6553C1.91602 27.1794 1.47331 26.6204 1.18555 25.9785C0.897786 25.3366 0.748372 24.6559 0.737305 23.9365L0.139648 2.32129ZM20.3604 24.1689C20.3604 23.9587 20.388 23.7871 20.4434 23.6543C20.4987 23.5215 20.6038 23.4163 20.7588 23.3389C20.9248 23.2503 21.1572 23.1895 21.4561 23.1562C21.7549 23.123 22.1478 23.1064 22.6348 23.1064C23.1328 23.1064 23.5312 23.123 23.8301 23.1562C24.1289 23.1895 24.3558 23.2503 24.5107 23.3389C24.6768 23.4163 24.7874 23.527 24.8428 23.6709C24.8981 23.8037 24.9258 23.9753 24.9258 24.1855V24.999C24.9258 25.6742 25.1195 26.1445 25.5068 26.4102C25.9053 26.6758 26.4642 26.8086 27.1836 26.8086C27.903 26.8086 28.401 26.6592 28.6777 26.3604C28.9655 26.0505 29.1094 25.5413 29.1094 24.833V24.0195C29.1094 23.7428 29.0706 23.5049 28.9932 23.3057C28.9268 23.1064 28.8216 22.9349 28.6777 22.791C28.5339 22.6361 28.3457 22.5033 28.1133 22.3926C27.8919 22.2819 27.6318 22.1768 27.333 22.0771L22.4189 20.3506C21.6331 20.0739 21.0465 19.6201 20.6592 18.9893C20.2829 18.3584 20.0781 17.5837 20.0449 16.665L19.9453 13.7598C19.9121 12.8743 20.0947 12.1217 20.4932 11.502C20.8916 10.8822 21.4284 10.3786 22.1035 9.99121C22.7786 9.59277 23.5534 9.30501 24.4277 9.12793C25.3021 8.93978 26.1986 8.8457 27.1172 8.8457C28.0137 8.8457 28.888 8.92318 29.7402 9.07812C30.5924 9.23307 31.3451 9.49316 31.998 9.8584C32.6621 10.2126 33.1823 10.6885 33.5586 11.2861C33.946 11.8727 34.123 12.6087 34.0898 13.4941L33.957 16.9805C33.946 17.1908 33.9072 17.3568 33.8408 17.4785C33.7855 17.6003 33.6748 17.6943 33.5088 17.7607C33.3428 17.8271 33.1048 17.8714 32.7949 17.8936C32.4961 17.9157 32.0977 17.9268 31.5996 17.9268C31.0573 17.9268 30.6201 17.9157 30.2881 17.8936C29.9671 17.8714 29.7181 17.8271 29.541 17.7607C29.3639 17.6943 29.2422 17.6003 29.1758 17.4785C29.1204 17.3568 29.0928 17.1908 29.0928 16.9805L28.9766 13.2119C28.9655 12.8467 28.9102 12.5479 28.8105 12.3154C28.722 12.083 28.5947 11.9004 28.4287 11.7676C28.2738 11.6348 28.0856 11.5462 27.8643 11.502C27.6429 11.4577 27.3939 11.4355 27.1172 11.4355C26.8405 11.4355 26.5859 11.4632 26.3535 11.5186C26.1322 11.5628 25.9385 11.6514 25.7725 11.7842C25.6064 11.917 25.4736 12.0996 25.374 12.332C25.2855 12.5534 25.2357 12.8411 25.2246 13.1953L25.1084 16.7979C25.0863 17.3402 25.1969 17.7884 25.4404 18.1426C25.695 18.4857 26.11 18.7513 26.6855 18.9395L30.8691 20.4336C31.4336 20.6328 31.8984 20.8486 32.2637 21.0811C32.6289 21.3135 32.9167 21.5846 33.127 21.8945C33.3483 22.2044 33.4977 22.5586 33.5752 22.957C33.6527 23.3444 33.6803 23.8037 33.6582 24.335L33.625 25.0986C33.5918 25.8623 33.3926 26.5042 33.0273 27.0244C32.6732 27.5446 32.1973 27.9707 31.5996 28.3027C31.013 28.6237 30.3379 28.8561 29.5742 29C28.8216 29.1328 28.0303 29.1992 27.2002 29.1992C26.3923 29.1992 25.5788 29.1328 24.7598 29C23.9518 28.8783 23.2214 28.6569 22.5684 28.3359C21.9154 28.0039 21.3841 27.5612 20.9746 27.0078C20.5651 26.4434 20.3604 25.724 20.3604 24.8496V24.1689ZM37.6094 13.8926C37.5762 13.0072 37.7588 12.249 38.1572 11.6182C38.5667 10.9762 39.109 10.4505 39.7842 10.041C40.4704 9.63151 41.2507 9.33268 42.125 9.14453C43.0104 8.94531 43.9124 8.8457 44.8311 8.8457C45.7054 8.8457 46.5632 8.94531 47.4043 9.14453C48.2454 9.33268 48.9925 9.63151 49.6455 10.041C50.2985 10.4505 50.8132 10.9762 51.1895 11.6182C51.5768 12.249 51.7539 13.0072 51.7207 13.8926L51.4717 20.0186C51.4606 20.2288 51.4219 20.3949 51.3555 20.5166C51.3001 20.6383 51.1895 20.7324 51.0234 20.7988C50.8574 20.8652 50.6195 20.9095 50.3096 20.9316C50.0107 20.9538 49.6123 20.9648 49.1143 20.9648H42.6396L42.54 24.5508C42.529 24.9714 42.5677 25.3255 42.6562 25.6133C42.7559 25.901 42.8997 26.1335 43.0879 26.3105C43.276 26.4876 43.5085 26.6149 43.7852 26.6924C44.0618 26.7699 44.3773 26.8086 44.7314 26.8086C45.4398 26.8086 45.96 26.6536 46.292 26.3438C46.624 26.0339 46.79 25.486 46.79 24.7002V24.1855C46.79 23.9753 46.8177 23.8037 46.873 23.6709C46.9284 23.527 47.0335 23.4163 47.1885 23.3389C47.3545 23.2503 47.5869 23.1895 47.8857 23.1562C48.1846 23.123 48.583 23.1064 49.0811 23.1064C49.568 23.1064 49.9609 23.123 50.2598 23.1562C50.5586 23.1895 50.7855 23.2503 50.9404 23.3389C51.1064 23.4163 51.2116 23.5215 51.2559 23.6543C51.3112 23.7871 51.3389 23.9587 51.3389 24.1689V24.8994C51.3389 25.7738 51.1507 26.4876 50.7744 27.041C50.3981 27.5944 49.9001 28.0316 49.2803 28.3525C48.6715 28.6735 47.9688 28.8949 47.1719 29.0166C46.3861 29.1383 45.5781 29.1992 44.748 29.1992C43.9069 29.1992 43.0879 29.1217 42.291 28.9668C41.4941 28.8008 40.7803 28.5352 40.1494 28.1699C39.5296 27.7936 39.0205 27.3011 38.6221 26.6924C38.2347 26.0837 38.0244 25.3255 37.9912 24.418L37.6094 13.8926ZM46.79 18.4746L46.624 13.6104C46.613 13.1455 46.5576 12.7692 46.458 12.4814C46.3695 12.1937 46.2422 11.9723 46.0762 11.8174C45.9212 11.6624 45.7331 11.5628 45.5117 11.5186C45.3014 11.4632 45.0745 11.4355 44.8311 11.4355C44.5544 11.4355 44.2998 11.4632 44.0674 11.5186C43.835 11.5628 43.6302 11.6624 43.4531 11.8174C43.2871 11.9723 43.1488 12.1937 43.0381 12.4814C42.9385 12.7692 42.8831 13.1455 42.8721 13.6104L42.7227 18.4746H46.79ZM55.4062 10.2568C55.4062 10.0244 55.4284 9.83073 55.4727 9.67578C55.528 9.50977 55.6387 9.38249 55.8047 9.29395C55.9818 9.2054 56.2363 9.14453 56.5684 9.11133C56.9115 9.06706 57.3652 9.04492 57.9297 9.04492C58.4941 9.04492 58.9424 9.06706 59.2744 9.11133C59.6064 9.14453 59.861 9.2054 60.0381 9.29395C60.2152 9.38249 60.3258 9.50977 60.3701 9.67578C60.4255 9.83073 60.4531 10.0244 60.4531 10.2568V11.2363C60.763 10.8932 61.0785 10.5778 61.3994 10.29C61.7314 9.99121 62.0745 9.73665 62.4287 9.52637C62.7939 9.31608 63.1758 9.15007 63.5742 9.02832C63.9837 8.90658 64.4209 8.8457 64.8857 8.8457C65.417 8.8457 65.9095 8.92318 66.3633 9.07812C66.8281 9.23307 67.221 9.4821 67.542 9.8252C67.874 10.1683 68.1286 10.6165 68.3057 11.1699C68.4827 11.7122 68.5602 12.3763 68.5381 13.1621L68.4219 16.9805C68.4219 17.1908 68.3887 17.3568 68.3223 17.4785C68.2669 17.6003 68.1562 17.6943 67.9902 17.7607C67.8242 17.8271 67.5863 17.8714 67.2764 17.8936C66.9775 17.9157 66.5791 17.9268 66.0811 17.9268C65.583 17.9268 65.1846 17.9157 64.8857 17.8936C64.5869 17.8714 64.3545 17.8271 64.1885 17.7607C64.0335 17.6943 63.9284 17.6003 63.873 17.4785C63.8288 17.3568 63.8011 17.1908 63.79 16.9805L63.7236 14.7061C63.7126 14.2744 63.6738 13.9147 63.6074 13.627C63.541 13.3392 63.4469 13.1123 63.3252 12.9463C63.2145 12.7803 63.0817 12.6641 62.9268 12.5977C62.7718 12.5312 62.5947 12.498 62.3955 12.498C62.0745 12.498 61.7646 12.6198 61.4658 12.8633C61.1781 13.1068 60.918 13.3779 60.6855 13.6768L60.2705 28.0537C60.2705 28.264 60.2428 28.43 60.1875 28.5518C60.1322 28.6735 60.027 28.7676 59.8721 28.834C59.7171 28.9004 59.4958 28.9447 59.208 28.9668C58.9313 28.9889 58.5605 29 58.0957 29C57.6309 29 57.2546 28.9889 56.9668 28.9668C56.6901 28.9447 56.4743 28.9004 56.3193 28.834C56.1755 28.7676 56.0758 28.6735 56.0205 28.5518C55.9652 28.43 55.9375 28.264 55.9375 28.0537L55.4062 10.2568ZM71.2109 10.2568C71.2109 10.0244 71.2331 9.83073 71.2773 9.67578C71.3327 9.50977 71.4434 9.38249 71.6094 9.29395C71.7865 9.2054 72.041 9.14453 72.373 9.11133C72.7161 9.06706 73.1699 9.04492 73.7344 9.04492C74.2988 9.04492 74.7471 9.06706 75.0791 9.11133C75.4222 9.14453 75.6768 9.2054 75.8428 9.29395C76.0199 9.38249 76.1305 9.50977 76.1748 9.67578C76.2301 9.83073 76.2578 10.0244 76.2578 10.2568L76.2246 11.2695C76.5345 10.9154 76.8499 10.5944 77.1709 10.3066C77.5029 10.0078 77.8516 9.75326 78.2168 9.54297C78.5931 9.32161 78.9915 9.15007 79.4121 9.02832C79.8327 8.90658 80.292 8.8457 80.79 8.8457C81.4652 8.8457 82.0905 8.96745 82.666 9.21094C83.2526 9.45443 83.7507 9.80859 84.1602 10.2734C84.5807 10.7383 84.9017 11.3027 85.123 11.9668C85.3555 12.6309 85.4606 13.3835 85.4385 14.2246L85.04 28.0537C85.04 28.264 85.0124 28.43 84.957 28.5518C84.9017 28.6735 84.7965 28.7676 84.6416 28.834C84.4867 28.9004 84.2653 28.9447 83.9775 28.9668C83.7008 28.9889 83.3301 29 82.8652 29C82.4004 29 82.0241 28.9889 81.7363 28.9668C81.4596 28.9447 81.2438 28.9004 81.0889 28.834C80.945 28.7676 80.8454 28.6735 80.79 28.5518C80.7347 28.43 80.707 28.264 80.707 28.0537L80.3252 14.7061C80.3141 14.2744 80.2588 13.9147 80.1592 13.627C80.0596 13.3392 79.9268 13.1123 79.7607 12.9463C79.5947 12.7803 79.3955 12.6641 79.1631 12.5977C78.9417 12.5312 78.6982 12.498 78.4326 12.498C78.012 12.498 77.6413 12.6143 77.3203 12.8467C76.9993 13.0791 76.7227 13.3558 76.4902 13.6768L76.0752 28.0537C76.0752 28.264 76.0475 28.43 75.9922 28.5518C75.9368 28.6735 75.8317 28.7676 75.6768 28.834C75.5218 28.9004 75.3005 28.9447 75.0127 28.9668C74.736 28.9889 74.3652 29 73.9004 29C73.4355 29 73.0592 28.9889 72.7715 28.9668C72.4948 28.9447 72.279 28.9004 72.124 28.834C71.9801 28.7676 71.8805 28.6735 71.8252 28.5518C71.7699 28.43 71.7422 28.264 71.7422 28.0537L71.2109 10.2568ZM88.9414 24.1689C88.9303 23.5492 89.0632 23.0068 89.3398 22.542C89.6165 22.0661 89.9707 21.651 90.4023 21.2969C90.8451 20.9427 91.3431 20.6439 91.8965 20.4004C92.4499 20.1458 92.9977 19.93 93.54 19.7529C94.2373 19.5205 94.9733 19.3213 95.748 19.1553C96.5339 18.9893 97.2975 18.8454 98.0391 18.7236L97.8896 13.2285C97.8675 12.6198 97.7126 12.1715 97.4248 11.8838C97.1481 11.585 96.7054 11.4355 96.0967 11.4355C95.8089 11.4355 95.5488 11.4577 95.3164 11.502C95.084 11.5462 94.8792 11.6348 94.7021 11.7676C94.5361 11.9004 94.4033 12.083 94.3037 12.3154C94.2041 12.5479 94.1488 12.8467 94.1377 13.2119L94.0215 16.9805C94.0215 17.1908 93.9883 17.3568 93.9219 17.4785C93.8665 17.6003 93.7503 17.6943 93.5732 17.7607C93.3962 17.8271 93.1416 17.8714 92.8096 17.8936C92.4886 17.9157 92.057 17.9268 91.5146 17.9268C91.0166 17.9268 90.6126 17.9157 90.3027 17.8936C89.9928 17.8714 89.7549 17.8271 89.5889 17.7607C89.4229 17.6943 89.3122 17.6003 89.2568 17.4785C89.2015 17.3568 89.1683 17.1908 89.1572 16.9805L89.0244 13.4443C89.0023 12.8577 89.1019 12.3376 89.3232 11.8838C89.5446 11.4189 89.8434 11.0205 90.2197 10.6885C90.6071 10.3454 91.0443 10.0576 91.5312 9.8252C92.0293 9.59277 92.5439 9.40462 93.0752 9.26074C93.6175 9.10579 94.1543 9.00065 94.6855 8.94531C95.2168 8.87891 95.7038 8.8457 96.1465 8.8457C97.0983 8.8457 98.0003 8.95638 98.8525 9.17773C99.7158 9.38802 100.468 9.69792 101.11 10.1074C101.752 10.5169 102.256 11.0205 102.621 11.6182C102.997 12.2048 103.174 12.8799 103.152 13.6436L102.638 28.0537C102.627 28.264 102.593 28.43 102.538 28.5518C102.494 28.6735 102.394 28.7676 102.239 28.834C102.084 28.9004 101.863 28.9447 101.575 28.9668C101.299 28.9889 100.928 29 100.463 29C100.031 29 99.6826 28.9889 99.417 28.9668C99.1624 28.9447 98.9632 28.9004 98.8193 28.834C98.6865 28.7676 98.5924 28.6735 98.5371 28.5518C98.4928 28.43 98.4707 28.264 98.4707 28.0537L98.4541 27.4727C98.1553 27.694 97.8288 27.9098 97.4746 28.1201C97.1204 28.3193 96.7441 28.502 96.3457 28.668C95.9473 28.8229 95.5212 28.9502 95.0674 29.0498C94.6247 29.1494 94.1598 29.1992 93.6729 29.1992C92.8981 29.1992 92.2174 29.0941 91.6309 28.8838C91.0443 28.6624 90.5518 28.3691 90.1533 28.0039C89.766 27.6276 89.4727 27.1904 89.2734 26.6924C89.0742 26.1833 88.9691 25.641 88.958 25.0654L88.9414 24.1689ZM93.4902 24.5674C93.4902 24.8994 93.54 25.1872 93.6396 25.4307C93.7393 25.6631 93.8721 25.8568 94.0381 26.0117C94.2041 26.1556 94.3978 26.2663 94.6191 26.3438C94.8516 26.4102 95.1006 26.4434 95.3662 26.4434C96.0081 26.4434 96.5615 26.3382 97.0264 26.1279C97.4912 25.9176 97.8896 25.6742 98.2217 25.3975L98.1055 21.1309C97.5078 21.2305 96.9821 21.3467 96.5283 21.4795C96.0745 21.6012 95.6706 21.7396 95.3164 21.8945C94.763 22.1491 94.3203 22.4313 93.9883 22.7412C93.6562 23.04 93.4902 23.4329 93.4902 23.9199V24.5674ZM107.17 10.2568C107.17 10.0244 107.192 9.83073 107.236 9.67578C107.292 9.50977 107.402 9.38249 107.568 9.29395C107.745 9.2054 108 9.14453 108.332 9.11133C108.675 9.06706 109.129 9.04492 109.693 9.04492C110.258 9.04492 110.706 9.06706 111.038 9.11133C111.381 9.14453 111.636 9.2054 111.802 9.29395C111.979 9.38249 112.09 9.50977 112.134 9.67578C112.189 9.83073 112.217 10.0244 112.217 10.2568L112.184 11.2695C112.493 10.9154 112.809 10.5944 113.13 10.3066C113.462 10.0078 113.811 9.75326 114.176 9.54297C114.552 9.32161 114.951 9.15007 115.371 9.02832C115.792 8.90658 116.251 8.8457 116.749 8.8457C117.69 8.8457 118.525 9.07812 119.256 9.54297C119.986 10.0078 120.54 10.6719 120.916 11.5352C121.248 11.1478 121.58 10.7936 121.912 10.4727C122.255 10.1406 122.62 9.85286 123.008 9.60938C123.395 9.36589 123.81 9.17773 124.253 9.04492C124.696 8.91211 125.183 8.8457 125.714 8.8457C126.389 8.8457 127.014 8.96745 127.59 9.21094C128.176 9.45443 128.674 9.80859 129.084 10.2734C129.505 10.7383 129.826 11.3027 130.047 11.9668C130.279 12.6309 130.384 13.3835 130.362 14.2246L129.964 28.0537C129.964 28.264 129.936 28.43 129.881 28.5518C129.826 28.6735 129.72 28.7676 129.565 28.834C129.41 28.9004 129.189 28.9447 128.901 28.9668C128.625 28.9889 128.254 29 127.789 29C127.324 29 126.948 28.9889 126.66 28.9668C126.383 28.9447 126.168 28.9004 126.013 28.834C125.869 28.7676 125.769 28.6735 125.714 28.5518C125.659 28.43 125.631 28.264 125.631 28.0537L125.249 14.7061C125.238 14.2744 125.183 13.9147 125.083 13.627C124.983 13.3392 124.851 13.1123 124.685 12.9463C124.519 12.7803 124.319 12.6641 124.087 12.5977C123.866 12.5312 123.622 12.498 123.356 12.498C122.936 12.498 122.56 12.6198 122.228 12.8633C121.907 13.0957 121.63 13.3779 121.397 13.71V14.2246L120.999 28.0537C120.999 28.264 120.971 28.43 120.916 28.5518C120.861 28.6735 120.756 28.7676 120.601 28.834C120.446 28.9004 120.224 28.9447 119.937 28.9668C119.66 28.9889 119.289 29 118.824 29C118.359 29 117.983 28.9889 117.695 28.9668C117.419 28.9447 117.203 28.9004 117.048 28.834C116.904 28.7676 116.804 28.6735 116.749 28.5518C116.694 28.43 116.666 28.264 116.666 28.0537L116.284 14.7061C116.273 14.2744 116.218 13.9147 116.118 13.627C116.019 13.3392 115.886 13.1123 115.72 12.9463C115.554 12.7803 115.354 12.6641 115.122 12.5977C114.901 12.5312 114.657 12.498 114.392 12.498C113.971 12.498 113.6 12.6143 113.279 12.8467C112.958 13.0791 112.682 13.3558 112.449 13.6768L112.034 28.0537C112.034 28.264 112.007 28.43 111.951 28.5518C111.896 28.6735 111.791 28.7676 111.636 28.834C111.481 28.9004 111.259 28.9447 110.972 28.9668C110.695 28.9889 110.324 29 109.859 29C109.395 29 109.018 28.9889 108.73 28.9668C108.454 28.9447 108.238 28.9004 108.083 28.834C107.939 28.7676 107.84 28.6735 107.784 28.5518C107.729 28.43 107.701 28.264 107.701 28.0537L107.17 10.2568ZM133.898 13.8926C133.865 13.0072 134.048 12.249 134.446 11.6182C134.856 10.9762 135.398 10.4505 136.073 10.041C136.759 9.63151 137.54 9.33268 138.414 9.14453C139.299 8.94531 140.201 8.8457 141.12 8.8457C141.994 8.8457 142.852 8.94531 143.693 9.14453C144.535 9.33268 145.282 9.63151 145.935 10.041C146.588 10.4505 147.102 10.9762 147.479 11.6182C147.866 12.249 148.043 13.0072 148.01 13.8926L147.761 20.0186C147.75 20.2288 147.711 20.3949 147.645 20.5166C147.589 20.6383 147.479 20.7324 147.312 20.7988C147.146 20.8652 146.909 20.9095 146.599 20.9316C146.3 20.9538 145.901 20.9648 145.403 20.9648H138.929L138.829 24.5508C138.818 24.9714 138.857 25.3255 138.945 25.6133C139.045 25.901 139.189 26.1335 139.377 26.3105C139.565 26.4876 139.798 26.6149 140.074 26.6924C140.351 26.7699 140.666 26.8086 141.021 26.8086C141.729 26.8086 142.249 26.6536 142.581 26.3438C142.913 26.0339 143.079 25.486 143.079 24.7002V24.1855C143.079 23.9753 143.107 23.8037 143.162 23.6709C143.217 23.527 143.323 23.4163 143.478 23.3389C143.644 23.2503 143.876 23.1895 144.175 23.1562C144.474 23.123 144.872 23.1064 145.37 23.1064C145.857 23.1064 146.25 23.123 146.549 23.1562C146.848 23.1895 147.075 23.2503 147.229 23.3389C147.396 23.4163 147.501 23.5215 147.545 23.6543C147.6 23.7871 147.628 23.9587 147.628 24.1689V24.8994C147.628 25.7738 147.44 26.4876 147.063 27.041C146.687 27.5944 146.189 28.0316 145.569 28.3525C144.961 28.6735 144.258 28.8949 143.461 29.0166C142.675 29.1383 141.867 29.1992 141.037 29.1992C140.196 29.1992 139.377 29.1217 138.58 28.9668C137.783 28.8008 137.069 28.5352 136.438 28.1699C135.819 27.7936 135.31 27.3011 134.911 26.6924C134.524 26.0837 134.313 25.3255 134.28 24.418L133.898 13.8926ZM143.079 18.4746L142.913 13.6104C142.902 13.1455 142.847 12.7692 142.747 12.4814C142.659 12.1937 142.531 11.9723 142.365 11.8174C142.21 11.6624 142.022 11.5628 141.801 11.5186C141.59 11.4632 141.364 11.4355 141.12 11.4355C140.843 11.4355 140.589 11.4632 140.356 11.5186C140.124 11.5628 139.919 11.6624 139.742 11.8174C139.576 11.9723 139.438 12.1937 139.327 12.4814C139.228 12.7692 139.172 13.1455 139.161 13.6104L139.012 18.4746H143.079Z" fill="#22414A"/>
</svg>
