<svg width="225" height="48" viewBox="0 0 225 48" fill="none" xmlns="http://www.w3.org/2000/svg">
<path d="M6.32812 2.73389C6.38672 2.32373 6.48193 1.98682 6.61377 1.72314C6.76025 1.45947 7.0166 1.25439 7.38281 1.10791C7.76367 0.961426 8.30566 0.866211 9.00879 0.822266C9.71191 0.763672 10.6641 0.734375 11.8652 0.734375C13.0518 0.734375 13.9966 0.763672 14.6997 0.822266C15.4028 0.866211 15.9375 0.961426 16.3037 1.10791C16.6846 1.25439 16.9409 1.45947 17.0728 1.72314C17.2046 1.98682 17.3071 2.32373 17.3804 2.73389L23.2031 36.2861C23.2617 36.6816 23.2544 36.9966 23.1812 37.231C23.1226 37.4507 22.9761 37.6191 22.7417 37.7363C22.522 37.8535 22.2144 37.9268 21.8188 37.9561C21.4233 37.9854 20.9399 38 20.3687 38C19.6655 38 19.1016 37.9854 18.6768 37.9561C18.2666 37.9268 17.9443 37.8535 17.71 37.7363C17.4756 37.6191 17.2998 37.4507 17.1826 37.231C17.0801 36.9966 16.9995 36.6816 16.9409 36.2861L16.04 31.0347H7.66846L6.76758 36.2861C6.69434 36.6816 6.60645 36.9966 6.50391 37.231C6.40137 37.4507 6.23291 37.6191 5.99854 37.7363C5.76416 37.8535 5.43457 37.9268 5.00977 37.9561C4.59961 37.9854 4.04297 38 3.33984 38C2.76855 38 2.28516 37.9854 1.88965 37.9561C1.50879 37.9268 1.20117 37.8535 0.966797 37.7363C0.732422 37.6191 0.578613 37.4507 0.505371 37.231C0.432129 36.9966 0.432129 36.6816 0.505371 36.2861L6.32812 2.73389ZM15.3149 26.8599L11.9531 7.37012H11.7554L8.39355 26.8599H15.3149ZM26.3892 13.1929C26.3745 12.8853 26.3965 12.6289 26.4551 12.4238C26.5283 12.2041 26.6821 12.0356 26.9165 11.9185C27.1509 11.8013 27.4878 11.7207 27.9272 11.6768C28.3813 11.6182 28.9819 11.5889 29.729 11.5889C30.4761 11.5889 31.0693 11.6182 31.5088 11.6768C31.9629 11.7207 32.3071 11.8013 32.5415 11.9185C32.7759 12.0356 32.9224 12.2041 32.981 12.4238C33.0542 12.6289 33.0835 12.8853 33.0688 13.1929L33.0469 13.9619C33.3984 13.6104 33.772 13.2808 34.1675 12.9731C34.563 12.6509 34.9878 12.3726 35.4419 12.1382C35.896 11.8892 36.3721 11.6914 36.8701 11.5449C37.3682 11.3984 37.9028 11.3252 38.4741 11.3252C39.4995 11.3252 40.4297 11.5083 41.2646 11.8745C42.0996 12.2261 42.8101 12.7241 43.396 13.3687C43.9966 14.0132 44.4507 14.7822 44.7583 15.6758C45.0659 16.5693 45.2051 17.5435 45.1758 18.5981L44.7803 30.9688C44.7363 32.2871 44.5605 33.415 44.2529 34.3525C43.9453 35.2754 43.5205 36.0298 42.9785 36.6157C42.4512 37.187 41.8066 37.6045 41.0449 37.8682C40.2832 38.1318 39.4336 38.2637 38.4961 38.2637C37.2803 38.2637 36.2183 38.0659 35.3101 37.6704C34.4019 37.2603 33.6328 36.8062 33.0029 36.3081L32.8052 45.9761C32.8052 46.2544 32.7686 46.4741 32.6953 46.6353C32.6221 46.7964 32.4829 46.9209 32.2778 47.0088C32.0728 47.0967 31.7871 47.1553 31.4209 47.1846C31.0547 47.2139 30.564 47.2285 29.9487 47.2285C29.3335 47.2285 28.8354 47.2139 28.4546 47.1846C28.0884 47.1553 27.8027 47.0967 27.5977 47.0088C27.4072 46.9209 27.2754 46.7964 27.2021 46.6353C27.1436 46.4741 27.1143 46.2544 27.1143 45.9761L26.3892 13.1929ZM33.0688 33.4077C33.4058 33.6567 33.7939 33.8765 34.2334 34.0669C34.6875 34.2427 35.1929 34.3306 35.7495 34.3306C36.687 34.3306 37.4194 34.0449 37.9468 33.4736C38.4888 32.8877 38.7451 32.0527 38.7158 30.9688L38.3862 18.5981C38.3716 18.1001 38.291 17.6753 38.1445 17.3237C38.0127 16.9722 37.8296 16.6938 37.5952 16.4888C37.3755 16.269 37.1191 16.1152 36.8262 16.0273C36.5332 15.9248 36.2256 15.8735 35.9033 15.8735C35.4639 15.8735 35.0244 15.9614 34.585 16.1372C34.1602 16.313 33.7793 16.5254 33.4424 16.7744L33.0688 33.4077ZM50.0317 31.606C50.0171 30.7856 50.1929 30.0679 50.5591 29.4526C50.9253 28.8228 51.394 28.2734 51.9653 27.8047C52.5513 27.3359 53.2104 26.9404 53.9429 26.6182C54.6753 26.2812 55.4004 25.9956 56.1182 25.7612C57.041 25.4536 58.0151 25.1899 59.0405 24.9702C60.0806 24.7505 61.0913 24.5601 62.0728 24.3989L61.875 17.126C61.8457 16.3203 61.6406 15.7271 61.2598 15.3462C60.8936 14.9507 60.3076 14.7529 59.502 14.7529C59.1211 14.7529 58.7769 14.7822 58.4692 14.8408C58.1616 14.8994 57.8906 15.0166 57.6562 15.1924C57.4365 15.3682 57.2607 15.6099 57.1289 15.9175C56.9971 16.2251 56.9238 16.6206 56.9092 17.104L56.7554 22.0918C56.7554 22.3701 56.7114 22.5898 56.6235 22.751C56.5503 22.9121 56.3965 23.0366 56.1621 23.1245C55.9277 23.2124 55.5908 23.271 55.1514 23.3003C54.7266 23.3296 54.1553 23.3442 53.4375 23.3442C52.7783 23.3442 52.2437 23.3296 51.8335 23.3003C51.4233 23.271 51.1084 23.2124 50.8887 23.1245C50.6689 23.0366 50.5225 22.9121 50.4492 22.751C50.376 22.5898 50.332 22.3701 50.3174 22.0918L50.1416 17.4116C50.1123 16.6353 50.2441 15.9468 50.5371 15.3462C50.8301 14.731 51.2256 14.2036 51.7236 13.7642C52.2363 13.3101 52.8149 12.9292 53.4595 12.6216C54.1187 12.314 54.7998 12.0649 55.5029 11.8745C56.2207 11.6694 56.9312 11.5303 57.6343 11.457C58.3374 11.3691 58.9819 11.3252 59.5679 11.3252C60.8276 11.3252 62.0215 11.4717 63.1494 11.7646C64.292 12.043 65.2881 12.4531 66.1377 12.9951C66.9873 13.5371 67.6538 14.2036 68.1372 14.9946C68.6353 15.771 68.8696 16.6646 68.8403 17.6753L68.1592 36.7476C68.1445 37.0259 68.1006 37.2456 68.0273 37.4067C67.9688 37.5679 67.8369 37.6924 67.6318 37.7803C67.4268 37.8682 67.1338 37.9268 66.7529 37.9561C66.3867 37.9854 65.896 38 65.2808 38C64.7095 38 64.248 37.9854 63.8965 37.9561C63.5596 37.9268 63.2959 37.8682 63.1055 37.7803C62.9297 37.6924 62.8052 37.5679 62.7319 37.4067C62.6733 37.2456 62.644 37.0259 62.644 36.7476L62.6221 35.9785C62.2266 36.2715 61.7944 36.5571 61.3257 36.8354C60.8569 37.0991 60.3589 37.3408 59.8315 37.5605C59.3042 37.7656 58.7402 37.9341 58.1396 38.0659C57.5537 38.1978 56.9385 38.2637 56.2939 38.2637C55.2686 38.2637 54.3677 38.1245 53.5913 37.8462C52.8149 37.5532 52.1631 37.165 51.6357 36.6816C51.123 36.1836 50.7349 35.605 50.4712 34.9458C50.2075 34.272 50.0684 33.5542 50.0537 32.7925L50.0317 31.606ZM56.0522 32.1333C56.0522 32.5728 56.1182 32.9536 56.25 33.2759C56.3818 33.5835 56.5576 33.8398 56.7773 34.0449C56.9971 34.2354 57.2534 34.3818 57.5464 34.4844C57.854 34.5723 58.1836 34.6162 58.5352 34.6162C59.3848 34.6162 60.1172 34.4771 60.7324 34.1987C61.3477 33.9204 61.875 33.5981 62.3145 33.2319L62.1606 27.585C61.3696 27.7168 60.6738 27.8706 60.0732 28.0464C59.4727 28.2075 58.938 28.3906 58.4692 28.5957C57.7368 28.9326 57.1509 29.3062 56.7114 29.7163C56.272 30.1118 56.0522 30.6318 56.0522 31.2764V32.1333ZM74.1577 13.1929C74.1577 12.8853 74.187 12.6289 74.2456 12.4238C74.3188 12.2041 74.4653 12.0356 74.6851 11.9185C74.9194 11.8013 75.2563 11.7207 75.6958 11.6768C76.1499 11.6182 76.7505 11.5889 77.4976 11.5889C78.2446 11.5889 78.8379 11.6182 79.2773 11.6768C79.7168 11.7207 80.0537 11.8013 80.2881 11.9185C80.5225 12.0356 80.6689 12.2041 80.7275 12.4238C80.8008 12.6289 80.8374 12.8853 80.8374 13.1929V14.4893C81.2476 14.0352 81.665 13.6177 82.0898 13.2368C82.5293 12.8413 82.9834 12.5044 83.4521 12.2261C83.9355 11.9478 84.4409 11.728 84.9683 11.5669C85.5103 11.4058 86.0889 11.3252 86.7041 11.3252C87.4072 11.3252 88.0591 11.4277 88.6597 11.6328C89.2749 11.8379 89.7949 12.1675 90.2197 12.6216C90.6592 13.0757 90.9961 13.6689 91.2305 14.4014C91.4648 15.1191 91.5674 15.998 91.5381 17.0381L91.3843 22.0918C91.3843 22.3701 91.3403 22.5898 91.2524 22.751C91.1792 22.9121 91.0327 23.0366 90.813 23.1245C90.5933 23.2124 90.2783 23.271 89.8682 23.3003C89.4727 23.3296 88.9453 23.3442 88.2861 23.3442C87.627 23.3442 87.0996 23.3296 86.7041 23.3003C86.3086 23.271 86.001 23.2124 85.7812 23.1245C85.5762 23.0366 85.437 22.9121 85.3638 22.751C85.3052 22.5898 85.2686 22.3701 85.2539 22.0918L85.166 19.0815C85.1514 18.5103 85.1001 18.0342 85.0122 17.6533C84.9243 17.2725 84.7998 16.9722 84.6387 16.7524C84.4922 16.5327 84.3164 16.3789 84.1113 16.291C83.9062 16.2031 83.6719 16.1592 83.4082 16.1592C82.9834 16.1592 82.5732 16.3203 82.1777 16.6426C81.7969 16.9648 81.4526 17.3237 81.145 17.7192L80.5957 36.7476C80.5957 37.0259 80.5591 37.2456 80.4858 37.4067C80.4126 37.5679 80.2734 37.6924 80.0684 37.7803C79.8633 37.8682 79.5703 37.9268 79.1895 37.9561C78.8232 37.9854 78.3325 38 77.7173 38C77.1021 38 76.604 37.9854 76.2231 37.9561C75.8569 37.9268 75.5713 37.8682 75.3662 37.7803C75.1758 37.6924 75.0439 37.5679 74.9707 37.4067C74.8975 37.2456 74.8608 37.0259 74.8608 36.7476L74.1577 13.1929ZM96.1084 17.6533H94.8779C94.4971 17.6533 94.1968 17.624 93.9771 17.5654C93.772 17.5068 93.6182 17.397 93.5156 17.2358C93.4131 17.0747 93.3472 16.855 93.3179 16.5767C93.3032 16.2837 93.2959 15.9102 93.2959 15.4561C93.2959 15.0459 93.3032 14.7163 93.3179 14.4673C93.3472 14.2036 93.4131 13.9985 93.5156 13.8521C93.6182 13.7056 93.772 13.6104 93.9771 13.5664C94.1968 13.5078 94.4971 13.4785 94.8779 13.4785H95.9985L95.8667 7.34814C95.8667 7.04053 95.896 6.78418 95.9546 6.5791C96.0278 6.35938 96.189 6.19092 96.438 6.07373C96.687 5.95654 97.0459 5.87598 97.5146 5.83203C97.998 5.77344 98.6353 5.74414 99.4263 5.74414C100.217 5.74414 100.847 5.77344 101.316 5.83203C101.799 5.87598 102.166 5.95654 102.415 6.07373C102.664 6.19092 102.817 6.35938 102.876 6.5791C102.949 6.78418 102.986 7.04053 102.986 7.34814L102.832 13.4785H103.975C104.355 13.4785 104.648 13.5078 104.854 13.5664C105.073 13.6104 105.234 13.7056 105.337 13.8521C105.439 13.9985 105.498 14.2036 105.513 14.4673C105.542 14.7163 105.557 15.0459 105.557 15.4561C105.557 15.9102 105.542 16.2837 105.513 16.5767C105.498 16.855 105.439 17.0747 105.337 17.2358C105.234 17.397 105.073 17.5068 104.854 17.5654C104.648 17.624 104.355 17.6533 103.975 17.6533H102.744L102.305 36.7476C102.305 37.0259 102.268 37.2456 102.195 37.4067C102.122 37.5679 101.982 37.6924 101.777 37.7803C101.572 37.8682 101.279 37.9268 100.898 37.9561C100.532 37.9854 100.042 38 99.4263 38C98.811 38 98.313 37.9854 97.9321 37.9561C97.5659 37.9268 97.2803 37.8682 97.0752 37.7803C96.8848 37.6924 96.7529 37.5679 96.6797 37.4067C96.6064 37.2456 96.5698 37.0259 96.5698 36.7476L96.1084 17.6533ZM109.094 13.1929C109.094 12.8853 109.124 12.6289 109.182 12.4238C109.255 12.2041 109.402 12.0356 109.622 11.9185C109.856 11.8013 110.193 11.7207 110.632 11.6768C111.086 11.6182 111.687 11.5889 112.434 11.5889C113.181 11.5889 113.774 11.6182 114.214 11.6768C114.668 11.7207 115.005 11.8013 115.225 11.9185C115.459 12.0356 115.605 12.2041 115.664 12.4238C115.737 12.6289 115.774 12.8853 115.774 13.1929L115.73 14.5332C116.14 14.0645 116.558 13.6396 116.982 13.2588C117.422 12.8633 117.883 12.5264 118.367 12.248C118.865 11.9551 119.392 11.728 119.949 11.5669C120.505 11.4058 121.113 11.3252 121.772 11.3252C123.018 11.3252 124.124 11.6328 125.09 12.248C126.057 12.8633 126.79 13.7422 127.288 14.8848C127.727 14.3721 128.167 13.9033 128.606 13.4785C129.06 13.0391 129.543 12.6582 130.056 12.3359C130.569 12.0137 131.118 11.7646 131.704 11.5889C132.29 11.4131 132.935 11.3252 133.638 11.3252C134.531 11.3252 135.359 11.4863 136.121 11.8086C136.897 12.1309 137.556 12.5996 138.098 13.2148C138.655 13.8301 139.08 14.5771 139.373 15.4561C139.68 16.335 139.819 17.3311 139.79 18.4443L139.263 36.7476C139.263 37.0259 139.226 37.2456 139.153 37.4067C139.08 37.5679 138.94 37.6924 138.735 37.7803C138.53 37.8682 138.237 37.9268 137.856 37.9561C137.49 37.9854 137 38 136.384 38C135.769 38 135.271 37.9854 134.89 37.9561C134.524 37.9268 134.238 37.8682 134.033 37.7803C133.843 37.6924 133.711 37.5679 133.638 37.4067C133.564 37.2456 133.528 37.0259 133.528 36.7476L133.022 19.0815C133.008 18.5103 132.935 18.0342 132.803 17.6533C132.671 17.2725 132.495 16.9722 132.275 16.7524C132.056 16.5327 131.792 16.3789 131.484 16.291C131.191 16.2031 130.869 16.1592 130.518 16.1592C129.961 16.1592 129.463 16.3203 129.023 16.6426C128.599 16.9502 128.232 17.3237 127.925 17.7632V18.4443L127.397 36.7476C127.397 37.0259 127.361 37.2456 127.288 37.4067C127.214 37.5679 127.075 37.6924 126.87 37.7803C126.665 37.8682 126.372 37.9268 125.991 37.9561C125.625 37.9854 125.134 38 124.519 38C123.904 38 123.406 37.9854 123.025 37.9561C122.659 37.9268 122.373 37.8682 122.168 37.7803C121.978 37.6924 121.846 37.5679 121.772 37.4067C121.699 37.2456 121.663 37.0259 121.663 36.7476L121.157 19.0815C121.143 18.5103 121.069 18.0342 120.938 17.6533C120.806 17.2725 120.63 16.9722 120.41 16.7524C120.19 16.5327 119.927 16.3789 119.619 16.291C119.326 16.2031 119.004 16.1592 118.652 16.1592C118.096 16.1592 117.605 16.313 117.18 16.6206C116.755 16.9282 116.389 17.2944 116.082 17.7192L115.532 36.7476C115.532 37.0259 115.496 37.2456 115.422 37.4067C115.349 37.5679 115.21 37.6924 115.005 37.7803C114.8 37.8682 114.507 37.9268 114.126 37.9561C113.76 37.9854 113.269 38 112.654 38C112.039 38 111.541 37.9854 111.16 37.9561C110.793 37.9268 110.508 37.8682 110.303 37.7803C110.112 37.6924 109.98 37.5679 109.907 37.4067C109.834 37.2456 109.797 37.0259 109.797 36.7476L109.094 13.1929ZM144.47 18.0049C144.426 16.833 144.668 15.8296 145.195 14.9946C145.737 14.145 146.455 13.4492 147.349 12.9072C148.257 12.3652 149.29 11.9697 150.447 11.7207C151.619 11.457 152.812 11.3252 154.028 11.3252C155.186 11.3252 156.321 11.457 157.434 11.7207C158.547 11.9697 159.536 12.3652 160.4 12.9072C161.265 13.4492 161.946 14.145 162.444 14.9946C162.957 15.8296 163.191 16.833 163.147 18.0049L162.817 26.1128C162.803 26.3911 162.751 26.6108 162.664 26.772C162.59 26.9331 162.444 27.0576 162.224 27.1455C162.004 27.2334 161.689 27.292 161.279 27.3213C160.884 27.3506 160.356 27.3652 159.697 27.3652H151.128L150.996 32.1113C150.981 32.668 151.033 33.1367 151.15 33.5176C151.282 33.8984 151.472 34.2061 151.721 34.4404C151.97 34.6748 152.278 34.8433 152.644 34.9458C153.01 35.0483 153.428 35.0996 153.896 35.0996C154.834 35.0996 155.522 34.8945 155.962 34.4844C156.401 34.0742 156.621 33.3491 156.621 32.3091V31.6279C156.621 31.3496 156.658 31.1226 156.731 30.9468C156.804 30.7563 156.943 30.6099 157.148 30.5073C157.368 30.3901 157.676 30.3096 158.071 30.2656C158.467 30.2217 158.994 30.1997 159.653 30.1997C160.298 30.1997 160.818 30.2217 161.213 30.2656C161.609 30.3096 161.909 30.3901 162.114 30.5073C162.334 30.6099 162.473 30.749 162.532 30.9248C162.605 31.1006 162.642 31.3276 162.642 31.606V32.5728C162.642 33.73 162.393 34.6748 161.895 35.4072C161.396 36.1396 160.737 36.7183 159.917 37.1431C159.111 37.5679 158.181 37.8608 157.126 38.022C156.086 38.1831 155.017 38.2637 153.918 38.2637C152.805 38.2637 151.721 38.1611 150.667 37.9561C149.612 37.7363 148.667 37.3848 147.832 36.9014C147.012 36.4033 146.338 35.7515 145.811 34.9458C145.298 34.1401 145.02 33.1367 144.976 31.9355L144.47 18.0049ZM156.621 24.0693L156.401 17.6313C156.387 17.0161 156.313 16.5181 156.182 16.1372C156.064 15.7563 155.896 15.4634 155.676 15.2583C155.471 15.0532 155.222 14.9214 154.929 14.8628C154.651 14.7896 154.351 14.7529 154.028 14.7529C153.662 14.7529 153.325 14.7896 153.018 14.8628C152.71 14.9214 152.439 15.0532 152.205 15.2583C151.985 15.4634 151.802 15.7563 151.655 16.1372C151.523 16.5181 151.45 17.0161 151.436 17.6313L151.238 24.0693H156.621ZM168.025 13.1929C168.025 12.8853 168.054 12.6289 168.113 12.4238C168.186 12.2041 168.333 12.0356 168.552 11.9185C168.787 11.8013 169.124 11.7207 169.563 11.6768C170.017 11.6182 170.618 11.5889 171.365 11.5889C172.112 11.5889 172.705 11.6182 173.145 11.6768C173.599 11.7207 173.936 11.8013 174.155 11.9185C174.39 12.0356 174.536 12.2041 174.595 12.4238C174.668 12.6289 174.705 12.8853 174.705 13.1929L174.661 14.5332C175.071 14.0645 175.488 13.6396 175.913 13.2588C176.353 12.8633 176.814 12.5264 177.297 12.248C177.795 11.9551 178.323 11.728 178.879 11.5669C179.436 11.4058 180.044 11.3252 180.703 11.3252C181.597 11.3252 182.424 11.4863 183.186 11.8086C183.962 12.1309 184.622 12.5996 185.164 13.2148C185.72 13.8301 186.145 14.5771 186.438 15.4561C186.746 16.335 186.885 17.3311 186.855 18.4443L186.328 36.7476C186.328 37.0259 186.292 37.2456 186.218 37.4067C186.145 37.5679 186.006 37.6924 185.801 37.7803C185.596 37.8682 185.303 37.9268 184.922 37.9561C184.556 37.9854 184.065 38 183.45 38C182.834 38 182.336 37.9854 181.956 37.9561C181.589 37.9268 181.304 37.8682 181.099 37.7803C180.908 37.6924 180.776 37.5679 180.703 37.4067C180.63 37.2456 180.593 37.0259 180.593 36.7476L180.088 19.0815C180.073 18.5103 180 18.0342 179.868 17.6533C179.736 17.2725 179.561 16.9722 179.341 16.7524C179.121 16.5327 178.857 16.3789 178.55 16.291C178.257 16.2031 177.935 16.1592 177.583 16.1592C177.026 16.1592 176.536 16.313 176.111 16.6206C175.686 16.9282 175.32 17.2944 175.012 17.7192L174.463 36.7476C174.463 37.0259 174.426 37.2456 174.353 37.4067C174.28 37.5679 174.141 37.6924 173.936 37.7803C173.73 37.8682 173.438 37.9268 173.057 37.9561C172.69 37.9854 172.2 38 171.584 38C170.969 38 170.471 37.9854 170.09 37.9561C169.724 37.9268 169.438 37.8682 169.233 37.7803C169.043 37.6924 168.911 37.5679 168.838 37.4067C168.765 37.2456 168.728 37.0259 168.728 36.7476L168.025 13.1929ZM192.788 17.6533H191.558C191.177 17.6533 190.876 17.624 190.657 17.5654C190.452 17.5068 190.298 17.397 190.195 17.2358C190.093 17.0747 190.027 16.855 189.998 16.5767C189.983 16.2837 189.976 15.9102 189.976 15.4561C189.976 15.0459 189.983 14.7163 189.998 14.4673C190.027 14.2036 190.093 13.9985 190.195 13.8521C190.298 13.7056 190.452 13.6104 190.657 13.5664C190.876 13.5078 191.177 13.4785 191.558 13.4785H192.678L192.546 7.34814C192.546 7.04053 192.576 6.78418 192.634 6.5791C192.708 6.35938 192.869 6.19092 193.118 6.07373C193.367 5.95654 193.726 5.87598 194.194 5.83203C194.678 5.77344 195.315 5.74414 196.106 5.74414C196.897 5.74414 197.527 5.77344 197.996 5.83203C198.479 5.87598 198.845 5.95654 199.094 6.07373C199.343 6.19092 199.497 6.35938 199.556 6.5791C199.629 6.78418 199.666 7.04053 199.666 7.34814L199.512 13.4785H200.654C201.035 13.4785 201.328 13.5078 201.533 13.5664C201.753 13.6104 201.914 13.7056 202.017 13.8521C202.119 13.9985 202.178 14.2036 202.192 14.4673C202.222 14.7163 202.236 15.0459 202.236 15.4561C202.236 15.9102 202.222 16.2837 202.192 16.5767C202.178 16.855 202.119 17.0747 202.017 17.2358C201.914 17.397 201.753 17.5068 201.533 17.5654C201.328 17.624 201.035 17.6533 200.654 17.6533H199.424L198.984 36.7476C198.984 37.0259 198.948 37.2456 198.875 37.4067C198.801 37.5679 198.662 37.6924 198.457 37.7803C198.252 37.8682 197.959 37.9268 197.578 37.9561C197.212 37.9854 196.721 38 196.106 38C195.491 38 194.993 37.9854 194.612 37.9561C194.246 37.9268 193.96 37.8682 193.755 37.7803C193.564 37.6924 193.433 37.5679 193.359 37.4067C193.286 37.2456 193.25 37.0259 193.25 36.7476L192.788 17.6533ZM205.884 31.606C205.884 31.3276 205.92 31.1006 205.994 30.9248C206.067 30.749 206.206 30.6099 206.411 30.5073C206.631 30.3901 206.938 30.3096 207.334 30.2656C207.729 30.2217 208.25 30.1997 208.894 30.1997C209.553 30.1997 210.081 30.2217 210.476 30.2656C210.872 30.3096 211.172 30.3901 211.377 30.5073C211.597 30.6099 211.743 30.7563 211.816 30.9468C211.89 31.1226 211.926 31.3496 211.926 31.6279V32.7046C211.926 33.5981 212.183 34.2207 212.695 34.5723C213.223 34.9238 213.962 35.0996 214.915 35.0996C215.867 35.0996 216.526 34.9019 216.892 34.5063C217.273 34.0962 217.463 33.4224 217.463 32.4849V31.4082C217.463 31.042 217.412 30.7271 217.31 30.4634C217.222 30.1997 217.083 29.9727 216.892 29.7822C216.702 29.5771 216.453 29.4014 216.145 29.2549C215.852 29.1084 215.508 28.9692 215.112 28.8374L208.608 26.5522C207.568 26.186 206.792 25.5854 206.279 24.7505C205.781 23.9155 205.51 22.8901 205.466 21.6743L205.334 17.8291C205.291 16.6572 205.532 15.6611 206.06 14.8408C206.587 14.0205 207.297 13.354 208.191 12.8413C209.084 12.314 210.11 11.9331 211.267 11.6987C212.424 11.4497 213.611 11.3252 214.827 11.3252C216.013 11.3252 217.17 11.4277 218.298 11.6328C219.426 11.8379 220.422 12.1821 221.287 12.6655C222.166 13.1343 222.854 13.7642 223.352 14.5552C223.865 15.3315 224.099 16.3057 224.055 17.4775L223.879 22.0918C223.865 22.3701 223.813 22.5898 223.726 22.751C223.652 22.9121 223.506 23.0366 223.286 23.1245C223.066 23.2124 222.751 23.271 222.341 23.3003C221.946 23.3296 221.418 23.3442 220.759 23.3442C220.042 23.3442 219.463 23.3296 219.023 23.3003C218.599 23.271 218.269 23.2124 218.035 23.1245C217.8 23.0366 217.639 22.9121 217.551 22.751C217.478 22.5898 217.441 22.3701 217.441 22.0918L217.288 17.104C217.273 16.6206 217.2 16.2251 217.068 15.9175C216.951 15.6099 216.782 15.3682 216.562 15.1924C216.357 15.0166 216.108 14.8994 215.815 14.8408C215.522 14.7822 215.193 14.7529 214.827 14.7529C214.46 14.7529 214.124 14.7896 213.816 14.8628C213.523 14.9214 213.267 15.0386 213.047 15.2144C212.827 15.3901 212.651 15.6318 212.52 15.9395C212.402 16.2324 212.336 16.6133 212.322 17.082L212.168 21.8501C212.139 22.5679 212.285 23.1611 212.607 23.6299C212.944 24.084 213.494 24.4355 214.255 24.6846L219.792 26.6621C220.54 26.9258 221.155 27.2114 221.638 27.519C222.122 27.8267 222.502 28.1855 222.781 28.5957C223.074 29.0059 223.271 29.4746 223.374 30.002C223.477 30.5146 223.513 31.1226 223.484 31.8257L223.44 32.8364C223.396 33.8472 223.132 34.6968 222.649 35.3853C222.18 36.0737 221.55 36.6377 220.759 37.0771C219.983 37.502 219.089 37.8096 218.079 38C217.083 38.1758 216.035 38.2637 214.937 38.2637C213.867 38.2637 212.791 38.1758 211.707 38C210.637 37.8389 209.67 37.5459 208.806 37.1211C207.942 36.6816 207.239 36.0957 206.697 35.3633C206.155 34.6162 205.884 33.6641 205.884 32.5068V31.606Z" fill="#22414A"/>
</svg>
