<svg width="117" height="62" viewBox="0 0 117 62" fill="none" xmlns="http://www.w3.org/2000/svg">
<g filter="url(#filter0_d)">
<path d="M6.92969 4.33594C6.91406 3.92969 6.95312 3.60156 7.04688 3.35156C7.14062 3.10156 7.33594 2.90625 7.63281 2.76562C7.94531 2.625 8.38281 2.53125 8.94531 2.48438C9.50781 2.42187 10.2578 2.39062 11.1953 2.39062C12.1172 2.39062 12.8594 2.42187 13.4219 2.48438C13.9844 2.53125 14.4141 2.625 14.7109 2.76562C15.0234 2.90625 15.2266 3.10156 15.3203 3.35156C15.4297 3.60156 15.4766 3.92969 15.4609 4.33594L14.5 37.6406H20.6172C21.0234 37.6406 21.3359 37.6797 21.5547 37.7578C21.7891 37.8203 21.9531 37.9375 22.0469 38.1094C22.1562 38.2656 22.2188 38.4844 22.2344 38.7656C22.2656 39.0469 22.2812 39.3984 22.2812 39.8203C22.2812 40.2422 22.2656 40.5938 22.2344 40.875C22.2188 41.1562 22.1562 41.3828 22.0469 41.5547C21.9531 41.7109 21.7891 41.8281 21.5547 41.9062C21.3359 41.9688 21.0234 42 20.6172 42H11.1953C10.4766 42 9.89844 41.9844 9.46094 41.9531C9.03906 41.9219 8.71875 41.8516 8.5 41.7422C8.28125 41.6328 8.13281 41.4766 8.05469 41.2734C7.99219 41.0547 7.95312 40.7656 7.9375 40.4062L6.92969 4.33594ZM25.8203 20.6719C25.7734 19.4219 26.0234 18.3516 26.5703 17.4609C27.1328 16.5547 27.8828 15.8125 28.8203 15.2344C29.7734 14.6562 30.8672 14.2344 32.1016 13.9688C33.3359 13.6875 34.6016 13.5469 35.8984 13.5469C37.1953 13.5469 38.4609 13.6875 39.6953 13.9688C40.9297 14.2344 42.0156 14.6562 42.9531 15.2344C43.9062 15.8125 44.6562 16.5547 45.2031 17.4609C45.7656 18.3516 46.0234 19.4219 45.9766 20.6719L45.4375 35.5078C45.3906 36.7891 45.0938 37.8672 44.5469 38.7422C44 39.6016 43.2891 40.2969 42.4141 40.8281C41.5391 41.3438 40.5391 41.7188 39.4141 41.9531C38.2891 42.1719 37.125 42.2812 35.9219 42.2812C34.7031 42.2812 33.5312 42.1719 32.4062 41.9531C31.2812 41.7188 30.2734 41.3438 29.3828 40.8281C28.5078 40.2969 27.7969 39.6016 27.25 38.7422C26.7031 37.8828 26.4062 36.8125 26.3594 35.5312L25.8203 20.6719ZM32.7812 35.7188C32.7656 36.3125 32.8125 36.8125 32.9219 37.2188C33.0469 37.625 33.2344 37.9531 33.4844 38.2031C33.75 38.4531 34.0781 38.6328 34.4688 38.7422C34.875 38.8516 35.3516 38.9062 35.8984 38.9062C36.9922 38.9062 37.7891 38.6719 38.2891 38.2031C38.8047 37.7344 39.0469 36.8984 39.0156 35.6953L38.5469 20.2734C38.5312 19.6172 38.4531 19.0859 38.3125 18.6797C38.1875 18.2734 38.0078 17.9609 37.7734 17.7422C37.5391 17.5234 37.2656 17.3828 36.9531 17.3203C36.6406 17.2422 36.2891 17.2031 35.8984 17.2031C35.5078 17.2031 35.1562 17.2422 34.8438 17.3203C34.5312 17.3828 34.2578 17.5234 34.0234 17.7422C33.7891 17.9609 33.6016 18.2734 33.4609 18.6797C33.3359 19.0859 33.2656 19.6172 33.25 20.2734L32.7812 35.7188ZM50.9453 21.3047C50.9141 20.1797 51.0625 19.1406 51.3906 18.1875C51.7188 17.2344 52.1953 16.4141 52.8203 15.7266C53.4609 15.0391 54.2266 14.5078 55.1172 14.1328C56.0078 13.7422 57 13.5469 58.0938 13.5469C58.75 13.5469 59.3516 13.6328 59.8984 13.8047C60.4609 13.9766 60.9766 14.1953 61.4453 14.4609C61.9141 14.7109 62.3281 14.9922 62.6875 15.3047C63.0625 15.6016 63.3828 15.8906 63.6484 16.1719V15.5391C63.6484 15.2109 63.6797 14.9375 63.7422 14.7188C63.8203 14.4844 63.9844 14.3047 64.2344 14.1797C64.5 14.0547 64.8672 13.9688 65.3359 13.9219C65.8203 13.8594 66.4609 13.8281 67.2578 13.8281C68.0547 13.8281 68.6875 13.8594 69.1562 13.9219C69.6406 13.9688 70 14.0547 70.2344 14.1797C70.4844 14.3047 70.6406 14.4844 70.7031 14.7188C70.7812 14.9375 70.8203 15.2109 70.8203 15.5391L70.2109 45.0703C70.1797 46.3516 69.9297 47.4219 69.4609 48.2812C69.0078 49.1562 68.3594 49.8516 67.5156 50.3672C66.6875 50.8984 65.6797 51.2734 64.4922 51.4922C63.3047 51.7266 61.9688 51.8438 60.4844 51.8438C59.3906 51.8438 58.5234 51.8125 57.8828 51.75C57.2422 51.7031 56.7188 51.6406 56.3125 51.5625C56.125 51.5312 55.9688 51.4766 55.8438 51.3984C55.7344 51.3359 55.6484 51.2344 55.5859 51.0938C55.5391 50.9531 55.5 50.7578 55.4688 50.5078C55.4531 50.2734 55.4453 49.9688 55.4453 49.5938C55.4453 48.7969 55.5 48.2344 55.6094 47.9062C55.7188 47.5938 55.9531 47.4531 56.3125 47.4844C56.6875 47.5156 57.1641 47.5625 57.7422 47.625C58.3359 47.7031 59.1484 47.7422 60.1797 47.7422C60.8516 47.7422 61.4297 47.6875 61.9141 47.5781C62.3984 47.4688 62.7891 47.2891 63.0859 47.0391C63.3828 46.7891 63.5938 46.4531 63.7188 46.0312C63.8438 45.625 63.8984 45.125 63.8828 44.5312L63.7656 40.2891C63.1094 40.8047 62.3047 41.2656 61.3516 41.6719C60.4141 42.0781 59.3203 42.2812 58.0703 42.2812C57.0547 42.2812 56.1406 42.1406 55.3281 41.8594C54.5312 41.5781 53.8438 41.1328 53.2656 40.5234C52.7031 39.8984 52.2578 39.0938 51.9297 38.1094C51.6016 37.1094 51.4141 35.9062 51.3672 34.5L50.9453 21.3047ZM57.8359 34.5C57.8047 35.6562 58.0703 36.5469 58.6328 37.1719C59.2109 37.7812 60 38.0859 61 38.0859C61.5469 38.0859 62.0469 38 62.5 37.8281C62.9531 37.6562 63.3516 37.4453 63.6953 37.1953L63.2734 19.2422C62.9141 19.0078 62.5234 18.8125 62.1016 18.6562C61.6797 18.4844 61.2578 18.3984 60.8359 18.3984C60.4922 18.3984 60.1641 18.4531 59.8516 18.5625C59.5391 18.6562 59.2578 18.8203 59.0078 19.0547C58.7734 19.2734 58.5781 19.5703 58.4219 19.9453C58.2812 20.3203 58.2031 20.7734 58.1875 21.3047L57.8359 34.5ZM76.5391 4.33594C76.5234 3.92969 76.5625 3.60156 76.6562 3.35156C76.75 3.10156 76.9453 2.90625 77.2422 2.76562C77.5547 2.625 77.9922 2.53125 78.5547 2.48438C79.1172 2.42187 79.8672 2.39062 80.8047 2.39062C81.7266 2.39062 82.4688 2.42187 83.0312 2.48438C83.5938 2.53125 84.0234 2.625 84.3203 2.76562C84.6328 2.90625 84.8359 3.10156 84.9297 3.35156C85.0391 3.60156 85.0859 3.92969 85.0703 4.33594L84.0391 40.4062C84.0391 40.7656 84 41.0547 83.9219 41.2734C83.8594 41.4766 83.7109 41.6328 83.4766 41.7422C83.2578 41.8516 82.9375 41.9219 82.5156 41.9531C82.0938 41.9844 81.5234 42 80.8047 42C80.0859 42 79.5078 41.9844 79.0703 41.9531C78.6484 41.9219 78.3281 41.8516 78.1094 41.7422C77.8906 41.6328 77.7422 41.4766 77.6641 41.2734C77.6016 41.0547 77.5625 40.7656 77.5469 40.4062L76.5391 4.33594ZM90.8359 15.5391C90.8359 15.2109 90.8672 14.9375 90.9297 14.7188C91.0078 14.4844 91.1641 14.3047 91.3984 14.1797C91.6484 14.0547 92.0078 13.9688 92.4766 13.9219C92.9609 13.8594 93.6016 13.8281 94.3984 13.8281C95.1953 13.8281 95.8281 13.8594 96.2969 13.9219C96.7812 13.9688 97.1406 14.0547 97.375 14.1797C97.625 14.3047 97.7812 14.4844 97.8438 14.7188C97.9219 14.9375 97.9609 15.2109 97.9609 15.5391L97.9141 16.9688C98.3516 16.4688 98.7969 16.0156 99.25 15.6094C99.7188 15.1875 100.211 14.8281 100.727 14.5312C101.258 14.2188 101.82 13.9766 102.414 13.8047C103.008 13.6328 103.656 13.5469 104.359 13.5469C105.312 13.5469 106.195 13.7188 107.008 14.0625C107.836 14.4062 108.539 14.9062 109.117 15.5625C109.711 16.2188 110.164 17.0156 110.477 17.9531C110.805 18.8906 110.953 19.9531 110.922 21.1406L110.359 40.6641C110.359 40.9609 110.32 41.1953 110.242 41.3672C110.164 41.5391 110.016 41.6719 109.797 41.7656C109.578 41.8594 109.266 41.9219 108.859 41.9531C108.469 41.9844 107.945 42 107.289 42C106.633 42 106.102 41.9844 105.695 41.9531C105.305 41.9219 105 41.8594 104.781 41.7656C104.578 41.6719 104.438 41.5391 104.359 41.3672C104.281 41.1953 104.242 40.9609 104.242 40.6641L103.703 21.8203C103.688 21.2109 103.609 20.7031 103.469 20.2969C103.328 19.8906 103.141 19.5703 102.906 19.3359C102.672 19.1016 102.391 18.9375 102.062 18.8438C101.75 18.75 101.406 18.7031 101.031 18.7031C100.438 18.7031 99.9141 18.8672 99.4609 19.1953C99.0078 19.5234 98.6172 19.9141 98.2891 20.3672L97.7031 40.6641C97.7031 40.9609 97.6641 41.1953 97.5859 41.3672C97.5078 41.5391 97.3594 41.6719 97.1406 41.7656C96.9219 41.8594 96.6094 41.9219 96.2031 41.9531C95.8125 41.9844 95.2891 42 94.6328 42C93.9766 42 93.4453 41.9844 93.0391 41.9531C92.6484 41.9219 92.3438 41.8594 92.125 41.7656C91.9219 41.6719 91.7812 41.5391 91.7031 41.3672C91.625 41.1953 91.5859 40.9609 91.5859 40.6641L90.8359 15.5391Z" fill="#22414A"/>
<path d="M6.92969 4.33594L8.92891 4.28008L8.92861 4.26957L8.92821 4.25907L6.92969 4.33594ZM7.63281 2.76562L6.81208 0.941782L6.79428 0.949793L6.77664 0.958149L7.63281 2.76562ZM8.94531 2.48438L9.1114 4.47747L9.13883 4.47518L9.16618 4.47214L8.94531 2.48438ZM13.4219 2.48438L13.201 4.47214L13.2284 4.47518L13.2558 4.47747L13.4219 2.48438ZM14.7109 2.76562L13.8548 4.5731L13.8724 4.58146L13.8902 4.58947L14.7109 2.76562ZM15.3203 3.35156L13.4477 4.05381L13.4665 4.10405L13.488 4.1532L15.3203 3.35156ZM15.4609 4.33594L13.4624 4.25907L13.462 4.26866L13.4618 4.27826L15.4609 4.33594ZM14.5 37.6406L12.5008 37.5829L12.4415 39.6406H14.5V37.6406ZM21.5547 37.7578L20.882 39.6413L20.9597 39.669L21.0394 39.6903L21.5547 37.7578ZM22.0469 38.1094L20.2911 39.0671L20.3445 39.165L20.4084 39.2563L22.0469 38.1094ZM22.2344 38.7656L20.2375 38.8766L20.2405 38.9317L20.2466 38.9865L22.2344 38.7656ZM22.2344 40.875L20.2466 40.6541L20.2405 40.709L20.2375 40.7641L22.2344 40.875ZM22.0469 41.5547L20.3596 40.4809L20.3454 40.5031L20.3319 40.5257L22.0469 41.5547ZM21.5547 41.9062L22.1041 43.8293L22.1459 43.8174L22.1871 43.8036L21.5547 41.9062ZM9.46094 41.9531L9.31319 43.9477L9.31844 43.948L9.46094 41.9531ZM8.05469 41.2734L6.13164 41.8229L6.15607 41.9084L6.188 41.9914L8.05469 41.2734ZM7.9375 40.4062L5.93828 40.4621L5.93871 40.4776L5.93939 40.4931L7.9375 40.4062ZM8.92821 4.25907C8.92354 4.13772 8.92852 4.06125 8.93324 4.02158C8.9381 3.98077 8.94042 3.99811 8.91953 4.05381L5.17422 2.64932C4.95151 3.24321 4.91014 3.86604 4.93117 4.4128L8.92821 4.25907ZM8.91953 4.05381C8.86267 4.20544 8.77496 4.33472 8.67789 4.43179C8.58602 4.52365 8.50952 4.56338 8.48899 4.5731L6.77664 0.958149C6.12451 1.26705 5.49042 1.8061 5.17422 2.64932L8.91953 4.05381ZM8.45354 4.58947C8.44876 4.59162 8.4944 4.57116 8.61437 4.54545C8.73145 4.52036 8.89432 4.49556 9.1114 4.47747L8.77922 0.491283C8.11724 0.546449 7.42234 0.667167 6.81208 0.941782L8.45354 4.58947ZM9.16618 4.47214C9.6235 4.42133 10.2905 4.39062 11.1953 4.39062V0.390625C10.2251 0.390625 9.39213 0.422421 8.72445 0.496608L9.16618 4.47214ZM11.1953 4.39062C12.083 4.39062 12.7428 4.42123 13.201 4.47214L13.6427 0.496608C12.9759 0.422519 12.1514 0.390625 11.1953 0.390625V4.39062ZM13.2558 4.47747C13.4727 4.49554 13.6307 4.52009 13.7397 4.54388C13.8527 4.56853 13.8808 4.58544 13.8548 4.5731L15.5671 0.958149C14.9513 0.666465 14.2432 0.54589 13.588 0.491283L13.2558 4.47747ZM13.8902 4.58947C13.8812 4.58539 13.8064 4.55056 13.7114 4.45924C13.6099 4.3616 13.5115 4.22396 13.4477 4.05381L17.193 2.64932C16.8629 1.76924 16.1858 1.23616 15.5317 0.941782L13.8902 4.58947ZM13.488 4.1532C13.4568 4.08178 13.4544 4.0459 13.4576 4.068C13.4607 4.08982 13.4666 4.1503 13.4624 4.25907L17.4595 4.4128C17.4815 3.84026 17.4276 3.17833 17.1526 2.54992L13.488 4.1532ZM13.4618 4.27826L12.5008 37.5829L16.4992 37.6983L17.4601 4.39362L13.4618 4.27826ZM14.5 39.6406H20.6172V35.6406H14.5V39.6406ZM20.6172 39.6406C20.7598 39.6406 20.8538 39.6477 20.9082 39.6545C20.9671 39.6618 20.9488 39.6651 20.882 39.6413L22.2274 35.8743C21.6889 35.682 21.1077 35.6406 20.6172 35.6406V39.6406ZM21.0394 39.6903C20.9702 39.6718 20.8399 39.6264 20.691 39.52C20.5348 39.4085 20.3932 39.2544 20.2911 39.0671L23.8027 37.1517C23.3863 36.3883 22.6988 35.993 22.07 35.8253L21.0394 39.6903ZM20.4084 39.2563C20.3139 39.1212 20.2711 39.0042 20.2527 38.9401C20.2348 38.8774 20.236 38.8508 20.2375 38.8766L24.2313 38.6547C24.2042 38.1677 24.0871 37.5364 23.6853 36.9625L20.4084 39.2563ZM20.2466 38.9865C20.2668 39.1683 20.2812 39.4402 20.2812 39.8203H24.2812C24.2812 39.3567 24.2644 38.9255 24.2221 38.5448L20.2466 38.9865ZM20.2812 39.8203C20.2812 40.2004 20.2668 40.4723 20.2466 40.6541L24.2221 41.0959C24.2644 40.7152 24.2812 40.284 24.2812 39.8203H20.2812ZM20.2375 40.7641C20.2339 40.8278 20.2279 40.6879 20.3596 40.4809L23.7342 42.6284C24.0846 42.0778 24.2036 41.4847 24.2313 40.9859L20.2375 40.7641ZM20.3319 40.5257C20.5592 40.1468 20.8655 40.0278 20.9222 40.0089L22.1871 43.8036C22.7126 43.6285 23.347 43.2751 23.7619 42.5837L20.3319 40.5257ZM21.0052 39.9832C21.0443 39.972 21.0361 39.9786 20.9572 39.9865C20.883 39.9939 20.772 40 20.6172 40V44C21.088 44 21.6189 43.9679 22.1041 43.8293L21.0052 39.9832ZM20.6172 40H11.1953V44H20.6172V40ZM11.1953 40C10.4983 40 9.97331 39.9846 9.60343 39.9582L9.31844 43.948C9.82356 43.9841 10.4548 44 11.1953 44V40ZM9.60868 39.9586C9.46673 39.9481 9.37862 39.9335 9.33311 39.9235C9.31162 39.9187 9.30685 39.9166 9.31556 39.9195C9.32398 39.9223 9.35223 39.9322 9.39443 39.9533L7.60557 43.531C8.16841 43.8125 8.79328 43.9091 9.31319 43.9477L9.60868 39.9586ZM9.39443 39.9533C9.46504 39.9886 9.56891 40.0542 9.67461 40.1655C9.78305 40.2796 9.86713 40.4144 9.92138 40.5555L6.188 41.9914C6.46779 42.7189 6.99998 43.2282 7.60557 43.531L9.39443 39.9533ZM9.97774 40.724C9.97901 40.7285 9.97056 40.6992 9.9605 40.6247C9.95069 40.5522 9.94137 40.4519 9.93561 40.3194L5.93939 40.4931C5.95838 40.9299 6.0087 41.3926 6.13164 41.8229L9.97774 40.724ZM9.93672 40.3504L8.92891 4.28008L4.93047 4.3918L5.93828 40.4621L9.93672 40.3504ZM25.8203 20.6719L27.819 20.5994L27.8189 20.5969L25.8203 20.6719ZM26.5703 17.4609L24.871 16.4062L24.866 16.4144L26.5703 17.4609ZM28.8203 15.2344L27.7831 13.5244L27.7768 13.5282L27.7705 13.532L28.8203 15.2344ZM32.1016 13.9688L32.5223 15.924L32.5341 15.9215L32.5459 15.9188L32.1016 13.9688ZM39.6953 13.9688L39.251 15.9188L39.2628 15.9215L39.2746 15.924L39.6953 13.9688ZM42.9531 15.2344L41.9033 16.9367L41.9096 16.9406L41.9159 16.9444L42.9531 15.2344ZM45.2031 17.4609L43.4907 18.4943L43.5013 18.5117L43.5121 18.5289L45.2031 17.4609ZM45.9766 20.6719L43.978 20.5969L43.9779 20.5993L45.9766 20.6719ZM45.4375 35.5078L47.4362 35.5809L47.4362 35.5804L45.4375 35.5078ZM44.5469 38.7422L46.2342 39.8159L46.2386 39.8091L46.2429 39.8022L44.5469 38.7422ZM42.4141 40.8281L43.4294 42.5512L43.4408 42.5445L43.452 42.5377L42.4141 40.8281ZM39.4141 41.9531L39.7958 43.9164L39.8089 43.9138L39.822 43.9111L39.4141 41.9531ZM32.4062 41.9531L31.9983 43.9111L32.0114 43.9138L32.0245 43.9164L32.4062 41.9531ZM29.3828 40.8281L28.3449 42.5377L28.3627 42.5485L28.3807 42.559L29.3828 40.8281ZM26.3594 35.5312L24.3607 35.6038L24.3607 35.6044L26.3594 35.5312ZM32.7812 35.7188L30.7822 35.6581L30.7819 35.6661L32.7812 35.7188ZM32.9219 37.2188L30.9906 37.7387L30.9999 37.773L31.0103 37.8069L32.9219 37.2188ZM33.4844 38.2031L32.0702 39.6173L32.0916 39.6388L32.1136 39.6595L33.4844 38.2031ZM34.4688 38.7422L33.9295 40.6681L33.9391 40.6708L33.9488 40.6734L34.4688 38.7422ZM38.2891 38.2031L36.9437 36.7232L36.9324 36.7336L36.9212 36.744L38.2891 38.2031ZM39.0156 35.6953L41.015 35.6434L41.0147 35.6346L39.0156 35.6953ZM38.5469 20.2734L36.5474 20.321L36.5478 20.3342L38.5469 20.2734ZM38.3125 18.6797L36.4009 19.2679L36.4112 19.3011L36.4225 19.3339L38.3125 18.6797ZM36.9531 17.3203L36.4681 19.2606L36.5142 19.2721L36.5609 19.2815L36.9531 17.3203ZM34.8438 17.3203L35.236 19.2815L35.2826 19.2721L35.3288 19.2606L34.8438 17.3203ZM33.4609 18.6797L31.571 18.0255L31.5596 18.0583L31.5494 18.0915L33.4609 18.6797ZM33.25 20.2734L35.2491 20.3341L35.2494 20.321L33.25 20.2734ZM27.8189 20.5969C27.7839 19.6627 27.9722 19 28.2747 18.5075L24.866 16.4144C24.0746 17.7031 23.763 19.1811 23.8217 20.7468L27.8189 20.5969ZM28.2696 18.5157C28.6633 17.8814 29.1874 17.3577 29.8701 16.9367L27.7705 13.532C26.5782 14.2673 25.6024 15.228 24.871 16.4062L28.2696 18.5157ZM29.8575 16.9444C30.5968 16.496 31.4771 16.1489 32.5223 15.924L31.6808 12.0135C30.2572 12.3198 28.9501 12.8165 27.7831 13.5244L29.8575 16.9444ZM32.5459 15.9188C33.631 15.6715 34.7474 15.5469 35.8984 15.5469V11.5469C34.4557 11.5469 33.0409 11.7035 31.6573 12.0187L32.5459 15.9188ZM35.8984 15.5469C37.0495 15.5469 38.1659 15.6715 39.251 15.9188L40.1396 12.0187C38.756 11.7035 37.3412 11.5469 35.8984 11.5469V15.5469ZM39.2746 15.924C40.3185 16.1486 41.1857 16.4942 41.9033 16.9367L44.0029 13.532C42.8456 12.8183 41.5409 12.3201 40.1161 12.0135L39.2746 15.924ZM41.9159 16.9444C42.6077 17.364 43.1198 17.8796 43.4907 18.4943L46.9155 16.4276C46.1927 15.2297 45.2048 14.261 43.9903 13.5244L41.9159 16.9444ZM43.5121 18.5289C43.8213 19.0184 44.0126 19.673 43.978 20.5969L47.9752 20.7468C48.0343 19.1707 47.71 17.6848 46.8941 16.393L43.5121 18.5289ZM43.9779 20.5993L43.4388 35.4352L47.4362 35.5804L47.9752 20.7445L43.9779 20.5993ZM43.4388 35.4347C43.4017 36.4501 43.1723 37.1679 42.8509 37.6822L46.2429 39.8022C47.0152 38.5664 47.3796 37.128 47.4362 35.5809L43.4388 35.4347ZM42.8596 37.6684C42.4783 38.2675 41.9901 38.7458 41.3761 39.1185L43.452 42.5377C44.5881 41.848 45.5217 40.9356 46.2342 39.8159L42.8596 37.6684ZM41.3987 39.105C40.7349 39.4962 39.945 39.7996 39.0062 39.9952L39.822 43.9111C41.1332 43.6379 42.3432 43.1913 43.4294 42.5512L41.3987 39.105ZM39.0323 39.9899C38.0392 40.183 37.0032 40.2812 35.9219 40.2812V44.2812C37.2468 44.2812 38.5389 44.1607 39.7958 43.9164L39.0323 39.9899ZM35.9219 40.2812C34.8232 40.2812 33.7795 40.1827 32.788 39.9899L32.0245 43.9164C33.283 44.1611 34.583 44.2812 35.9219 44.2812V40.2812ZM32.8142 39.9952C31.8739 39.7993 31.0707 39.4943 30.3849 39.0973L28.3807 42.559C29.4762 43.1932 30.6886 43.6382 31.9983 43.9111L32.8142 39.9952ZM30.4208 39.1185C29.8068 38.7458 29.3186 38.2675 28.9373 37.6684L25.5627 39.8159C26.2752 40.9356 27.2088 41.848 28.3449 42.5377L30.4208 39.1185ZM28.9373 37.6684C28.6248 37.1773 28.3952 36.4748 28.358 35.4581L24.3607 35.6044C24.4173 37.1502 24.7815 38.5883 25.5627 39.8159L28.9373 37.6684ZM28.3581 35.4587L27.819 20.5994L23.8216 20.7444L24.3607 35.6038L28.3581 35.4587ZM30.7819 35.6661C30.7631 36.3803 30.8151 37.0867 30.9906 37.7387L34.8531 36.6988C34.8099 36.5383 34.7681 36.2447 34.7806 35.7714L30.7819 35.6661ZM31.0103 37.8069C31.212 38.4623 31.5472 39.0944 32.0702 39.6173L34.8986 36.7889C34.9215 36.8118 34.8818 36.7877 34.8334 36.6306L31.0103 37.8069ZM32.1136 39.6595C32.6398 40.1548 33.2633 40.4816 33.9295 40.6681L35.008 36.8163C34.893 36.784 34.8602 36.7515 34.8551 36.7467L32.1136 39.6595ZM33.9488 40.6734C34.5665 40.8397 35.2254 40.9062 35.8984 40.9062V36.9062C35.4777 36.9062 35.1835 36.8634 34.9887 36.811L33.9488 40.6734ZM35.8984 40.9062C37.2114 40.9062 38.6188 40.6355 39.6569 39.6622L36.9212 36.744C36.9428 36.7238 36.9132 36.7643 36.7521 36.8117C36.5843 36.8611 36.311 36.9062 35.8984 36.9062V40.9062ZM39.6344 39.683C40.8085 38.6157 41.0508 37.0253 41.0149 35.6434L37.0163 35.7472C37.0285 36.2158 36.983 36.5071 36.9364 36.6681C36.8927 36.8188 36.8674 36.7926 36.9437 36.7232L39.6344 39.683ZM41.0147 35.6346L40.546 20.2127L36.5478 20.3342L37.0165 35.7561L41.0147 35.6346ZM40.5463 20.2258C40.5281 19.4598 40.4364 18.7013 40.2025 18.0255L36.4225 19.3339C36.4698 19.4706 36.5344 19.7746 36.5474 20.321L40.5463 20.2258ZM40.2241 18.0915C40.0287 17.4566 39.6981 16.8027 39.1381 16.2801L36.4088 19.2043C36.3636 19.1622 36.3474 19.1327 36.3502 19.1376C36.3539 19.1441 36.3747 19.1826 36.4009 19.2679L40.2241 18.0915ZM39.1381 16.2801C38.6339 15.8095 38.0243 15.4949 37.3454 15.3592L36.5609 19.2815C36.542 19.2777 36.512 19.2688 36.4779 19.2512C36.4439 19.2337 36.4205 19.2152 36.4088 19.2043L39.1381 16.2801ZM37.4382 15.38C36.9377 15.2549 36.4193 15.2031 35.8984 15.2031V19.2031C36.1589 19.2031 36.3436 19.2295 36.4681 19.2606L37.4382 15.38ZM35.8984 15.2031C35.3776 15.2031 34.8592 15.2549 34.3587 15.38L35.3288 19.2606C35.4533 19.2295 35.638 19.2031 35.8984 19.2031V15.2031ZM34.4515 15.3592C33.7725 15.4949 33.163 15.8095 32.6588 16.2801L35.3881 19.2043C35.3763 19.2152 35.353 19.2337 35.319 19.2512C35.2849 19.2688 35.2548 19.2777 35.236 19.2815L34.4515 15.3592ZM32.6588 16.2801C32.1188 16.7841 31.7834 17.4118 31.571 18.0255L35.3509 19.3339C35.3838 19.2388 35.4107 19.1884 35.422 19.1696C35.4326 19.1519 35.4245 19.1703 35.3881 19.2043L32.6588 16.2801ZM31.5494 18.0915C31.3495 18.741 31.2685 19.4743 31.2506 20.2258L35.2494 20.321C35.2628 19.7601 35.3223 19.4309 35.3725 19.2679L31.5494 18.0915ZM31.2509 20.2128L30.7822 35.6581L34.7803 35.7794L35.2491 20.3341L31.2509 20.2128ZM50.9453 21.3047L48.9461 21.3602L48.9463 21.3686L50.9453 21.3047ZM52.8203 15.7266L51.3571 14.3631L51.3487 14.3721L51.3404 14.3812L52.8203 15.7266ZM55.1172 14.1328L55.8933 15.9761L55.9069 15.9703L55.9205 15.9644L55.1172 14.1328ZM59.8984 13.8047L59.2988 15.7127L59.3064 15.7151L59.314 15.7174L59.8984 13.8047ZM61.4453 14.4609L60.4593 16.201L60.4816 16.2136L60.5041 16.2256L61.4453 14.4609ZM62.6875 15.3047L61.3751 16.8139L61.4099 16.8442L61.4461 16.8728L62.6875 15.3047ZM63.6484 16.1719L62.1944 17.5451L65.6484 21.2023V16.1719H63.6484ZM63.7422 14.7188L61.8448 14.0863L61.8311 14.1275L61.8191 14.1693L63.7422 14.7188ZM64.2344 14.1797L63.3828 12.3701L63.3612 12.3802L63.3399 12.3908L64.2344 14.1797ZM65.3359 13.9219L65.5349 15.9119L65.5635 15.9091L65.5919 15.9054L65.3359 13.9219ZM69.1562 13.9219L68.8919 15.9043L68.9277 15.9091L68.9636 15.9126L69.1562 13.9219ZM70.2344 14.1797L69.2932 15.9444L69.3164 15.9568L69.34 15.9685L70.2344 14.1797ZM70.7031 14.7188L68.7707 15.2341L68.7919 15.3138L68.8196 15.3914L70.7031 14.7188ZM70.8203 15.5391L72.8199 15.5803L72.8203 15.5597V15.5391H70.8203ZM70.2109 45.0703L72.2104 45.1191L72.2105 45.1116L70.2109 45.0703ZM69.4609 48.2812L67.7051 47.3235L67.6948 47.3424L67.6849 47.3615L69.4609 48.2812ZM67.5156 50.3672L66.4727 48.6606L66.4541 48.672L66.4357 48.6838L67.5156 50.3672ZM64.4922 51.4922L64.1299 49.5253L64.1174 49.5276L64.1049 49.53L64.4922 51.4922ZM57.8828 51.75L58.077 49.7594L58.0529 49.7571L58.0288 49.7553L57.8828 51.75ZM56.3125 51.5625L56.6902 49.5985L56.6658 49.5938L56.6413 49.5897L56.3125 51.5625ZM55.8438 51.3984L56.9037 49.7024L56.8703 49.6815L56.836 49.662L55.8438 51.3984ZM55.5859 51.0938L53.6886 51.7262L53.7191 51.8178L53.7583 51.906L55.5859 51.0938ZM55.4688 50.5078L53.4732 50.6409L53.477 50.6985L53.4842 50.7559L55.4688 50.5078ZM55.6094 47.9062L53.7217 47.2455L53.7167 47.2596L53.712 47.2738L55.6094 47.9062ZM56.3125 47.4844L56.1392 49.4769L56.1464 49.4775L56.3125 47.4844ZM57.7422 47.625L58.0031 45.6421L57.9802 45.6391L57.9571 45.6366L57.7422 47.625ZM63.7188 46.0312L61.8072 45.4431L61.8041 45.4531L61.8012 45.4631L63.7188 46.0312ZM63.8828 44.5312L65.8821 44.4786L65.882 44.476L63.8828 44.5312ZM63.7656 40.2891L65.7649 40.2338L65.6551 36.261L62.53 38.7164L63.7656 40.2891ZM61.3516 41.6719L60.5674 39.832L60.5563 39.8368L61.3516 41.6719ZM55.3281 41.8594L54.6625 43.7454L54.6739 43.7493L55.3281 41.8594ZM53.2656 40.5234L51.779 41.8614L51.7966 41.8809L51.8147 41.9L53.2656 40.5234ZM51.9297 38.1094L50.0294 38.7329L50.0323 38.7418L51.9297 38.1094ZM51.3672 34.5L49.3682 34.5639L49.3683 34.5666L51.3672 34.5ZM57.8359 34.5L59.8352 34.554L59.8352 34.5533L57.8359 34.5ZM58.6328 37.1719L57.1462 38.5098L57.1638 38.5293L57.1819 38.5484L58.6328 37.1719ZM63.6953 37.1953L64.8717 38.8128L65.7194 38.1963L65.6948 37.1483L63.6953 37.1953ZM63.2734 19.2422L65.2729 19.1952L65.2481 18.1423L64.366 17.567L63.2734 19.2422ZM62.1016 18.6562L61.347 20.5084L61.3768 20.5206L61.4069 20.5317L62.1016 18.6562ZM59.8516 18.5625L60.4263 20.4782L60.4696 20.4652L60.5123 20.4502L59.8516 18.5625ZM59.0078 19.0547L60.3725 20.5168L60.3757 20.5138L59.0078 19.0547ZM58.4219 19.9453L56.5757 19.1761L56.5619 19.2093L56.5492 19.2431L58.4219 19.9453ZM58.1875 21.3047L56.1884 21.2459L56.1882 21.2514L58.1875 21.3047ZM52.9445 21.2492C52.9192 20.3364 53.0403 19.5396 53.2817 18.8385L49.4995 17.5365C49.0847 18.7416 48.9089 20.0229 48.9461 21.3602L52.9445 21.2492ZM53.2817 18.8385C53.5289 18.1203 53.8731 17.5418 54.3002 17.0719L51.3404 14.3812C50.5176 15.2864 49.9086 16.3484 49.4995 17.5365L53.2817 18.8385ZM54.2835 17.09C54.726 16.6151 55.2554 16.2447 55.8933 15.9761L54.3411 12.2895C53.1977 12.771 52.1958 13.463 51.3571 14.3631L54.2835 17.09ZM55.9205 15.9644C56.5281 15.6979 57.242 15.5469 58.0938 15.5469V11.5469C56.758 11.5469 55.4875 11.7865 54.3139 12.3012L55.9205 15.9644ZM58.0938 15.5469C58.5755 15.5469 58.9717 15.6099 59.2988 15.7127L60.4981 11.8967C59.7314 11.6557 58.9245 11.5469 58.0938 11.5469V15.5469ZM59.314 15.7174C59.7494 15.8504 60.1287 16.0136 60.4593 16.201L62.4313 12.7209C61.8244 12.377 61.1725 12.1027 60.4829 11.892L59.314 15.7174ZM60.5041 16.2256C60.855 16.4128 61.1417 16.6109 61.3751 16.8139L63.9999 13.7955C63.5146 13.3735 62.9731 13.0091 62.3865 12.6962L60.5041 16.2256ZM61.4461 16.8728C61.7625 17.1233 62.0082 17.3479 62.1944 17.5451L65.1025 14.7986C64.7575 14.4333 64.3625 14.0799 63.9289 13.7366L61.4461 16.8728ZM65.6484 16.1719V15.5391H61.6484V16.1719H65.6484ZM65.6484 15.5391C65.6484 15.437 65.6534 15.3636 65.6589 15.315C65.6646 15.2655 65.6696 15.2529 65.6652 15.2682L61.8191 14.1693C61.6885 14.6264 61.6484 15.0996 61.6484 15.5391H65.6484ZM65.6396 15.3512C65.5915 15.4953 65.5104 15.6367 65.4008 15.7567C65.2946 15.873 65.1911 15.9374 65.1288 15.9685L63.3399 12.3908C62.6834 12.7191 62.1133 13.281 61.8448 14.0863L65.6396 15.3512ZM65.086 15.9893C65.0622 16.0005 65.0812 15.9884 65.1648 15.9689C65.246 15.9498 65.3667 15.9288 65.5349 15.9119L65.1369 11.9318C64.5617 11.9893 63.9403 12.1077 63.3828 12.3701L65.086 15.9893ZM65.5919 15.9054C65.9554 15.8585 66.5004 15.8281 67.2578 15.8281V11.8281C66.4215 11.8281 65.6852 11.8602 65.08 11.9383L65.5919 15.9054ZM67.2578 15.8281C68.0173 15.8281 68.5499 15.8587 68.8919 15.9043L69.4206 11.9394C68.8251 11.86 68.0921 11.8281 67.2578 11.8281V15.8281ZM68.9636 15.9126C69.1409 15.9297 69.2568 15.9506 69.3239 15.9666C69.3972 15.9842 69.3721 15.9865 69.2932 15.9444L71.1756 12.415C70.5893 12.1023 69.9138 11.9858 69.3489 11.9312L68.9636 15.9126ZM69.34 15.9685C69.2709 15.934 69.1506 15.8595 69.0299 15.7206C68.9042 15.576 68.8164 15.4057 68.7707 15.2341L72.6356 14.2034C72.4023 13.3286 71.805 12.7289 71.1288 12.3908L69.34 15.9685ZM68.8196 15.3914C68.8061 15.3534 68.8071 15.3427 68.8111 15.3707C68.8151 15.3983 68.8203 15.4526 68.8203 15.5391H72.8203C72.8203 15.0687 72.7665 14.5497 72.5866 14.0461L68.8196 15.3914ZM68.8207 15.4978L68.2114 45.0291L72.2105 45.1116L72.8199 15.5803L68.8207 15.4978ZM68.2115 45.0215C68.1857 46.0796 67.9818 46.8163 67.7051 47.3235L71.2167 49.239C71.8775 48.0275 72.1736 46.6236 72.2103 45.1191L68.2115 45.0215ZM67.6849 47.3615C67.4004 47.911 67.006 48.3347 66.4727 48.6606L68.5585 52.0737C69.7127 51.3684 70.6152 50.4015 71.2369 49.201L67.6849 47.3615ZM66.4357 48.6838C65.8697 49.0469 65.1184 49.3432 64.1299 49.5253L64.8545 53.4591C66.241 53.2037 67.5053 52.7499 68.5955 52.0506L66.4357 48.6838ZM64.1049 49.53C63.0698 49.7343 61.8667 49.8438 60.4844 49.8438V53.8438C62.0708 53.8438 63.5396 53.7188 64.8795 53.4543L64.1049 49.53ZM60.4844 49.8438C59.4175 49.8438 58.6239 49.8128 58.077 49.7594L57.6886 53.7406C58.4229 53.8122 59.3638 53.8438 60.4844 53.8438V49.8438ZM58.0288 49.7553C57.4285 49.7114 56.9902 49.6562 56.6902 49.5985L55.9348 53.5265C56.4473 53.6251 57.0559 53.6948 57.7369 53.7447L58.0288 49.7553ZM56.6413 49.5897C56.6415 49.5897 56.7512 49.6071 56.9037 49.7024L54.7838 53.0944C55.1863 53.346 55.6085 53.4728 55.9837 53.5353L56.6413 49.5897ZM56.836 49.662C57.172 49.854 57.3422 50.1209 57.4136 50.2815L53.7583 51.906C53.9547 52.3478 54.2967 52.8179 54.8515 53.1349L56.836 49.662ZM57.4833 50.4613C57.4932 50.4911 57.491 50.4916 57.4826 50.4496C57.4748 50.4102 57.4644 50.3484 57.4533 50.2597L53.4842 50.7559C53.5221 51.0595 53.5811 51.4039 53.6886 51.7262L57.4833 50.4613ZM57.4643 50.3748C57.4529 50.2027 57.4453 49.9471 57.4453 49.5938H53.4453C53.4453 49.9904 53.4534 50.3442 53.4732 50.6409L57.4643 50.3748ZM57.4453 49.5938C57.4453 49.236 57.4578 48.9646 57.4769 48.7677C57.4977 48.5546 57.5198 48.4996 57.5067 48.5387L53.712 47.2738C53.4908 47.9374 53.4453 48.7886 53.4453 49.5938H57.4453ZM57.4971 48.567C57.4313 48.7548 57.2595 49.0634 56.8962 49.2814C56.5519 49.4879 56.2462 49.4862 56.1392 49.4769L56.4858 45.4919C56.0194 45.4513 55.4168 45.5042 54.8382 45.8514C54.2405 46.21 53.8968 46.7452 53.7217 47.2455L57.4971 48.567ZM56.1464 49.4775C56.4989 49.5068 56.9576 49.5518 57.5272 49.6134L57.9571 45.6366C57.3705 45.5732 56.8761 45.5244 56.4786 45.4913L56.1464 49.4775ZM57.4813 49.6079C58.2015 49.7027 59.1138 49.7422 60.1797 49.7422V45.7422C59.1831 45.7422 58.4704 45.7036 58.0031 45.6421L57.4813 49.6079ZM60.1797 49.7422C60.9515 49.7422 61.6852 49.6802 62.3546 49.529L61.4735 45.6272C61.1742 45.6948 60.7516 45.7422 60.1797 45.7422V49.7422ZM62.3546 49.529C63.0664 49.3683 63.7737 49.0746 64.3742 48.5689L61.7977 45.5092C61.8044 45.5035 61.7305 45.5692 61.4735 45.6272L62.3546 49.529ZM64.3742 48.5689C65.0092 48.0342 65.4155 47.3448 65.6363 46.5994L61.8012 45.4631C61.7848 45.5183 61.7718 45.538 61.773 45.5361C61.7734 45.5354 61.776 45.5314 61.7811 45.5256C61.7862 45.5197 61.792 45.514 61.7977 45.5092L64.3742 48.5689ZM65.6303 46.6194C65.8389 45.9414 65.9014 45.2099 65.8821 44.4786L61.8835 44.5839C61.8955 45.0401 61.8486 45.3086 61.8072 45.4431L65.6303 46.6194ZM65.882 44.476L65.7649 40.2338L61.7664 40.3443L61.8836 44.5865L65.882 44.476ZM62.53 38.7164C62.0403 39.1011 61.3961 39.4788 60.5674 39.832L62.1358 43.5117C63.2133 43.0524 64.1784 42.5082 65.0013 41.8617L62.53 38.7164ZM60.5563 39.8368C59.9193 40.1128 59.1063 40.2812 58.0703 40.2812V44.2812C59.5343 44.2812 60.9088 44.0434 62.1468 43.507L60.5563 39.8368ZM58.0703 40.2812C57.238 40.2812 56.5502 40.166 55.9823 39.9694L54.6739 43.7493C55.7311 44.1153 56.8714 44.2812 58.0703 44.2812V40.2812ZM55.9938 39.9734C55.4934 39.7968 55.0755 39.5253 54.7166 39.1469L51.8147 41.9C52.612 42.7403 53.5691 43.3595 54.6625 43.7454L55.9938 39.9734ZM54.7522 39.1855C54.4114 38.8068 54.088 38.2598 53.8271 37.4769L50.0323 38.7418C50.4276 39.9277 50.9949 40.9901 51.779 41.8614L54.7522 39.1855ZM53.83 37.4858C53.577 36.7148 53.4086 35.7097 53.3661 34.4334L49.3683 34.5666C49.4195 36.1028 49.6261 37.504 50.0294 38.7329L53.83 37.4858ZM53.3662 34.4361L52.9443 21.2408L48.9463 21.3686L49.3682 34.5639L53.3662 34.4361ZM55.8367 34.446C55.7968 35.9196 56.1292 37.3798 57.1462 38.5098L60.1194 35.8339C60.0114 35.7139 59.8125 35.3929 59.8352 34.554L55.8367 34.446ZM57.1819 38.5484C58.209 39.631 59.5644 40.0859 61 40.0859V36.0859C60.4356 36.0859 60.2129 35.9315 60.0837 35.7954L57.1819 38.5484ZM61 40.0859C61.7583 40.0859 62.5024 39.9663 63.2093 39.6981L61.7907 35.9581C61.5914 36.0337 61.3354 36.0859 61 36.0859V40.0859ZM63.2093 39.6981C63.8059 39.4718 64.3657 39.1808 64.8717 38.8128L62.519 35.5778C62.3374 35.7099 62.1004 35.8407 61.7907 35.9581L63.2093 39.6981ZM65.6948 37.1483L65.2729 19.1952L61.274 19.2892L61.6959 37.2423L65.6948 37.1483ZM64.366 17.567C63.8759 17.2474 63.351 16.9862 62.7962 16.7808L61.4069 20.5317C61.6959 20.6388 61.9522 20.7682 62.1809 20.9174L64.366 17.567ZM62.8562 16.8041C62.214 16.5424 61.5366 16.3984 60.8359 16.3984V20.3984C60.9791 20.3984 61.1454 20.4263 61.347 20.5084L62.8562 16.8041ZM60.8359 16.3984C60.2759 16.3984 59.7238 16.4883 59.1909 16.6748L60.5123 20.4502C60.6043 20.418 60.7085 20.3984 60.8359 20.3984V16.3984ZM59.2769 16.6468C58.6533 16.8339 58.1038 17.1607 57.6399 17.5956L60.3757 20.5138C60.3968 20.4939 60.4097 20.4859 60.414 20.4834C60.4179 20.4811 60.421 20.4797 60.4263 20.4782L59.2769 16.6468ZM57.6432 17.5926C57.1531 18.0499 56.8131 18.6063 56.5757 19.1761L60.268 20.7145C60.3431 20.5343 60.3937 20.4969 60.3724 20.5168L57.6432 17.5926ZM56.5492 19.2431C56.3107 19.8791 56.2085 20.5622 56.1884 21.2459L60.1866 21.3635C60.1978 20.9847 60.2518 20.7615 60.2945 20.6476L56.5492 19.2431ZM56.1882 21.2514L55.8366 34.4467L59.8352 34.5533L60.1868 21.358L56.1882 21.2514ZM76.5391 4.33594L78.5383 4.28008L78.538 4.26957L78.5376 4.25907L76.5391 4.33594ZM77.2422 2.76562L76.4215 0.941782L76.4037 0.949793L76.386 0.958149L77.2422 2.76562ZM78.5547 2.48438L78.7208 4.47747L78.7482 4.47518L78.7756 4.47214L78.5547 2.48438ZM83.0312 2.48438L82.8104 4.47214L82.8377 4.47518L82.8652 4.47747L83.0312 2.48438ZM84.3203 2.76562L83.4641 4.5731L83.4818 4.58146L83.4996 4.58947L84.3203 2.76562ZM84.9297 3.35156L83.057 4.05381L83.0759 4.10405L83.0974 4.1532L84.9297 3.35156ZM85.0703 4.33594L83.0718 4.25907L83.0714 4.26892L83.0711 4.27878L85.0703 4.33594ZM84.0391 40.4062L82.0399 40.3491L82.0391 40.3777V40.4062H84.0391ZM83.9219 41.2734L82.0384 40.6008L82.0234 40.6427L82.0103 40.6853L83.9219 41.2734ZM83.4766 41.7422L82.6308 39.9298L82.6063 39.9412L82.5821 39.9533L83.4766 41.7422ZM79.0703 41.9531L78.9226 43.9477L78.9278 43.948L79.0703 41.9531ZM77.6641 41.2734L75.741 41.8229L75.7654 41.9084L75.7974 41.9914L77.6641 41.2734ZM77.5469 40.4062L75.5477 40.4621L75.5481 40.4776L75.5488 40.4931L77.5469 40.4062ZM78.5376 4.25907C78.5329 4.13772 78.5379 4.06125 78.5426 4.02158C78.5475 3.98077 78.5498 3.99811 78.5289 4.05381L74.7836 2.64932C74.5609 3.24321 74.5195 3.86604 74.5405 4.4128L78.5376 4.25907ZM78.5289 4.05381C78.472 4.20544 78.3843 4.33472 78.2873 4.43179C78.1954 4.52365 78.1189 4.56338 78.0984 4.5731L76.386 0.958149C75.7339 1.26705 75.0998 1.8061 74.7836 2.64932L78.5289 4.05381ZM78.0629 4.58947C78.0581 4.59162 78.1038 4.57116 78.2237 4.54545C78.3408 4.52036 78.5037 4.49556 78.7208 4.47747L78.3886 0.491283C77.7266 0.546449 77.0317 0.667167 76.4215 0.941782L78.0629 4.58947ZM78.7756 4.47214C79.2329 4.42133 79.8999 4.39062 80.8047 4.39062V0.390625C79.8345 0.390625 79.0015 0.422421 78.3338 0.496608L78.7756 4.47214ZM80.8047 4.39062C81.6924 4.39062 82.3522 4.42123 82.8104 4.47214L83.2521 0.496608C82.5853 0.422519 81.7607 0.390625 80.8047 0.390625V4.39062ZM82.8652 4.47747C83.082 4.49554 83.2401 4.52009 83.3491 4.54388C83.4621 4.56853 83.4902 4.58544 83.4641 4.5731L85.1765 0.958149C84.5607 0.666465 83.8526 0.54589 83.1973 0.491283L82.8652 4.47747ZM83.4996 4.58947C83.4905 4.58539 83.4158 4.55056 83.3208 4.45924C83.2193 4.3616 83.1208 4.22396 83.057 4.05381L86.8023 2.64932C86.4723 1.76924 85.7952 1.23616 85.141 0.941782L83.4996 4.58947ZM83.0974 4.1532C83.0661 4.08178 83.0638 4.0459 83.067 4.068C83.0701 4.08982 83.076 4.1503 83.0718 4.25907L87.0688 4.4128C87.0909 3.84026 87.0369 3.17833 86.762 2.54992L83.0974 4.1532ZM83.0711 4.27878L82.0399 40.3491L86.0382 40.4634L87.0695 4.39309L83.0711 4.27878ZM82.0391 40.4062C82.0391 40.516 82.0329 40.5865 82.0278 40.6247C82.0224 40.6646 82.0205 40.6508 82.0384 40.6008L85.8054 41.9461C85.9908 41.4269 86.0391 40.8834 86.0391 40.4062H82.0391ZM82.0103 40.6853C82.0712 40.4873 82.1783 40.308 82.3137 40.1655C82.4426 40.0298 82.5654 39.9603 82.6308 39.9298L84.3223 43.5546C84.9486 43.2623 85.5692 42.7202 85.8334 41.8616L82.0103 40.6853ZM82.5821 39.9533C82.6243 39.9322 82.6526 39.9223 82.661 39.9195C82.6697 39.9166 82.6649 39.9187 82.6434 39.9235C82.5979 39.9335 82.5098 39.9481 82.3679 39.9586L82.6634 43.9477C83.1833 43.9091 83.8082 43.8125 84.371 43.531L82.5821 39.9533ZM82.3679 39.9586C82.0174 39.9846 81.503 40 80.8047 40V44C81.5439 44 82.1701 43.9842 82.6634 43.9477L82.3679 39.9586ZM80.8047 40C80.1077 40 79.5827 39.9846 79.2128 39.9582L78.9278 43.948C79.4329 43.9841 80.0642 44 80.8047 44V40ZM79.2181 39.9586C79.0761 39.9481 78.988 39.9335 78.9425 39.9235C78.921 39.9187 78.9162 39.9166 78.9249 39.9195C78.9333 39.9223 78.9616 39.9322 79.0038 39.9533L77.215 43.531C77.7778 43.8125 78.4027 43.9091 78.9226 43.9477L79.2181 39.9586ZM79.0038 39.9533C79.0744 39.9886 79.1783 40.0542 79.284 40.1655C79.3924 40.2796 79.4765 40.4144 79.5308 40.5555L75.7974 41.9914C76.0772 42.7189 76.6094 43.2282 77.215 43.531L79.0038 39.9533ZM79.5871 40.724C79.5884 40.7285 79.5799 40.6992 79.5699 40.6247C79.5601 40.5522 79.5508 40.4519 79.545 40.3194L75.5488 40.4931C75.5677 40.9299 75.6181 41.3926 75.741 41.8229L79.5871 40.724ZM79.5461 40.3504L78.5383 4.28008L74.5398 4.3918L75.5477 40.4621L79.5461 40.3504ZM90.8359 15.5391H88.8359V15.5689L88.8368 15.5987L90.8359 15.5391ZM90.9297 14.7188L89.0323 14.0863L89.0186 14.1275L89.0066 14.1693L90.9297 14.7188ZM91.3984 14.1797L90.504 12.3908L90.4805 12.4026L90.4573 12.415L91.3984 14.1797ZM92.4766 13.9219L92.6756 15.9119L92.7041 15.9091L92.7325 15.9054L92.4766 13.9219ZM96.2969 13.9219L96.0325 15.9043L96.0683 15.9091L96.1042 15.9126L96.2969 13.9219ZM97.375 14.1797L96.4338 15.9444L96.457 15.9568L96.4806 15.9685L97.375 14.1797ZM97.8438 14.7188L95.9113 15.2341L95.9325 15.3138L95.9603 15.3914L97.8438 14.7188ZM97.9609 15.5391L99.9599 15.6046L99.9609 15.5718V15.5391H97.9609ZM97.9141 16.9688L95.9151 16.9032L95.7316 22.5001L99.4192 18.2858L97.9141 16.9688ZM99.25 15.6094L100.585 17.0985L100.588 17.096L99.25 15.6094ZM100.727 14.5312L101.724 16.2645L101.733 16.2598L101.741 16.2551L100.727 14.5312ZM107.008 14.0625L106.229 15.9045L106.241 15.9097L107.008 14.0625ZM109.117 15.5625L107.616 16.8846L107.625 16.8945L107.634 16.9043L109.117 15.5625ZM110.477 17.9531L108.579 18.5856L108.584 18.5997L108.589 18.6138L110.477 17.9531ZM110.922 21.1406L112.921 21.1982L112.921 21.1932L110.922 21.1406ZM110.359 40.6641L108.36 40.6065L108.359 40.6353V40.6641H110.359ZM108.859 41.9531L108.706 39.959L108.7 39.9595L108.859 41.9531ZM105.695 41.9531L105.536 43.9468L105.542 43.9472L105.695 41.9531ZM104.781 41.7656L103.943 43.5815L103.968 43.5931L103.993 43.6039L104.781 41.7656ZM104.242 40.6641H106.242V40.6355L106.241 40.6069L104.242 40.6641ZM103.703 21.8203L101.704 21.8716L101.704 21.8775L103.703 21.8203ZM102.062 18.8438L101.488 20.7594L101.5 20.7632L101.513 20.7668L102.062 18.8438ZM98.2891 20.3672L96.6692 19.1942L96.3077 19.6934L96.2899 20.3095L98.2891 20.3672ZM97.7031 40.6641L95.704 40.6063L95.7031 40.6352V40.6641H97.7031ZM96.2031 41.9531L96.0497 39.959L96.0436 39.9595L96.2031 41.9531ZM93.0391 41.9531L92.8796 43.9468L92.8857 43.9472L93.0391 41.9531ZM92.125 41.7656L91.2869 43.5815L91.3119 43.5931L91.3372 43.6039L92.125 41.7656ZM91.5859 40.6641H93.5859V40.6342L93.585 40.6044L91.5859 40.6641ZM92.8359 15.5391C92.8359 15.437 92.8409 15.3636 92.8464 15.315C92.8521 15.2655 92.8571 15.2529 92.8527 15.2682L89.0066 14.1693C88.876 14.6264 88.8359 15.0996 88.8359 15.5391H92.8359ZM92.8271 15.3512C92.786 15.4744 92.716 15.6041 92.6147 15.7206C92.5152 15.835 92.413 15.9052 92.3396 15.9444L90.4573 12.415C89.8082 12.7612 89.2853 13.3273 89.0323 14.0863L92.8271 15.3512ZM92.2929 15.9685C92.2456 15.9922 92.245 15.9847 92.3206 15.9666C92.3927 15.9494 92.5078 15.9287 92.6756 15.9119L92.2776 11.9318C91.7094 11.9886 91.0709 12.1074 90.504 12.3908L92.2929 15.9685ZM92.7325 15.9054C93.096 15.8585 93.641 15.8281 94.3984 15.8281V11.8281C93.5621 11.8281 92.8258 11.8602 92.2206 11.9383L92.7325 15.9054ZM94.3984 15.8281C95.1579 15.8281 95.6906 15.8587 96.0325 15.9043L96.5612 11.9394C95.9657 11.86 95.2327 11.8281 94.3984 11.8281V15.8281ZM96.1042 15.9126C96.2816 15.9297 96.3975 15.9506 96.4645 15.9666C96.5379 15.9842 96.5127 15.9865 96.4338 15.9444L98.3162 12.415C97.7299 12.1023 97.0544 11.9858 96.4895 11.9312L96.1042 15.9126ZM96.4806 15.9685C96.4115 15.934 96.2913 15.8595 96.1705 15.7206C96.0448 15.576 95.957 15.4057 95.9113 15.2341L99.7762 14.2034C99.5429 13.3286 98.9456 12.7289 98.2694 12.3908L96.4806 15.9685ZM95.9603 15.3914C95.9467 15.3534 95.9477 15.3427 95.9517 15.3707C95.9557 15.3983 95.9609 15.4526 95.9609 15.5391H99.9609C99.9609 15.0687 99.9071 14.5497 99.7272 14.0461L95.9603 15.3914ZM95.962 15.4735L95.9151 16.9032L99.913 17.0343L99.9599 15.6046L95.962 15.4735ZM99.4192 18.2858C99.8083 17.8411 100.197 17.4462 100.585 17.0985L97.9149 14.1202C97.3965 14.585 96.8948 15.0964 96.4089 15.6517L99.4192 18.2858ZM100.588 17.096C100.959 16.7624 101.338 16.4873 101.724 16.2645L99.7286 12.798C99.0843 13.169 98.479 13.6126 97.9121 14.1228L100.588 17.096ZM101.741 16.2551C102.128 16.0275 102.536 15.8514 102.97 15.7258L101.858 11.8836C101.104 12.1017 100.388 12.41 99.7125 12.8074L101.741 16.2551ZM102.97 15.7258C103.36 15.6129 103.819 15.5469 104.359 15.5469V11.5469C103.493 11.5469 102.655 11.6528 101.858 11.8836L102.97 15.7258ZM104.359 15.5469C105.067 15.5469 105.682 15.6731 106.229 15.9044L107.787 12.2206C106.709 11.7644 105.558 11.5469 104.359 11.5469V15.5469ZM106.241 15.9097C106.795 16.1396 107.245 16.4629 107.616 16.8846L110.618 14.2404C109.833 13.3496 108.877 12.6729 107.775 12.2153L106.241 15.9097ZM107.634 16.9043C108.022 17.3326 108.344 17.8799 108.579 18.5856L112.374 17.3207C111.984 16.1513 111.4 15.1049 110.6 14.2207L107.634 16.9043ZM108.589 18.6138C108.823 19.2823 108.949 20.0967 108.923 21.088L112.921 21.1932C112.958 19.8095 112.787 18.499 112.364 17.2924L108.589 18.6138ZM108.923 21.083L108.36 40.6065L112.359 40.7217L112.921 21.1982L108.923 21.083ZM108.359 40.6641C108.359 40.7283 108.355 40.7481 108.357 40.7337C108.359 40.7209 108.372 40.6473 108.421 40.5396L112.063 42.1948C112.308 41.6567 112.359 41.1005 112.359 40.6641H108.359ZM108.421 40.5396C108.599 40.1481 108.894 39.9768 109.009 39.9273L110.585 43.6039C111.138 43.3669 111.729 42.93 112.063 42.1948L108.421 40.5396ZM109.009 39.9273C109.061 39.9049 109.069 39.909 109.006 39.9216C108.947 39.9335 108.85 39.948 108.706 39.959L109.013 43.9472C109.505 43.9094 110.071 43.8242 110.585 43.6039L109.009 39.9273ZM108.7 39.9595C108.386 39.9846 107.922 40 107.289 40V44C107.968 44 108.552 43.9841 109.019 43.9468L108.7 39.9595ZM107.289 40C106.657 40 106.183 39.9847 105.849 39.959L105.542 43.9472C106.02 43.984 106.608 44 107.289 44V40ZM105.855 39.9595C105.721 39.9488 105.631 39.9349 105.576 39.9236C105.518 39.9118 105.523 39.9076 105.569 39.9273L103.993 43.6039C104.499 43.8206 105.05 43.9079 105.536 43.9468L105.855 39.9595ZM105.619 39.9497C105.684 39.9797 105.787 40.038 105.897 40.1417C106.01 40.2487 106.109 40.3839 106.18 40.5396L102.539 42.1948C102.851 42.8813 103.389 43.3259 103.943 43.5815L105.619 39.9497ZM106.18 40.5396C106.229 40.6473 106.242 40.7209 106.244 40.7337C106.247 40.7481 106.242 40.7283 106.242 40.6641H102.242C102.242 41.1005 102.294 41.6567 102.539 42.1948L106.18 40.5396ZM106.241 40.6069L105.702 21.7631L101.704 21.8775L102.243 40.7213L106.241 40.6069ZM105.702 21.769C105.684 21.0328 105.588 20.3055 105.359 19.6427L101.579 20.9511C101.631 21.1008 101.691 21.3891 101.704 21.8716L105.702 21.769ZM105.359 19.6427C105.147 19.0322 104.823 18.424 104.32 17.9217L101.492 20.7502C101.459 20.7167 101.509 20.7491 101.579 20.9511L105.359 19.6427ZM104.32 17.9217C103.838 17.4397 103.257 17.1049 102.612 16.9207L101.513 20.7668C101.519 20.7686 101.522 20.7696 101.521 20.7692C101.519 20.7687 101.516 20.7673 101.512 20.7647C101.507 20.762 101.503 20.759 101.499 20.7559C101.495 20.7528 101.493 20.7506 101.492 20.7502L104.32 17.9217ZM102.637 16.9281C102.113 16.7708 101.572 16.7031 101.031 16.7031V20.7031C101.24 20.7031 101.387 20.7292 101.488 20.7594L102.637 16.9281ZM101.031 16.7031C100.044 16.7031 99.1038 16.9846 98.2879 17.5754L100.634 20.8152C100.724 20.7498 100.831 20.7031 101.031 20.7031V16.7031ZM98.2879 17.5754C97.6631 18.0279 97.1216 18.5693 96.6692 19.1942L99.9089 21.5402C100.113 21.2588 100.353 21.019 100.634 20.8152L98.2879 17.5754ZM96.2899 20.3095L95.704 40.6063L99.7023 40.7218L100.288 20.4249L96.2899 20.3095ZM95.7031 40.6641C95.7031 40.7283 95.6986 40.7481 95.701 40.7337C95.7032 40.7209 95.7162 40.6473 95.7652 40.5396L99.4067 42.1948C99.6513 41.6567 99.7031 41.1005 99.7031 40.6641H95.7031ZM95.7652 40.5396C95.9431 40.1481 96.2373 39.9768 96.3528 39.9273L97.9285 43.6039C98.4814 43.3669 99.0725 42.93 99.4067 42.1948L95.7652 40.5396ZM96.3528 39.9273C96.4052 39.9049 96.413 39.909 96.35 39.9216C96.2907 39.9335 96.1935 39.948 96.0497 39.959L96.3565 43.9472C96.849 43.9094 97.4145 43.8242 97.9285 43.6039L96.3528 39.9273ZM96.0436 39.9595C95.7295 39.9846 95.2661 40 94.6328 40V44C95.312 44 95.8955 43.9841 96.3626 43.9468L96.0436 39.9595ZM94.6328 40C94.001 40 93.5266 39.9847 93.1925 39.959L92.8857 43.9472C93.3641 43.984 93.9521 44 94.6328 44V40ZM93.1986 39.9595C93.0648 39.9488 92.9744 39.9349 92.9195 39.9236C92.8617 39.9118 92.8669 39.9076 92.9128 39.9273L91.3372 43.6039C91.8428 43.8206 92.3934 43.9079 92.8796 43.9468L93.1986 39.9595ZM92.9631 39.9497C93.0282 39.9797 93.1307 40.038 93.2404 40.1417C93.3537 40.2487 93.4531 40.3839 93.5239 40.5396L89.8824 42.1948C90.1944 42.8813 90.733 43.3259 91.2869 43.5815L92.9631 39.9497ZM93.5239 40.5396C93.5728 40.6473 93.5859 40.7209 93.588 40.7337C93.5904 40.7481 93.5859 40.7283 93.5859 40.6641H89.5859C89.5859 41.1005 89.6378 41.6567 89.8824 42.1948L93.5239 40.5396ZM93.585 40.6044L92.835 15.4794L88.8368 15.5987L89.5868 40.7237L93.585 40.6044Z" fill="black"/>
</g>
<defs>
<filter id="filter0_d" x="0.926315" y="0.390625" width="116" height="61.4531" filterUnits="userSpaceOnUse" color-interpolation-filters="sRGB">
<feFlood flood-opacity="0" result="BackgroundImageFix"/>
<feColorMatrix in="SourceAlpha" type="matrix" values="0 0 0 0 0 0 0 0 0 0 0 0 0 0 0 0 0 0 127 0" result="hardAlpha"/>
<feOffset dy="4"/>
<feGaussianBlur stdDeviation="2"/>
<feComposite in2="hardAlpha" operator="out"/>
<feColorMatrix type="matrix" values="0 0 0 0 0 0 0 0 0 0 0 0 0 0 0 0 0 0 0.25 0"/>
<feBlend mode="normal" in2="BackgroundImageFix" result="effect1_dropShadow"/>
<feBlend mode="normal" in="SourceGraphic" in2="effect1_dropShadow" result="shape"/>
</filter>
</defs>
</svg>
