<svg width="300" height="93" viewBox="0 0 300 93" fill="none" xmlns="http://www.w3.org/2000/svg">
<g filter="url(#filter0_d)">
<path d="M6.85938 6.67188C6.82812 5.85938 6.9375 5.20313 7.1875 4.70312C7.4375 4.20312 7.875 3.8125 8.5 3.53125C9.15625 3.25 10.0312 3.0625 11.125 2.96875C12.25 2.84375 13.6719 2.78125 15.3906 2.78125C16.9531 2.78125 18.2656 2.82812 19.3281 2.92188C20.3906 2.98437 21.25 3.10938 21.9062 3.29688C22.5938 3.48438 23.1094 3.75 23.4531 4.09375C23.8281 4.4375 24.0938 4.85937 24.25 5.35938L37.2812 45.2031H37.7969L50.6406 5.35938C50.7656 4.85937 51 4.4375 51.3438 4.09375C51.6875 3.75 52.1875 3.48438 52.8438 3.29688C53.5 3.10938 54.3281 2.98437 55.3281 2.92188C56.3281 2.82812 57.5625 2.78125 59.0312 2.78125C60.875 2.78125 62.3594 2.84375 63.4844 2.96875C64.6094 3.0625 65.4844 3.25 66.1094 3.53125C66.7344 3.8125 67.1406 4.20312 67.3281 4.70312C67.5469 5.20313 67.6406 5.85938 67.6094 6.67188L65.5469 78.8125C65.5156 79.5312 65.4375 80.1094 65.3125 80.5469C65.1875 80.9531 64.9062 81.2656 64.4688 81.4844C64.0625 81.7031 63.4688 81.8438 62.6875 81.9062C61.9062 81.9688 60.8438 82 59.5 82C58.1875 82 57.125 81.9688 56.3125 81.9062C55.5312 81.8438 54.9375 81.7031 54.5312 81.4844C54.125 81.2656 53.8438 80.9531 53.6875 80.5469C53.5625 80.1094 53.5 79.5312 53.5 78.8125L53.8281 28.3281H53.2188L42.4375 65.7812C42.25 66.375 42.0469 66.8594 41.8281 67.2344C41.6406 67.6094 41.3594 67.9062 40.9844 68.125C40.6094 68.3125 40.0938 68.4375 39.4375 68.5C38.8125 68.5625 37.9688 68.5938 36.9062 68.5938C35.9688 68.5938 35.2188 68.5625 34.6562 68.5C34.0938 68.4062 33.6406 68.2656 33.2969 68.0781C32.9844 67.8594 32.7344 67.5781 32.5469 67.2344C32.3594 66.8594 32.1719 66.375 31.9844 65.7812L21.3438 28.3281H20.7344L20.9688 78.8125C20.9688 79.5312 20.8906 80.1094 20.7344 80.5469C20.6094 80.9531 20.3281 81.2656 19.8906 81.4844C19.4844 81.7031 18.8906 81.8438 18.1094 81.9062C17.3281 81.9688 16.2656 82 14.9219 82C13.5781 82 12.5156 81.9688 11.7344 81.9062C10.9531 81.8438 10.3438 81.7031 9.90625 81.4844C9.5 81.2656 9.23438 80.9531 9.10938 80.5469C8.98438 80.1094 8.90625 79.5312 8.875 78.8125L6.85938 6.67188ZM78.6719 39.3438C78.5781 36.8438 79.0781 34.7031 80.1719 32.9219C81.2969 31.1094 82.7969 29.625 84.6719 28.4688C86.5781 27.3125 88.7656 26.4688 91.2344 25.9375C93.7031 25.375 96.2344 25.0938 98.8281 25.0938C101.422 25.0938 103.953 25.375 106.422 25.9375C108.891 26.4688 111.062 27.3125 112.938 28.4688C114.844 29.625 116.344 31.1094 117.438 32.9219C118.562 34.7031 119.078 36.8438 118.984 39.3438L117.906 69.0156C117.812 71.5781 117.219 73.7344 116.125 75.4844C115.031 77.2031 113.609 78.5938 111.859 79.6562C110.109 80.6875 108.109 81.4375 105.859 81.9062C103.609 82.3438 101.281 82.5625 98.875 82.5625C96.4375 82.5625 94.0938 82.3438 91.8438 81.9062C89.5938 81.4375 87.5781 80.6875 85.7969 79.6562C84.0469 78.5938 82.625 77.2031 81.5312 75.4844C80.4375 73.7656 79.8438 71.625 79.75 69.0625L78.6719 39.3438ZM92.5938 69.4375C92.5625 70.625 92.6562 71.625 92.875 72.4375C93.125 73.25 93.5 73.9062 94 74.4062C94.5312 74.9062 95.1875 75.2656 95.9688 75.4844C96.7812 75.7031 97.7344 75.8125 98.8281 75.8125C101.016 75.8125 102.609 75.3438 103.609 74.4062C104.641 73.4688 105.125 71.7969 105.062 69.3906L104.125 38.5469C104.094 37.2344 103.938 36.1719 103.656 35.3594C103.406 34.5469 103.047 33.9219 102.578 33.4844C102.109 33.0469 101.562 32.7656 100.938 32.6406C100.312 32.4844 99.6094 32.4062 98.8281 32.4062C98.0469 32.4062 97.3438 32.4844 96.7188 32.6406C96.0938 32.7656 95.5469 33.0469 95.0781 33.4844C94.6094 33.9219 94.2344 34.5469 93.9531 35.3594C93.7031 36.1719 93.5625 37.2344 93.5312 38.5469L92.5938 69.4375ZM125.312 29.0781C125.125 28.4219 125.094 27.875 125.219 27.4375C125.375 27 125.734 26.6562 126.297 26.4062C126.859 26.125 127.672 25.9375 128.734 25.8438C129.828 25.7188 131.219 25.6562 132.906 25.6562C134.594 25.6562 135.922 25.7188 136.891 25.8438C137.859 25.9375 138.594 26.1094 139.094 26.3594C139.594 26.6094 139.922 26.9688 140.078 27.4375C140.266 27.875 140.406 28.4219 140.5 29.0781L146.078 70.75H147.203L152.781 29.0781C152.875 28.4219 153 27.875 153.156 27.4375C153.344 26.9688 153.688 26.6094 154.188 26.3594C154.688 26.1094 155.422 25.9375 156.391 25.8438C157.359 25.7188 158.688 25.6562 160.375 25.6562C162.062 25.6562 163.438 25.7188 164.5 25.8438C165.594 25.9375 166.422 26.125 166.984 26.4062C167.547 26.6562 167.891 27 168.016 27.4375C168.172 27.875 168.156 28.4219 167.969 29.0781L155.219 79.3281C155.062 79.8906 154.891 80.3438 154.703 80.6875C154.516 81.0312 154.203 81.3125 153.766 81.5312C153.359 81.7188 152.781 81.8438 152.031 81.9062C151.312 81.9688 150.344 82 149.125 82H144.156C142.938 82 141.953 81.9688 141.203 81.9062C140.484 81.8438 139.906 81.7188 139.469 81.5312C139.062 81.3125 138.766 81.0312 138.578 80.6875C138.391 80.3438 138.219 79.8906 138.062 79.3281L125.312 29.0781ZM174.297 39.3438C174.203 36.8438 174.719 34.7031 175.844 32.9219C177 31.1094 178.531 29.625 180.438 28.4688C182.375 27.3125 184.578 26.4688 187.047 25.9375C189.547 25.375 192.094 25.0938 194.688 25.0938C197.156 25.0938 199.578 25.375 201.953 25.9375C204.328 26.4688 206.438 27.3125 208.281 28.4688C210.125 29.625 211.578 31.1094 212.641 32.9219C213.734 34.7031 214.234 36.8438 214.141 39.3438L213.438 56.6406C213.406 57.2344 213.297 57.7031 213.109 58.0469C212.953 58.3906 212.641 58.6562 212.172 58.8438C211.703 59.0312 211.031 59.1562 210.156 59.2188C209.312 59.2812 208.188 59.3125 206.781 59.3125H188.5L188.219 69.4375C188.188 70.625 188.297 71.625 188.547 72.4375C188.828 73.25 189.234 73.9062 189.766 74.4062C190.297 74.9062 190.953 75.2656 191.734 75.4844C192.516 75.7031 193.406 75.8125 194.406 75.8125C196.406 75.8125 197.875 75.375 198.812 74.5C199.75 73.625 200.219 72.0781 200.219 69.8594V68.4062C200.219 67.8125 200.297 67.3281 200.453 66.9531C200.609 66.5469 200.906 66.2344 201.344 66.0156C201.812 65.7656 202.469 65.5938 203.312 65.5C204.156 65.4062 205.281 65.3594 206.688 65.3594C208.062 65.3594 209.172 65.4062 210.016 65.5C210.859 65.5938 211.5 65.7656 211.938 66.0156C212.406 66.2344 212.703 66.5312 212.828 66.9062C212.984 67.2812 213.062 67.7656 213.062 68.3594V70.4219C213.062 72.8906 212.531 74.9062 211.469 76.4688C210.406 78.0312 209 79.2656 207.25 80.1719C205.531 81.0781 203.547 81.7031 201.297 82.0469C199.078 82.3906 196.797 82.5625 194.453 82.5625C192.078 82.5625 189.766 82.3438 187.516 81.9062C185.266 81.4375 183.25 80.6875 181.469 79.6562C179.719 78.5938 178.281 77.2031 177.156 75.4844C176.062 73.7656 175.469 71.625 175.375 69.0625L174.297 39.3438ZM200.219 52.2812L199.75 38.5469C199.719 37.2344 199.562 36.1719 199.281 35.3594C199.031 34.5469 198.672 33.9219 198.203 33.4844C197.766 33.0469 197.234 32.7656 196.609 32.6406C196.016 32.4844 195.375 32.4062 194.688 32.4062C193.906 32.4062 193.188 32.4844 192.531 32.6406C191.875 32.7656 191.297 33.0469 190.797 33.4844C190.328 33.9219 189.938 34.5469 189.625 35.3594C189.344 36.1719 189.188 37.2344 189.156 38.5469L188.734 52.2812H200.219ZM224.734 6.67188C224.703 5.85938 224.781 5.20313 224.969 4.70312C225.156 4.20312 225.547 3.8125 226.141 3.53125C226.766 3.25 227.641 3.0625 228.766 2.96875C229.891 2.84375 231.391 2.78125 233.266 2.78125C235.109 2.78125 236.594 2.84375 237.719 2.96875C238.844 3.0625 239.703 3.25 240.297 3.53125C240.922 3.8125 241.328 4.20312 241.516 4.70312C241.734 5.20313 241.828 5.85938 241.797 6.67188L239.734 78.8125C239.734 79.5312 239.656 80.1094 239.5 80.5469C239.375 80.9531 239.078 81.2656 238.609 81.4844C238.172 81.7031 237.531 81.8438 236.688 81.9062C235.844 81.9688 234.703 82 233.266 82C231.828 82 230.672 81.9688 229.797 81.9062C228.953 81.8438 228.312 81.7031 227.875 81.4844C227.438 81.2656 227.141 80.9531 226.984 80.5469C226.859 80.1094 226.781 79.5312 226.75 78.8125L224.734 6.67188ZM253.328 29.0781C253.328 28.4219 253.391 27.875 253.516 27.4375C253.672 26.9688 253.984 26.6094 254.453 26.3594C254.953 26.1094 255.672 25.9375 256.609 25.8438C257.578 25.7188 258.859 25.6562 260.453 25.6562C262.047 25.6562 263.312 25.7188 264.25 25.8438C265.219 25.9375 265.938 26.1094 266.406 26.3594C266.906 26.6094 267.219 26.9688 267.344 27.4375C267.5 27.875 267.578 28.4219 267.578 29.0781L267.484 31.9375C268.359 30.9375 269.25 30.0312 270.156 29.2188C271.094 28.375 272.078 27.6562 273.109 27.0625C274.172 26.4375 275.297 25.9531 276.484 25.6094C277.672 25.2656 278.969 25.0938 280.375 25.0938C282.281 25.0938 284.047 25.4375 285.672 26.125C287.328 26.8125 288.734 27.8125 289.891 29.125C291.078 30.4375 291.984 32.0312 292.609 33.9062C293.266 35.7812 293.562 37.9062 293.5 40.2812L292.375 79.3281C292.375 79.9219 292.297 80.3906 292.141 80.7344C291.984 81.0781 291.688 81.3438 291.25 81.5312C290.812 81.7188 290.188 81.8438 289.375 81.9062C288.594 81.9688 287.547 82 286.234 82C284.922 82 283.859 81.9688 283.047 81.9062C282.266 81.8438 281.656 81.7188 281.219 81.5312C280.812 81.3438 280.531 81.0781 280.375 80.7344C280.219 80.3906 280.141 79.9219 280.141 79.3281L279.062 41.6406C279.031 40.4219 278.875 39.4062 278.594 38.5938C278.312 37.7812 277.938 37.1406 277.469 36.6719C277 36.2031 276.438 35.875 275.781 35.6875C275.156 35.5 274.469 35.4062 273.719 35.4062C272.531 35.4062 271.484 35.7344 270.578 36.3906C269.672 37.0469 268.891 37.8281 268.234 38.7344L267.062 79.3281C267.062 79.9219 266.984 80.3906 266.828 80.7344C266.672 81.0781 266.375 81.3438 265.938 81.5312C265.5 81.7188 264.875 81.8438 264.062 81.9062C263.281 81.9688 262.234 82 260.922 82C259.609 82 258.547 81.9688 257.734 81.9062C256.953 81.8438 256.344 81.7188 255.906 81.5312C255.5 81.3438 255.219 81.0781 255.062 80.7344C254.906 80.3906 254.828 79.9219 254.828 79.3281L253.328 29.0781Z" fill="#22414A"/>
<path d="M6.85938 6.67188L8.85859 6.61602L8.8583 6.60551L8.8579 6.59501L6.85938 6.67188ZM8.5 3.53125L7.71216 1.69296L7.69565 1.70004L7.67927 1.70741L8.5 3.53125ZM11.125 2.96875L11.2958 4.96144L11.3209 4.9593L11.3459 4.95652L11.125 2.96875ZM19.3281 2.92188L19.1523 4.91413L19.1815 4.91671L19.2107 4.91842L19.3281 2.92188ZM21.9062 3.29688L21.3568 5.21992L21.3684 5.22323L21.38 5.2264L21.9062 3.29688ZM23.4531 4.09375L22.0389 5.50796L22.0696 5.53869L22.1017 5.56806L23.4531 4.09375ZM24.25 5.35938L22.341 5.95592L22.345 5.96853L22.3491 5.98109L24.25 5.35938ZM37.2812 45.2031L35.3803 45.8248L35.8311 47.2031H37.2812V45.2031ZM37.7969 45.2031V47.2031H39.2535L39.7004 45.8167L37.7969 45.2031ZM50.6406 5.35938L52.5442 5.97299L52.5647 5.90933L52.5809 5.84445L50.6406 5.35938ZM55.3281 2.92188L55.4529 4.91798L55.4839 4.91604L55.5148 4.91314L55.3281 2.92188ZM63.4844 2.96875L63.2635 4.95652L63.2909 4.95956L63.3183 4.96184L63.4844 2.96875ZM67.3281 4.70312L65.4555 5.40537L65.4743 5.45561L65.4958 5.50476L67.3281 4.70312ZM67.6094 6.67188L65.6109 6.59501L65.6105 6.60486L65.6102 6.61472L67.6094 6.67188ZM65.5469 78.8125L67.545 78.8994L67.5456 78.8845L67.5461 78.8697L65.5469 78.8125ZM65.3125 80.5469L67.2241 81.135L67.23 81.1157L67.2355 81.0963L65.3125 80.5469ZM64.4688 81.4844L63.5743 79.6955L63.5472 79.7091L63.5205 79.7234L64.4688 81.4844ZM56.3125 81.9062L56.153 83.8999L56.1591 83.9004L56.3125 81.9062ZM53.6875 80.5469L51.7645 81.0963L51.7889 81.1818L51.8208 81.2648L53.6875 80.5469ZM53.5 78.8125L51.5 78.7995V78.8125H53.5ZM53.8281 28.3281L55.8281 28.3411L55.8412 26.3281H53.8281V28.3281ZM53.2188 28.3281V26.3281H51.7133L51.2968 27.7749L53.2188 28.3281ZM42.4375 65.7812L44.3447 66.3835L44.3524 66.3591L44.3595 66.3345L42.4375 65.7812ZM41.8281 67.2344L40.1006 66.2266L40.0681 66.2823L40.0393 66.34L41.8281 67.2344ZM40.9844 68.125L41.8788 69.9139L41.9364 69.885L41.9921 69.8526L40.9844 68.125ZM39.4375 68.5L39.2479 66.509L39.2385 66.5099L39.4375 68.5ZM34.6562 68.5L34.3275 70.4728L34.3812 70.4818L34.4354 70.4878L34.6562 68.5ZM33.2969 68.0781L32.15 69.7166L32.2413 69.7805L32.3392 69.8339L33.2969 68.0781ZM32.5469 67.2344L30.758 68.1288L30.774 68.1607L30.7911 68.1921L32.5469 67.2344ZM31.9844 65.7812L30.0605 66.3278L30.0685 66.3558L30.0772 66.3835L31.9844 65.7812ZM21.3438 28.3281L23.2676 27.7815L22.8547 26.3281H21.3438V28.3281ZM20.7344 28.3281V26.3281H18.7251L18.7344 28.3374L20.7344 28.3281ZM20.9688 78.8125H22.9688L22.9687 78.8032L20.9688 78.8125ZM20.7344 80.5469L18.8509 79.8742L18.8359 79.9161L18.8228 79.9587L20.7344 80.5469ZM19.8906 81.4844L18.9962 79.6955L18.9691 79.7091L18.9424 79.7234L19.8906 81.4844ZM9.90625 81.4844L8.95805 83.2453L8.98472 83.2597L9.01182 83.2732L9.90625 81.4844ZM9.10938 80.5469L7.18633 81.0963L7.19188 81.1157L7.19782 81.135L9.10938 80.5469ZM8.875 78.8125L6.87578 78.8684L6.87621 78.8839L6.87689 78.8994L8.875 78.8125ZM8.8579 6.59501C8.8341 5.97619 8.92984 5.69059 8.97635 5.59755L5.39865 3.8087C4.94516 4.71566 4.82215 5.74256 4.86085 6.74874L8.8579 6.59501ZM8.97635 5.59755C8.9769 5.59647 9.01783 5.4914 9.32073 5.35509L7.67927 1.70741C6.73217 2.1336 5.8981 2.80978 5.39865 3.8087L8.97635 5.59755ZM9.28784 5.36954C9.67227 5.20478 10.3132 5.04567 11.2958 4.96144L10.9542 0.976057C9.74933 1.07933 8.64023 1.29522 7.71216 1.69296L9.28784 5.36954ZM11.3459 4.95652C12.3704 4.84268 13.7121 4.78125 15.3906 4.78125V0.78125C13.6317 0.78125 12.1296 0.844818 10.9041 0.980982L11.3459 4.95652ZM15.3906 4.78125C16.9187 4.78125 18.1683 4.82731 19.1523 4.91413L19.5039 0.929615C18.363 0.828943 16.9875 0.78125 15.3906 0.78125V4.78125ZM19.2107 4.91842C20.1985 4.97653 20.8968 5.08848 21.3568 5.21992L22.4557 1.37383C21.6032 1.13027 20.5828 0.99222 19.4456 0.925325L19.2107 4.91842ZM21.38 5.2264C21.8777 5.36213 22.0298 5.49886 22.0389 5.50796L24.8673 2.67954C24.1889 2.00114 23.3098 1.60662 22.4325 1.36735L21.38 5.2264ZM22.1017 5.56806C22.2087 5.66619 22.2867 5.78207 22.341 5.95592L26.159 4.76283C25.9008 3.93668 25.4475 3.20881 24.8046 2.61944L22.1017 5.56806ZM22.3491 5.98109L35.3803 45.8248L39.1822 44.5814L26.1509 4.73766L22.3491 5.98109ZM37.2812 47.2031H37.7969V43.2031H37.2812V47.2031ZM39.7004 45.8167L52.5442 5.97299L48.7371 4.74576L35.8933 44.5895L39.7004 45.8167ZM52.5809 5.84445C52.6235 5.67408 52.6861 5.5798 52.758 5.50796L49.9295 2.67954C49.3139 3.2952 48.9077 4.04467 48.7003 4.8743L52.5809 5.84445ZM52.758 5.50796C52.7838 5.48217 52.9389 5.34973 53.3932 5.21992L52.2943 1.37383C51.4361 1.61902 50.5912 2.01783 49.9295 2.67954L52.758 5.50796ZM53.3932 5.21992C53.863 5.0857 54.5364 4.97526 55.4529 4.91798L55.2034 0.92577C54.1198 0.993492 53.137 1.13305 52.2943 1.37383L53.3932 5.21992ZM55.5148 4.91314C56.4316 4.82719 57.5992 4.78125 59.0312 4.78125V0.78125C57.5258 0.78125 56.2247 0.829056 55.1414 0.930607L55.5148 4.91314ZM59.0312 4.78125C60.8408 4.78125 62.2428 4.84311 63.2635 4.95652L63.7052 0.980982C62.4759 0.844395 60.9092 0.78125 59.0312 0.78125V4.78125ZM63.3183 4.96184C64.3438 5.0473 64.9614 5.20783 65.2886 5.35509L66.9301 1.70741C66.0073 1.29217 64.875 1.0777 63.6505 0.975658L63.3183 4.96184ZM65.2886 5.35509C65.4358 5.42133 65.49 5.47049 65.4966 5.47682C65.4993 5.47941 65.4926 5.47339 65.4824 5.45803C65.4719 5.44236 65.4624 5.42394 65.4555 5.40537L69.2008 4.00088C68.777 2.8708 67.8968 2.14241 66.9301 1.70741L65.2886 5.35509ZM65.4958 5.50476C65.549 5.62636 65.6357 5.9488 65.6109 6.59501L69.6079 6.74874C69.6455 5.76995 69.5447 4.77989 69.1604 3.90149L65.4958 5.50476ZM65.6102 6.61472L63.5477 78.7553L67.5461 78.8697L69.6086 6.72903L65.6102 6.61472ZM63.5488 78.7256C63.5209 79.367 63.454 79.7715 63.3895 79.9974L67.2355 81.0963C67.421 80.4473 67.5104 79.6955 67.545 78.8994L63.5488 78.7256ZM63.4009 79.9587C63.423 79.8872 63.4652 79.8103 63.5212 79.748C63.573 79.6905 63.6052 79.6801 63.5743 79.6955L65.3632 83.2732C66.209 82.8503 66.9136 82.1439 67.2241 81.135L63.4009 79.9587ZM63.5205 79.7234C63.4717 79.7497 63.1996 79.8589 62.528 79.9126L62.847 83.8999C63.7379 83.8286 64.6533 83.6565 65.4169 83.2453L63.5205 79.7234ZM62.528 79.9126C61.8241 79.9689 60.8223 80 59.5 80V84C60.8652 84 61.9884 83.9686 62.847 83.8999L62.528 79.9126ZM59.5 80C58.2119 80 57.2062 79.9691 56.4659 79.9121L56.1591 83.9004C57.0438 83.9684 58.1631 84 59.5 84V80ZM56.472 79.9126C55.8004 79.8589 55.5283 79.7497 55.4795 79.7234L53.583 83.2453C54.3467 83.6565 55.2621 83.8286 56.153 83.8999L56.472 79.9126ZM55.4795 79.7234C55.4591 79.7125 55.4747 79.7175 55.5022 79.748C55.515 79.7622 55.5267 79.778 55.5365 79.7941C55.5462 79.8101 55.5517 79.8225 55.5542 79.8289L51.8208 81.2648C52.1596 82.1456 52.7832 82.8147 53.583 83.2453L55.4795 79.7234ZM55.6105 79.9974C55.5573 79.8109 55.5 79.4396 55.5 78.8125H51.5C51.5 79.6229 51.5677 80.4078 51.7645 81.0963L55.6105 79.9974ZM55.5 78.8255L55.8281 28.3411L51.8282 28.3151L51.5 78.7995L55.5 78.8255ZM53.8281 26.3281H53.2188V30.3281H53.8281V26.3281ZM51.2968 27.7749L40.5155 65.228L44.3595 66.3345L55.1407 28.8814L51.2968 27.7749ZM40.5303 65.179C40.37 65.6868 40.2201 66.0217 40.1006 66.2266L43.5557 68.2421C43.8736 67.697 44.13 67.0632 44.3447 66.3835L40.5303 65.179ZM40.0393 66.34C40.0313 66.3559 40.0265 66.3608 40.0247 66.3628C40.0224 66.3651 40.0102 66.3779 39.9766 66.3974L41.9921 69.8526C42.6903 69.4453 43.2492 68.8643 43.617 68.1288L40.0393 66.34ZM40.0899 66.3361C40.0248 66.3687 39.7831 66.458 39.2479 66.509L39.6271 70.491C40.4044 70.417 41.1939 70.2563 41.8788 69.9139L40.0899 66.3361ZM39.2385 66.5099C38.7093 66.5628 37.9409 66.5938 36.9062 66.5938V70.5938C37.9966 70.5938 38.9157 70.5622 39.6365 70.4901L39.2385 66.5099ZM36.9062 66.5938C36.0015 66.5938 35.3344 66.563 34.8771 66.5122L34.4354 70.4878C35.1031 70.562 35.936 70.5938 36.9062 70.5938V66.5938ZM34.985 66.5272C34.5515 66.455 34.3348 66.3661 34.2546 66.3223L32.3392 69.8339C32.9464 70.1651 33.636 70.3575 34.3275 70.4728L34.985 66.5272ZM34.4438 66.4397C34.3909 66.4026 34.3465 66.357 34.3027 66.2767L30.7911 68.1921C31.1223 68.7993 31.5779 69.3161 32.15 69.7166L34.4438 66.4397ZM34.3357 66.34C34.2119 66.0924 34.061 65.7156 33.8915 65.179L30.0772 66.3835C30.2828 67.0344 30.5068 67.6264 30.758 68.1288L34.3357 66.34ZM33.9082 65.2347L23.2676 27.7815L19.4199 28.8747L30.0605 66.3278L33.9082 65.2347ZM21.3438 26.3281H20.7344V30.3281H21.3438V26.3281ZM18.7344 28.3374L18.9688 78.8218L22.9687 78.8032L22.7344 28.3188L18.7344 28.3374ZM18.9688 78.8125C18.9688 79.4134 18.8998 79.7372 18.8509 79.8742L22.6179 81.2196C22.8814 80.4816 22.9688 79.6491 22.9688 78.8125H18.9688ZM18.8228 79.9587C18.8448 79.8872 18.8871 79.8103 18.9431 79.748C18.9949 79.6905 19.0271 79.6801 18.9962 79.6955L20.7851 83.2732C21.6309 82.8503 22.3355 82.1439 22.6459 81.135L18.8228 79.9587ZM18.9424 79.7234C18.8936 79.7497 18.6215 79.8589 17.9499 79.9126L18.2689 83.8999C19.1597 83.8286 20.0752 83.6565 20.8388 83.2453L18.9424 79.7234ZM17.9499 79.9126C17.246 79.9689 16.2441 80 14.9219 80V84C16.2871 84 17.4103 83.9686 18.2689 83.8999L17.9499 79.9126ZM14.9219 80C13.5996 80 12.5978 79.9689 11.8939 79.9126L11.5749 83.8999C12.4335 83.9686 13.5566 84 14.9219 84V80ZM11.8939 79.9126C11.2327 79.8597 10.9121 79.7512 10.8007 79.6955L9.01182 83.2732C9.77542 83.655 10.6735 83.8278 11.5749 83.8999L11.8939 79.9126ZM10.8544 79.7234C10.8433 79.7174 10.8789 79.735 10.9262 79.7906C10.9757 79.8489 11.0065 79.9119 11.0209 79.9587L7.19782 81.135C7.49134 82.089 8.13261 82.8008 8.95805 83.2453L10.8544 79.7234ZM11.0324 79.9974C10.9679 79.7715 10.901 79.367 10.8731 78.7256L6.87689 78.8994C6.9115 79.6955 7.00088 80.4473 7.18633 81.0963L11.0324 79.9974ZM10.8742 78.7566L8.85859 6.61602L4.86016 6.72773L6.87578 78.8684L10.8742 78.7566ZM78.6719 39.3438L80.6706 39.2712L80.6705 39.2688L78.6719 39.3438ZM80.1719 32.9219L78.4726 31.8671L78.4675 31.8753L80.1719 32.9219ZM84.6719 28.4688L83.6347 26.7587L83.6284 26.7625L83.6221 26.7664L84.6719 28.4688ZM91.2344 25.9375L91.6551 27.8927L91.6669 27.8902L91.6787 27.8875L91.2344 25.9375ZM106.422 25.9375L105.978 27.8875L105.989 27.8902L106.001 27.8927L106.422 25.9375ZM112.938 28.4688L111.888 30.1711L111.894 30.175L111.9 30.1788L112.938 28.4688ZM117.438 32.9219L115.725 33.9552L115.736 33.9726L115.747 33.9899L117.438 32.9219ZM118.984 39.3438L116.986 39.2688L116.986 39.2711L118.984 39.3438ZM117.906 69.0156L119.905 69.0887L119.905 69.0882L117.906 69.0156ZM116.125 75.4844L117.812 76.5581L117.817 76.5513L117.821 76.5444L116.125 75.4844ZM111.859 79.6562L112.875 81.3793L112.886 81.3727L112.897 81.3658L111.859 79.6562ZM105.859 81.9062L106.241 83.8695L106.254 83.8669L106.267 83.8642L105.859 81.9062ZM91.8438 81.9062L91.4358 83.8642L91.4489 83.8669L91.462 83.8695L91.8438 81.9062ZM85.7969 79.6562L84.7589 81.3658L84.7767 81.3766L84.7948 81.3871L85.7969 79.6562ZM79.75 69.0625L77.7513 69.135L77.7513 69.1356L79.75 69.0625ZM92.5938 69.4375L90.5947 69.3768L90.5944 69.3849L92.5938 69.4375ZM92.875 72.4375L90.9438 72.9574L90.953 72.9917L90.9634 73.0257L92.875 72.4375ZM94 74.4062L92.5858 75.8205L92.6072 75.8419L92.6293 75.8626L94 74.4062ZM95.9688 75.4844L95.4295 77.4103L95.4391 77.413L95.4488 77.4156L95.9688 75.4844ZM103.609 74.4062L102.264 72.9264L102.253 72.9367L102.241 72.9472L103.609 74.4062ZM105.062 69.3906L107.062 69.3387L107.062 69.3299L105.062 69.3906ZM104.125 38.5469L102.126 38.5945L102.126 38.6076L104.125 38.5469ZM103.656 35.3594L101.745 35.9475L101.755 35.9808L101.766 36.0136L103.656 35.3594ZM100.938 32.6406L100.452 34.5809L100.499 34.5925L100.545 34.6018L100.938 32.6406ZM96.7188 32.6406L97.111 34.6018L97.1577 34.5925L97.2038 34.5809L96.7188 32.6406ZM93.9531 35.3594L92.0632 34.7052L92.0518 34.738L92.0416 34.7712L93.9531 35.3594ZM93.5312 38.5469L95.5304 38.6075L95.5307 38.5945L93.5312 38.5469ZM80.6705 39.2688C80.5886 37.0846 81.0269 35.3515 81.8762 33.9684L78.4675 31.8753C77.1293 34.0547 76.5677 36.6029 76.6733 39.4187L80.6705 39.2688ZM81.8712 33.9766C82.8273 32.4361 84.1015 31.1702 85.7216 30.1711L83.6221 26.7664C81.4922 28.0798 79.7664 29.7826 78.4726 31.8671L81.8712 33.9766ZM85.7091 30.1788C87.4015 29.1522 89.3756 28.3833 91.6551 27.8927L90.8136 23.9823C88.1557 24.5542 85.7547 25.4728 83.6347 26.7587L85.7091 30.1788ZM91.6787 27.8875C93.9981 27.359 96.3802 27.0938 98.8281 27.0938V23.0938C96.0885 23.0938 93.4081 23.391 90.7901 23.9875L91.6787 27.8875ZM98.8281 27.0938C101.276 27.0938 103.658 27.359 105.978 27.8875L106.866 23.9875C104.248 23.391 101.568 23.0938 98.8281 23.0938V27.0938ZM106.001 27.8927C108.279 28.383 110.233 29.1504 111.888 30.1711L113.987 26.7664C111.892 25.4746 109.502 24.5545 106.843 23.9823L106.001 27.8927ZM111.9 30.1788C113.545 31.1765 114.807 32.4343 115.725 33.9552L119.15 31.8885C117.88 29.7844 116.142 28.0735 113.975 26.7587L111.9 30.1788ZM115.747 33.9899C116.618 35.3699 117.067 37.0949 116.986 39.2688L120.983 39.4187C121.089 36.5926 120.507 34.0363 119.128 31.8539L115.747 33.9899ZM116.986 39.2711L115.908 68.943L119.905 69.0882L120.983 39.4164L116.986 39.2711ZM115.908 68.9425C115.824 71.2392 115.297 73.0351 114.429 74.4244L117.821 76.5444C119.14 74.4336 119.801 71.9171 119.905 69.0887L115.908 68.9425ZM114.438 74.4106C113.51 75.8691 112.31 77.0427 110.821 77.9467L112.897 81.3658C114.908 80.1448 116.553 78.5372 117.812 76.5581L114.438 74.4106ZM110.844 77.9332C109.305 78.8399 107.515 79.5183 105.451 79.9483L106.267 83.8642C108.703 83.3567 110.913 82.5351 112.875 81.3793L110.844 77.9332ZM105.478 79.943C103.359 80.3549 101.159 80.5625 98.875 80.5625V84.5625C101.403 84.5625 103.859 84.3326 106.241 83.8695L105.478 79.943ZM98.875 80.5625C96.5576 80.5625 94.342 80.3546 92.2255 79.943L91.462 83.8695C93.8455 84.3329 96.3174 84.5625 98.875 84.5625V80.5625ZM92.2517 79.9483C90.1864 79.518 88.3754 78.8381 86.799 77.9254L84.7948 81.3871C86.7809 82.5369 89.0011 83.357 91.4358 83.8642L92.2517 79.9483ZM86.8348 77.9467C85.3459 77.0427 84.1467 75.8691 83.2186 74.4106L79.8439 76.5581C81.1033 78.5372 82.7479 80.1448 84.7589 81.3658L86.8348 77.9467ZM83.2186 74.4106C82.3592 73.0601 81.8327 71.2873 81.7487 68.9894L77.7513 69.1356C77.8548 71.9627 78.5158 74.4711 79.8439 76.5581L83.2186 74.4106ZM81.7487 68.99L80.6706 39.2712L76.6732 39.4163L77.7513 69.135L81.7487 68.99ZM90.5944 69.3849C90.56 70.6928 90.6589 71.8992 90.9438 72.9574L94.8062 71.9176C94.6536 71.3508 94.565 70.5572 94.5931 69.4901L90.5944 69.3849ZM90.9634 73.0257C91.2901 74.0873 91.8129 75.0475 92.5858 75.8205L95.4142 72.992C95.1871 72.765 94.9599 72.4127 94.7866 71.8493L90.9634 73.0257ZM92.6293 75.8626C93.4211 76.6079 94.3726 77.1144 95.4295 77.4103L96.508 73.5584C96.0024 73.4169 95.6414 73.2046 95.3707 72.9499L92.6293 75.8626ZM95.4488 77.4156C96.4727 77.6913 97.6082 77.8125 98.8281 77.8125V73.8125C97.8606 73.8125 97.0898 73.715 96.4887 73.5531L95.4488 77.4156ZM98.8281 77.8125C101.235 77.8125 103.439 77.3073 104.977 75.8653L102.241 72.9472C101.78 73.3802 100.796 73.8125 98.8281 73.8125V77.8125ZM104.955 75.8861C106.644 74.35 107.129 71.9238 107.062 69.3387L103.063 69.4426C103.121 71.67 102.637 72.5875 102.264 72.9264L104.955 75.8861ZM107.062 69.3299L106.124 38.4861L102.126 38.6076L103.063 69.4514L107.062 69.3299ZM106.124 38.4993C106.091 37.077 105.921 35.7873 105.546 34.7052L101.766 36.0136C101.954 36.5565 102.097 37.3918 102.126 38.5945L106.124 38.4993ZM105.568 34.7712C105.247 33.73 104.737 32.7637 103.943 32.0223L101.213 34.9465C101.357 35.0801 101.565 35.3638 101.745 35.9475L105.568 34.7712ZM103.943 32.0223C103.204 31.333 102.321 30.8778 101.33 30.6795L100.545 34.6018C100.804 34.6535 101.015 34.7608 101.213 34.9465L103.943 32.0223ZM101.423 30.7003C100.61 30.4971 99.7396 30.4062 98.8281 30.4062V34.4062C99.4792 34.4062 100.015 34.4717 100.452 34.5809L101.423 30.7003ZM98.8281 30.4062C97.9167 30.4062 97.0467 30.4971 96.2337 30.7003L97.2038 34.5809C97.6408 34.4717 98.1771 34.4062 98.8281 34.4062V30.4062ZM96.3265 30.6795C95.335 30.8778 94.452 31.333 93.7135 32.0223L96.4428 34.9465C96.6417 34.7608 96.8525 34.6535 97.111 34.6018L96.3265 30.6795ZM93.7135 32.0223C92.9391 32.745 92.4162 33.6852 92.0632 34.7052L95.8431 36.0136C96.0525 35.4086 96.2796 35.0987 96.4428 34.9465L93.7135 32.0223ZM92.0416 34.7712C91.7167 35.8269 91.5653 37.0915 91.5318 38.4993L95.5307 38.5945C95.5597 37.3773 95.6895 36.5168 95.8647 35.9475L92.0416 34.7712ZM91.5322 38.4862L90.5947 69.3768L94.5928 69.4982L95.5303 38.6075L91.5322 38.4862ZM125.312 29.0781L127.251 28.5863L127.244 28.5574L127.236 28.5287L125.312 29.0781ZM125.219 27.4375L123.335 26.7648L123.313 26.8258L123.296 26.8881L125.219 27.4375ZM126.297 26.4062L127.109 28.2339L127.151 28.2154L127.191 28.1951L126.297 26.4062ZM128.734 25.8438L128.91 27.836L128.936 27.8337L128.961 27.8308L128.734 25.8438ZM136.891 25.8438L136.635 27.8273L136.666 27.8314L136.698 27.8344L136.891 25.8438ZM140.078 27.4375L138.181 28.07L138.207 28.1489L138.24 28.2253L140.078 27.4375ZM140.5 29.0781L142.482 28.8128L142.481 28.804L142.48 28.7953L140.5 29.0781ZM146.078 70.75L144.096 71.0154L144.328 72.75H146.078V70.75ZM147.203 70.75V72.75H148.953L149.185 71.0154L147.203 70.75ZM152.781 29.0781L150.801 28.7953L150.8 28.804L150.799 28.8128L152.781 29.0781ZM153.156 27.4375L151.299 26.6947L151.285 26.7295L151.273 26.7648L153.156 27.4375ZM156.391 25.8438L156.583 27.8344L156.615 27.8314L156.647 27.8273L156.391 25.8438ZM164.5 25.8438L164.266 27.8301L164.298 27.8337L164.329 27.8364L164.5 25.8438ZM166.984 26.4062L166.09 28.1951L166.131 28.2154L166.172 28.2339L166.984 26.4062ZM168.016 27.4375L166.093 27.9869L166.11 28.0492L166.132 28.1102L168.016 27.4375ZM167.969 29.0781L166.046 28.5287L166.038 28.5574L166.03 28.5863L167.969 29.0781ZM155.219 79.3281L157.146 79.8634L157.152 79.8418L157.157 79.82L155.219 79.3281ZM153.766 81.5312L154.604 83.3472L154.632 83.3341L154.66 83.3201L153.766 81.5312ZM152.031 81.9062L151.865 79.9131L151.858 79.9138L152.031 81.9062ZM141.203 81.9062L141.03 83.8987L141.037 83.8993L141.203 81.9062ZM139.469 81.5312L138.521 83.2922L138.599 83.3344L138.681 83.3695L139.469 81.5312ZM138.062 79.3281L136.124 79.82L136.129 79.8418L136.135 79.8634L138.062 79.3281ZM127.236 28.5287C127.173 28.3094 127.151 28.1569 127.145 28.0617C127.14 27.9678 127.152 27.9514 127.142 27.9869L123.296 26.8881C123.029 27.8216 123.147 28.7795 123.389 29.6276L127.236 28.5287ZM127.102 28.1102C127.087 28.153 127.066 28.1934 127.043 28.2286C127.02 28.2634 126.999 28.2858 126.988 28.2968C126.967 28.3171 126.99 28.2867 127.109 28.2339L125.485 24.5786C124.592 24.9755 123.73 25.6601 123.335 26.7648L127.102 28.1102ZM127.191 28.1951C127.426 28.078 127.948 27.9209 128.91 27.836L128.559 23.8515C127.396 23.9541 126.293 24.172 125.402 24.6174L127.191 28.1951ZM128.961 27.8308C129.951 27.7177 131.259 27.6562 132.906 27.6562V23.6562C131.178 23.6562 129.705 23.7198 128.507 23.8567L128.961 27.8308ZM132.906 27.6562C134.56 27.6562 135.79 27.7183 136.635 27.8273L137.147 23.8602C136.054 23.7192 134.627 23.6562 132.906 23.6562V27.6562ZM136.698 27.8344C137.576 27.9194 138.024 28.0606 138.199 28.1482L139.988 24.5705C139.163 24.1581 138.143 23.9556 137.083 23.8531L136.698 27.8344ZM138.199 28.1482C138.262 28.1796 138.262 28.1914 138.238 28.1649C138.226 28.1525 138.214 28.1358 138.202 28.1162C138.191 28.0967 138.184 28.0802 138.181 28.07L141.975 26.805C141.629 25.7653 140.895 25.0238 139.988 24.5705L138.199 28.1482ZM138.24 28.2253C138.337 28.4522 138.442 28.816 138.52 29.361L142.48 28.7953C142.37 28.0277 142.194 27.2978 141.916 26.6497L138.24 28.2253ZM138.518 29.3435L144.096 71.0154L148.06 70.4846L142.482 28.8128L138.518 29.3435ZM146.078 72.75H147.203V68.75H146.078V72.75ZM149.185 71.0154L154.764 29.3435L150.799 28.8128L145.221 70.4846L149.185 71.0154ZM154.761 29.361C154.843 28.7863 154.943 28.3804 155.04 28.1102L151.273 26.7648C151.057 27.3696 150.907 28.0574 150.801 28.7953L154.761 29.361ZM155.013 28.1803C155.014 28.1776 155.013 28.1805 155.01 28.1864C155.006 28.1923 155.002 28.1968 155 28.1989C154.995 28.2046 155.012 28.1831 155.082 28.1482L153.293 24.5705C152.406 25.0143 151.689 25.7212 151.299 26.6947L155.013 28.1803ZM155.082 28.1482C155.257 28.0606 155.705 27.9194 156.583 27.8344L156.198 23.8531C155.139 23.9556 154.118 24.1581 153.293 24.5705L155.082 28.1482ZM156.647 27.8273C157.491 27.7183 158.721 27.6562 160.375 27.6562V23.6562C158.654 23.6562 157.228 23.7192 156.135 23.8602L156.647 27.8273ZM160.375 27.6562C162.023 27.6562 163.312 27.7178 164.266 27.8301L164.734 23.8574C163.563 23.7197 162.102 23.6562 160.375 23.6562V27.6562ZM164.329 27.8364C165.33 27.9223 165.863 28.0814 166.09 28.1951L167.879 24.6174C166.981 24.1686 165.857 23.9527 164.671 23.8511L164.329 27.8364ZM166.172 28.2339C166.286 28.2846 166.291 28.3068 166.25 28.2658C166.228 28.2438 166.197 28.2076 166.166 28.1559C166.135 28.1037 166.109 28.046 166.093 27.9869L169.939 26.8881C169.599 25.698 168.698 24.9794 167.797 24.5786L166.172 28.2339ZM166.132 28.1102C166.113 28.0574 166.124 28.0503 166.122 28.1187C166.12 28.1904 166.104 28.3232 166.046 28.5287L169.892 29.6276C170.143 28.7493 170.248 27.7409 169.899 26.7648L166.132 28.1102ZM166.03 28.5863L153.28 78.8363L157.157 79.82L169.907 29.57L166.03 28.5863ZM153.292 78.7928C153.158 79.2727 153.036 79.5679 152.947 79.7298L156.459 81.6452C156.746 81.1196 156.967 80.5086 157.146 79.8634L153.292 78.7928ZM152.947 79.7298C152.958 79.7108 152.968 79.6954 152.977 79.6842C152.986 79.6731 152.991 79.6685 152.99 79.6697C152.987 79.6723 152.955 79.7006 152.871 79.7424L154.66 83.3201C155.371 82.9645 156.032 82.4279 156.459 81.6452L152.947 79.7298ZM152.928 79.7153C152.829 79.7606 152.519 79.8587 151.865 79.9132L152.197 83.8993C153.044 83.8288 153.889 83.6769 154.604 83.3472L152.928 79.7153ZM151.858 79.9138C151.223 79.969 150.319 80 149.125 80V84C150.368 84 151.402 83.9685 152.205 83.8987L151.858 79.9138ZM149.125 80H144.156V84H149.125V80ZM144.156 80C142.964 80 142.041 79.9691 141.369 79.9132L141.037 83.8993C141.865 83.9684 142.911 84 144.156 84V80ZM141.376 79.9138C140.772 79.8612 140.425 79.7653 140.257 79.693L138.681 83.3695C139.387 83.6722 140.197 83.8263 141.03 83.8987L141.376 79.9138ZM140.417 79.7703C140.35 79.7341 140.322 79.7092 140.317 79.7043C140.313 79.7011 140.323 79.71 140.334 79.7298L136.822 81.6452C137.227 82.3863 137.835 82.923 138.521 83.2922L140.417 79.7703ZM140.334 79.7298C140.246 79.5679 140.123 79.2727 139.99 78.7928L136.135 79.8634C136.315 80.5086 136.536 81.1196 136.822 81.6452L140.334 79.7298ZM140.001 78.8363L127.251 28.5863L123.374 29.57L136.124 79.82L140.001 78.8363ZM174.297 39.3438L176.296 39.2712L176.295 39.2688L174.297 39.3438ZM175.844 32.9219L174.158 31.8462L174.153 31.8539L175.844 32.9219ZM180.438 28.4688L179.413 26.7513L179.406 26.755L179.4 26.7587L180.438 28.4688ZM187.047 25.9375L187.468 27.8927L187.477 27.8908L187.486 27.8887L187.047 25.9375ZM201.953 25.9375L201.492 27.8837L201.504 27.8865L201.517 27.8893L201.953 25.9375ZM212.641 32.9219L210.915 33.9333L210.926 33.951L210.936 33.9684L212.641 32.9219ZM214.141 39.3438L216.139 39.425L216.139 39.4187L214.141 39.3438ZM213.438 56.6406L215.435 56.7457L215.435 56.7338L215.436 56.7219L213.438 56.6406ZM213.109 58.0469L211.354 57.0892L211.319 57.153L211.289 57.2193L213.109 58.0469ZM210.156 59.2188L210.014 57.2238L210.008 57.2242L210.156 59.2188ZM188.5 59.3125V57.3125H186.555L186.501 59.257L188.5 59.3125ZM188.219 69.4375L186.22 69.382L186.219 69.3849L188.219 69.4375ZM188.547 72.4375L186.635 73.0257L186.646 73.0589L186.657 73.0917L188.547 72.4375ZM200.453 66.9531L202.299 67.7224L202.31 67.6969L202.32 67.6711L200.453 66.9531ZM201.344 66.0156L202.238 67.8045L202.262 67.7927L202.285 67.7803L201.344 66.0156ZM211.938 66.0156L210.945 67.7521L211.017 67.7931L211.092 67.828L211.938 66.0156ZM212.828 66.9062L210.931 67.5387L210.954 67.608L210.982 67.6755L212.828 66.9062ZM207.25 80.1719L206.33 78.3959L206.324 78.3993L206.317 78.4027L207.25 80.1719ZM201.297 82.0469L200.995 80.0698L200.991 80.0705L201.297 82.0469ZM187.516 81.9062L187.108 83.8642L187.121 83.8669L187.134 83.8695L187.516 81.9062ZM181.469 79.6562L180.431 81.3658L180.449 81.3766L180.467 81.3871L181.469 79.6562ZM177.156 75.4844L175.469 76.5581L175.476 76.569L175.483 76.5797L177.156 75.4844ZM175.375 69.0625L173.376 69.135L173.376 69.1356L175.375 69.0625ZM200.219 52.2812V54.2812H202.288L202.218 52.213L200.219 52.2812ZM199.75 38.5469L197.751 38.5945L197.751 38.6048L197.751 38.6151L199.75 38.5469ZM199.281 35.3594L197.37 35.9475L197.38 35.9808L197.391 36.0136L199.281 35.3594ZM198.203 33.4844L196.789 34.8986L196.813 34.923L196.838 34.9465L198.203 33.4844ZM196.609 32.6406L196.1 34.5748L196.158 34.59L196.217 34.6018L196.609 32.6406ZM192.531 32.6406L192.905 34.6053L192.95 34.5968L192.994 34.5862L192.531 32.6406ZM190.797 33.4844L189.48 31.9792L189.456 32.0004L189.432 32.0223L190.797 33.4844ZM189.625 35.3594L187.758 34.6414L187.746 34.6731L187.735 34.7052L189.625 35.3594ZM189.156 38.5469L191.155 38.6083L191.156 38.5945L189.156 38.5469ZM188.734 52.2812L186.735 52.2198L186.672 54.2812H188.734V52.2812ZM176.295 39.2688C176.214 37.0949 176.663 35.3699 177.535 33.9899L174.153 31.8539C172.774 34.0363 172.192 36.5926 172.298 39.4187L176.295 39.2688ZM177.53 33.9975C178.515 32.4531 179.821 31.1821 181.475 30.1788L179.4 26.7587C177.242 28.0679 175.485 29.7657 174.158 31.8462L177.53 33.9975ZM181.462 30.1862C183.192 29.154 185.187 28.3836 187.468 27.8927L186.626 23.9823C183.97 24.5539 181.558 25.471 179.413 26.7513L181.462 30.1862ZM187.486 27.8887C189.84 27.359 192.24 27.0938 194.688 27.0938V23.0938C191.948 23.0938 189.254 23.391 186.608 23.9863L187.486 27.8887ZM194.688 27.0938C197.003 27.0938 199.27 27.3573 201.492 27.8837L202.414 23.9913C199.886 23.3927 197.31 23.0938 194.688 23.0938V27.0938ZM201.517 27.8893C203.696 28.3767 205.589 29.141 207.219 30.1631L209.344 26.7744C207.286 25.484 204.96 24.5608 202.39 23.9857L201.517 27.8893ZM207.219 30.1631C208.8 31.1547 210.021 32.4086 210.915 33.9333L214.366 31.9104C213.135 29.8101 211.45 28.0953 209.344 26.7744L207.219 30.1631ZM210.936 33.9684C211.786 35.3515 212.224 37.0846 212.142 39.2688L216.139 39.4187C216.245 36.6029 215.683 34.0547 214.345 31.8753L210.936 33.9684ZM212.142 39.2625L211.439 56.5594L215.436 56.7219L216.139 39.425L212.142 39.2625ZM211.44 56.5355C211.429 56.7409 211.407 56.8864 211.384 56.983C211.362 57.0803 211.344 57.1069 211.354 57.0892L214.865 59.0046C215.251 58.2976 215.395 57.4975 215.435 56.7457L211.44 56.5355ZM211.289 57.2193C211.343 57.1007 211.414 57.0211 211.463 56.98C211.504 56.9446 211.507 56.9556 211.429 56.9868L212.915 60.7007C213.697 60.3879 214.497 59.8278 214.93 58.8745L211.289 57.2193ZM211.429 56.9868C211.243 57.0612 210.811 57.1669 210.014 57.2238L210.299 61.2137C211.252 61.1456 212.163 61.0013 212.915 60.7007L211.429 56.9868ZM210.008 57.2242C209.235 57.2815 208.166 57.3125 206.781 57.3125V61.3125C208.209 61.3125 209.39 61.281 210.304 61.2133L210.008 57.2242ZM206.781 57.3125H188.5V61.3125H206.781V57.3125ZM186.501 59.257L186.22 69.382L190.218 69.493L190.499 59.368L186.501 59.257ZM186.219 69.3849C186.185 70.7099 186.302 71.9414 186.635 73.0257L190.458 71.8493C190.292 71.3086 190.19 70.5401 190.218 69.4901L186.219 69.3849ZM186.657 73.0917C187.025 74.1552 187.59 75.1048 188.395 75.8626L191.136 72.9499C190.879 72.7077 190.631 72.3448 190.437 71.7833L186.657 73.0917ZM188.395 75.8626C189.187 76.6079 190.138 77.1144 191.195 77.4103L192.274 73.5584C191.768 73.4169 191.407 73.2046 191.136 72.9499L188.395 75.8626ZM191.195 77.4103C192.187 77.688 193.264 77.8125 194.406 77.8125V73.8125C193.548 73.8125 192.844 73.7182 192.274 73.5584L191.195 77.4103ZM194.406 77.8125C196.64 77.8125 198.709 77.3324 200.177 75.9621L197.448 73.0379C197.041 73.4176 196.173 73.8125 194.406 73.8125V77.8125ZM200.177 75.9621C201.733 74.5104 202.219 72.2521 202.219 69.8594H198.219C198.219 71.9041 197.767 72.7396 197.448 73.0379L200.177 75.9621ZM202.219 69.8594V68.4062H198.219V69.8594H202.219ZM202.219 68.4062C202.219 67.9651 202.28 67.7684 202.299 67.7224L198.607 66.1839C198.314 66.8879 198.219 67.6599 198.219 68.4062H202.219ZM202.32 67.6711C202.313 67.6882 202.303 67.7095 202.289 67.7326C202.274 67.7557 202.258 67.7757 202.243 67.7916C202.211 67.8247 202.199 67.8239 202.238 67.8045L200.449 64.2268C199.625 64.6389 198.944 65.3046 198.586 66.2352L202.32 67.6711ZM202.285 67.7803C202.436 67.6996 202.809 67.5683 203.533 67.4878L203.092 63.5122C202.129 63.6192 201.189 63.8316 200.403 64.2509L202.285 67.7803ZM203.533 67.4878C204.272 67.4057 205.314 67.3594 206.688 67.3594V63.3594C205.249 63.3594 204.041 63.4068 203.092 63.5122L203.533 67.4878ZM206.688 67.3594C208.028 67.3594 209.055 67.4056 209.795 67.4878L210.236 63.5122C209.289 63.4069 208.097 63.3594 206.688 63.3594V67.3594ZM209.795 67.4878C210.528 67.5692 210.854 67.6999 210.945 67.7521L212.93 64.2791C212.146 63.8314 211.191 63.6183 210.236 63.5122L209.795 67.4878ZM211.092 67.828C211.162 67.8608 211.147 67.8662 211.098 67.8166C211.04 67.7594 210.973 67.664 210.931 67.5387L214.725 66.2738C214.378 65.2303 213.589 64.5791 212.783 64.2033L211.092 67.828ZM210.982 67.6755C211.001 67.7215 211.062 67.9182 211.062 68.3594H215.062C215.062 67.613 214.968 66.841 214.674 66.137L210.982 67.6755ZM211.062 68.3594V70.4219H215.062V68.3594H211.062ZM211.062 70.4219C211.062 72.6111 210.592 74.2013 209.815 75.3441L213.123 77.5934C214.471 75.6112 215.062 73.1701 215.062 70.4219H211.062ZM209.815 75.3441C208.947 76.6199 207.798 77.6356 206.33 78.3959L208.17 81.9479C210.202 80.8956 211.865 79.4426 213.123 77.5934L209.815 75.3441ZM206.317 78.4027C204.826 79.1889 203.061 79.7541 200.995 80.0698L201.599 84.0239C204.032 83.6522 206.236 82.9673 208.183 81.941L206.317 78.4027ZM200.991 80.0705C198.878 80.3978 196.699 80.5625 194.453 80.5625V84.5625C196.895 84.5625 199.279 84.3834 201.603 84.0233L200.991 80.0705ZM194.453 80.5625C192.202 80.5625 190.017 80.3552 187.897 79.943L187.134 83.8695C189.514 84.3323 191.955 84.5625 194.453 84.5625V80.5625ZM187.924 79.9483C185.858 79.518 184.047 78.8381 182.471 77.9254L180.467 81.3871C182.453 82.5369 184.673 83.357 187.108 83.8642L187.924 79.9483ZM182.507 77.9467C181.013 77.0395 179.792 75.8591 178.83 74.3891L175.483 76.5797C176.771 78.5471 178.425 80.148 180.431 81.3658L182.507 77.9467ZM178.844 74.4106C177.984 73.0601 177.458 71.2873 177.374 68.9894L173.376 69.1356C173.48 71.9627 174.141 74.4711 175.469 76.5581L178.844 74.4106ZM177.374 68.99L176.296 39.2712L172.298 39.4163L173.376 69.135L177.374 68.99ZM202.218 52.213L201.749 38.4787L197.751 38.6151L198.22 52.3495L202.218 52.213ZM201.749 38.4993C201.716 37.077 201.546 35.7873 201.171 34.7052L197.391 36.0136C197.579 36.5565 197.722 37.3918 197.751 38.5945L201.749 38.4993ZM201.193 34.7712C200.872 33.73 200.362 32.7637 199.568 32.0223L196.838 34.9465C196.982 35.0801 197.19 35.3638 197.37 35.9475L201.193 34.7712ZM199.617 32.0702C198.892 31.3447 198.001 30.8794 197.002 30.6795L196.217 34.6018C196.467 34.6518 196.639 34.7491 196.789 34.8986L199.617 32.0702ZM197.118 30.7065C196.34 30.5016 195.527 30.4062 194.688 30.4062V34.4062C195.223 34.4062 195.691 34.4671 196.1 34.5748L197.118 30.7065ZM194.688 30.4062C193.774 30.4062 192.898 30.4975 192.068 30.695L192.994 34.5862C193.477 34.4713 194.038 34.4062 194.688 34.4062V30.4062ZM192.157 30.6759C191.153 30.8671 190.249 31.306 189.48 31.9792L192.114 34.9895C192.345 34.7877 192.597 34.6641 192.905 34.6053L192.157 30.6759ZM189.432 32.0223C188.677 32.7268 188.143 33.642 187.758 34.6414L191.492 36.0773C191.732 35.4518 191.979 35.1169 192.162 34.9465L189.432 32.0223ZM187.735 34.7052C187.36 35.7873 187.191 37.077 187.157 38.4993L191.156 38.5945C191.184 37.3918 191.327 36.5565 191.515 36.0136L187.735 34.7052ZM187.157 38.4855L186.735 52.2198L190.733 52.3427L191.155 38.6083L187.157 38.4855ZM188.734 54.2812H200.219V50.2812H188.734V54.2812ZM224.734 6.67188L226.734 6.61602L226.733 6.60551L226.733 6.59501L224.734 6.67188ZM226.141 3.53125L225.32 1.70741L225.302 1.71542L225.284 1.72377L226.141 3.53125ZM228.766 2.96875L228.932 4.96184L228.959 4.95956L228.986 4.95652L228.766 2.96875ZM237.719 2.96875L237.498 4.95652L237.525 4.95956L237.553 4.96184L237.719 2.96875ZM240.297 3.53125L239.441 5.33873L239.458 5.34708L239.476 5.35509L240.297 3.53125ZM241.516 4.70312L239.643 5.40537L239.662 5.45561L239.683 5.50476L241.516 4.70312ZM241.797 6.67188L239.798 6.59501L239.798 6.60486L239.798 6.61472L241.797 6.67188ZM239.734 78.8125L237.735 78.7553L237.734 78.7839V78.8125H239.734ZM239.5 80.5469L237.617 79.8742L237.602 79.9161L237.588 79.9587L239.5 80.5469ZM238.609 81.4844L237.764 79.672L237.739 79.6834L237.715 79.6955L238.609 81.4844ZM229.797 81.9062L229.649 83.9008L229.654 83.9012L229.797 81.9062ZM226.984 80.5469L225.061 81.0963L225.086 81.1818L225.118 81.2648L226.984 80.5469ZM226.75 78.8125L224.751 78.8684L224.751 78.8839L224.752 78.8994L226.75 78.8125ZM226.733 6.59501C226.707 5.92303 226.783 5.56148 226.841 5.40537L223.096 4.00088C222.78 4.84477 222.699 5.79572 222.736 6.74874L226.733 6.59501ZM226.841 5.40537C226.838 5.41516 226.832 5.42674 226.825 5.43757C226.818 5.44824 226.814 5.45211 226.817 5.44937C226.822 5.44357 226.869 5.39931 226.997 5.33873L225.284 1.72377C224.335 2.1733 223.506 2.90766 223.096 4.00088L226.841 5.40537ZM226.961 5.35509C227.289 5.20783 227.906 5.0473 228.932 4.96184L228.6 0.975658C227.375 1.0777 226.243 1.29217 225.32 1.70741L226.961 5.35509ZM228.986 4.95652C230.006 4.8432 231.423 4.78125 233.266 4.78125V0.78125C231.358 0.78125 229.775 0.844296 228.545 0.980982L228.986 4.95652ZM233.266 4.78125C235.075 4.78125 236.477 4.84311 237.498 4.95652L237.94 0.980982C236.71 0.844395 235.144 0.78125 233.266 0.78125V4.78125ZM237.553 4.96184C238.585 5.04786 239.166 5.20853 239.441 5.33873L241.153 1.72377C240.24 1.29147 239.103 1.07714 237.885 0.975658L237.553 4.96184ZM239.476 5.35509C239.623 5.42133 239.678 5.47049 239.684 5.47682C239.687 5.47941 239.68 5.47339 239.67 5.45803C239.659 5.44236 239.65 5.42394 239.643 5.40537L243.388 4.00088C242.965 2.8708 242.084 2.14241 241.118 1.70741L239.476 5.35509ZM239.683 5.50476C239.737 5.62636 239.823 5.9488 239.798 6.59501L243.795 6.74874C243.833 5.76995 243.732 4.77989 243.348 3.90149L239.683 5.50476ZM239.798 6.61472L237.735 78.7553L241.734 78.8697L243.796 6.72903L239.798 6.61472ZM237.734 78.8125C237.734 79.4134 237.665 79.7372 237.617 79.8742L241.383 81.2196C241.647 80.4816 241.734 79.6491 241.734 78.8125H237.734ZM237.588 79.9587C237.618 79.8623 237.672 79.7729 237.734 79.7084C237.788 79.6508 237.815 79.6478 237.764 79.672L239.455 83.2967C240.316 82.8951 241.085 82.1968 241.412 81.135L237.588 79.9587ZM237.715 79.6955C237.622 79.7422 237.285 79.8565 236.54 79.9117L236.835 83.9008C237.777 83.831 238.722 83.664 239.504 83.2732L237.715 79.6955ZM236.54 79.9117C235.767 79.9689 234.683 80 233.266 80V84C234.724 84 235.92 83.9686 236.835 83.9008L236.54 79.9117ZM233.266 80C231.85 80 230.747 79.969 229.939 79.9113L229.654 83.9012C230.597 83.9685 231.806 84 233.266 84V80ZM229.945 79.9117C229.199 79.8565 228.863 79.7422 228.769 79.6955L226.981 83.2732C227.762 83.664 228.707 83.831 229.649 83.9008L229.945 79.9117ZM228.769 79.6955C228.731 79.6761 228.743 79.6753 228.774 79.7084C228.789 79.7243 228.805 79.7443 228.82 79.7674C228.834 79.7905 228.844 79.8118 228.851 79.8289L225.118 81.2648C225.476 82.1954 226.156 82.8611 226.981 83.2732L228.769 79.6955ZM228.907 79.9974C228.843 79.7715 228.776 79.367 228.748 78.7256L224.752 78.8994C224.786 79.6955 224.876 80.4473 225.061 81.0963L228.907 79.9974ZM228.749 78.7566L226.734 6.61602L222.735 6.72773L224.751 78.8684L228.749 78.7566ZM253.328 29.0781H251.328V29.108L251.329 29.1378L253.328 29.0781ZM253.516 27.4375L251.618 26.805L251.605 26.8463L251.593 26.8881L253.516 27.4375ZM254.453 26.3594L253.559 24.5705L253.535 24.5823L253.512 24.5947L254.453 26.3594ZM256.609 25.8438L256.808 27.8338L256.837 27.831L256.865 27.8273L256.609 25.8438ZM264.25 25.8438L263.986 27.8262L264.021 27.831L264.057 27.8344L264.25 25.8438ZM266.406 26.3594L265.465 28.1241L265.488 28.1365L265.512 28.1482L266.406 26.3594ZM267.344 27.4375L265.411 27.9528L265.433 28.0325L265.46 28.1102L267.344 27.4375ZM267.578 29.0781L269.577 29.1437L269.578 29.1109V29.0781H267.578ZM267.484 31.9375L265.485 31.872L265.302 37.4689L268.99 33.2545L267.484 31.9375ZM270.156 29.2188L271.491 30.7079L271.494 30.7053L270.156 29.2188ZM273.109 27.0625L274.107 28.7957L274.115 28.7911L274.123 28.7864L273.109 27.0625ZM285.672 26.125L284.893 27.967L284.905 27.9722L285.672 26.125ZM289.891 29.125L288.39 30.4471L288.399 30.457L288.408 30.4668L289.891 29.125ZM292.609 33.9062L290.712 34.5387L290.717 34.5529L290.722 34.567L292.609 33.9062ZM293.5 40.2812L295.499 40.3388L295.499 40.3339L293.5 40.2812ZM292.375 79.3281L290.376 79.2705L290.375 79.2993V79.3281H292.375ZM289.375 81.9062L289.222 79.9121L289.216 79.9126L289.375 81.9062ZM283.047 81.9062L282.887 83.8999L282.893 83.9004L283.047 81.9062ZM281.219 81.5312L280.381 83.3472L280.406 83.3587L280.431 83.3695L281.219 81.5312ZM280.141 79.3281H282.141V79.2995L282.14 79.2709L280.141 79.3281ZM279.062 41.6406L277.063 41.6919L277.063 41.6978L279.062 41.6406ZM275.781 35.6875L275.207 37.6032L275.219 37.6069L275.232 37.6105L275.781 35.6875ZM268.234 38.7344L266.615 37.5614L266.253 38.0606L266.235 38.6767L268.234 38.7344ZM267.062 79.3281L265.063 79.2704L265.062 79.2993V79.3281H267.062ZM264.062 81.9062L263.909 79.9121L263.903 79.9126L264.062 81.9062ZM257.734 81.9062L257.575 83.8999L257.581 83.9004L257.734 81.9062ZM255.906 81.5312L255.068 83.3472L255.093 83.3587L255.118 83.3695L255.906 81.5312ZM254.828 79.3281H256.828V79.2983L256.827 79.2684L254.828 79.3281ZM255.328 29.0781C255.328 28.5333 255.382 28.1861 255.439 27.9869L251.593 26.8881C251.399 27.5639 251.328 28.3105 251.328 29.0781H255.328ZM255.413 28.07C255.413 28.0699 255.412 28.0721 255.41 28.0761C255.409 28.0801 255.406 28.0854 255.403 28.0916C255.395 28.1048 255.386 28.1177 255.376 28.1288C255.367 28.1397 255.361 28.1447 255.361 28.1444C255.362 28.1439 255.371 28.1363 255.394 28.1241L253.512 24.5947C252.628 25.0658 251.949 25.8117 251.618 26.805L255.413 28.07ZM255.348 28.1482C255.531 28.0567 255.97 27.9176 256.808 27.8338L256.41 23.8537C255.373 23.9574 254.376 24.1621 253.559 24.5705L255.348 28.1482ZM256.865 27.8273C257.713 27.7179 258.899 27.6562 260.453 27.6562V23.6562C258.82 23.6562 257.443 23.7196 256.353 23.8602L256.865 27.8273ZM260.453 27.6562C262.009 27.6562 263.175 27.7181 263.986 27.8262L264.514 23.8613C263.45 23.7194 262.084 23.6562 260.453 23.6562V27.6562ZM264.057 27.8344C264.946 27.9204 265.348 28.0618 265.465 28.1241L267.347 24.5947C266.527 24.157 265.492 23.9546 264.443 23.8531L264.057 27.8344ZM265.512 28.1482C265.568 28.1762 265.549 28.1778 265.506 28.1288C265.486 28.1049 265.465 28.075 265.446 28.0407C265.428 28.0065 265.417 27.9758 265.411 27.9528L269.276 26.9222C268.98 25.813 268.227 25.0336 267.301 24.5705L265.512 28.1482ZM265.46 28.1102C265.515 28.2628 265.578 28.5641 265.578 29.0781H269.578C269.578 28.2796 269.485 27.4872 269.227 26.7648L265.46 28.1102ZM265.579 29.0126L265.485 31.872L269.483 32.003L269.577 29.1437L265.579 29.0126ZM268.99 33.2545C269.816 32.3098 270.65 31.4619 271.491 30.7079L268.821 27.7296C267.85 28.6006 266.903 29.5652 265.979 30.6205L268.99 33.2545ZM271.494 30.7053C272.334 29.9499 273.205 29.3154 274.107 28.7957L272.111 25.3293C270.951 25.9971 269.854 26.8001 268.818 27.7322L271.494 30.7053ZM274.123 28.7864C275.042 28.2462 276.013 27.828 277.04 27.5305L275.928 23.6882C274.581 24.0783 273.302 24.6288 272.095 25.3386L274.123 28.7864ZM277.04 27.5305C278.024 27.2457 279.132 27.0938 280.375 27.0938V23.0938C278.806 23.0938 277.319 23.2856 275.928 23.6882L277.04 27.5305ZM280.375 27.0938C282.035 27.0938 283.533 27.3919 284.893 27.9669L286.451 24.2831C284.56 23.4831 282.527 23.0938 280.375 23.0938V27.0938ZM284.905 27.9722C286.287 28.5459 287.44 29.3691 288.39 30.4471L291.391 27.8029C290.028 26.2559 288.369 25.0791 286.439 24.2778L284.905 27.9722ZM288.408 30.4668C289.389 31.5514 290.164 32.8956 290.712 34.5387L294.507 33.2738C293.804 31.1669 292.767 29.3236 291.374 27.7832L288.408 30.4668ZM290.722 34.567C291.284 36.1729 291.558 38.0499 291.501 40.2286L295.499 40.3339C295.567 37.7626 295.248 35.3896 294.497 33.2455L290.722 34.567ZM291.501 40.2237L290.376 79.2705L294.374 79.3857L295.499 40.3388L291.501 40.2237ZM290.375 79.3281C290.375 79.5408 290.361 79.6934 290.344 79.7962C290.326 79.9006 290.31 79.9286 290.32 79.9068L293.961 81.562C294.284 80.852 294.375 80.0614 294.375 79.3281H290.375ZM290.32 79.9068C290.363 79.8126 290.421 79.7426 290.467 79.7009C290.509 79.6639 290.519 79.6686 290.462 79.693L292.038 83.3695C292.81 83.0388 293.549 82.469 293.961 81.562L290.32 79.9068ZM290.462 79.693C290.32 79.7539 289.948 79.8563 289.222 79.9121L289.528 83.9004C290.427 83.8312 291.305 83.6836 292.038 83.3695L290.462 79.693ZM289.216 79.9126C288.511 79.969 287.524 80 286.234 80V84C287.57 84 288.677 83.9685 289.534 83.8999L289.216 79.9126ZM286.234 80C284.946 80 283.941 79.9691 283.2 79.9121L282.893 83.9004C283.778 83.9684 284.897 84 286.234 84V80ZM283.206 79.9126C282.521 79.8578 282.157 79.7575 282.007 79.693L280.431 83.3695C281.155 83.68 282.011 83.8297 282.887 83.8999L283.206 79.9126ZM282.057 79.7153C282.02 79.6985 282.037 79.7001 282.076 79.7374C282.119 79.778 282.164 79.837 282.196 79.9068L278.554 81.562C278.944 82.4203 279.624 82.9978 280.381 83.3472L282.057 79.7153ZM282.196 79.9068C282.206 79.9286 282.189 79.9006 282.172 79.7962C282.155 79.6934 282.141 79.5408 282.141 79.3281H278.141C278.141 80.0614 278.232 80.852 278.554 81.562L282.196 79.9068ZM282.14 79.2709L281.062 41.5834L277.063 41.6978L278.141 79.3853L282.14 79.2709ZM281.062 41.5894C281.027 40.2437 280.854 39.0086 280.484 37.9395L276.704 39.248C276.896 39.8039 277.035 40.6 277.063 41.6919L281.062 41.5894ZM280.484 37.9395C280.132 36.9228 279.62 35.9943 278.883 35.2577L276.055 38.0861C276.255 38.287 276.493 38.6397 276.704 39.248L280.484 37.9395ZM278.883 35.2577C278.167 34.5413 277.304 34.0424 276.331 33.7645L275.232 37.6105C275.571 37.7076 275.833 37.865 276.055 38.0861L278.883 35.2577ZM276.356 33.7718C275.519 33.5208 274.635 33.4062 273.719 33.4062V37.4062C274.303 37.4062 274.793 37.4792 275.207 37.6032L276.356 33.7718ZM273.719 33.4062C272.137 33.4062 270.674 33.8518 269.405 34.7707L271.751 38.0105C272.295 37.617 272.925 37.4062 273.719 37.4062V33.4062ZM269.405 34.7707C268.327 35.5513 267.395 36.4834 266.615 37.5614L269.854 39.9074C270.386 39.1728 271.017 38.5424 271.751 38.0105L269.405 34.7707ZM266.235 38.6767L265.063 79.2704L269.062 79.3858L270.234 38.7921L266.235 38.6767ZM265.062 79.3281C265.062 79.5408 265.048 79.6934 265.031 79.7962C265.014 79.9006 264.997 79.9286 265.007 79.9068L268.649 81.562C268.972 80.852 269.062 80.0614 269.062 79.3281H265.062ZM265.007 79.9068C265.05 79.8126 265.108 79.7426 265.155 79.7009C265.196 79.6639 265.207 79.6686 265.15 79.693L266.725 83.3695C267.497 83.0388 268.237 82.469 268.649 81.562L265.007 79.9068ZM265.15 79.693C265.007 79.7539 264.635 79.8563 263.909 79.9121L264.216 83.9004C265.115 83.8312 265.993 83.6836 266.725 83.3695L265.15 79.693ZM263.903 79.9126C263.198 79.969 262.211 80 260.922 80V84C262.257 84 263.364 83.9685 264.222 83.8999L263.903 79.9126ZM260.922 80C259.634 80 258.628 79.9691 257.888 79.9121L257.581 83.9004C258.466 83.9684 259.585 84 260.922 84V80ZM257.894 79.9126C257.208 79.8578 256.845 79.7575 256.694 79.693L255.118 83.3695C255.843 83.68 256.698 83.8297 257.575 83.8999L257.894 79.9126ZM256.744 79.7153C256.708 79.6985 256.724 79.7001 256.764 79.7374C256.807 79.778 256.852 79.837 256.883 79.9068L253.242 81.562C253.632 82.4203 254.311 82.9978 255.068 83.3472L256.744 79.7153ZM256.883 79.9068C256.893 79.9286 256.877 79.9006 256.86 79.7962C256.842 79.6934 256.828 79.5408 256.828 79.3281H252.828C252.828 80.0614 252.919 80.852 253.242 81.562L256.883 79.9068ZM256.827 79.2684L255.327 29.0185L251.329 29.1378L252.829 79.3878L256.827 79.2684Z" fill="black"/>
</g>
<defs>
<filter id="filter0_d" x="0.854172" y="0.78125" width="298.654" height="91.7812" filterUnits="userSpaceOnUse" color-interpolation-filters="sRGB">
<feFlood flood-opacity="0" result="BackgroundImageFix"/>
<feColorMatrix in="SourceAlpha" type="matrix" values="0 0 0 0 0 0 0 0 0 0 0 0 0 0 0 0 0 0 127 0" result="hardAlpha"/>
<feOffset dy="4"/>
<feGaussianBlur stdDeviation="2"/>
<feComposite in2="hardAlpha" operator="out"/>
<feColorMatrix type="matrix" values="0 0 0 0 0 0 0 0 0 0 0 0 0 0 0 0 0 0 0.25 0"/>
<feBlend mode="normal" in2="BackgroundImageFix" result="effect1_dropShadow"/>
<feBlend mode="normal" in="SourceGraphic" in2="effect1_dropShadow" result="shape"/>
</filter>
</defs>
</svg>
