<svg width="162" height="84" viewBox="0 0 162 84" fill="none" xmlns="http://www.w3.org/2000/svg">
<path d="M19.4238 2.78711C19.4707 2.45898 19.5469 2.18945 19.6523 1.97852C19.7695 1.76758 19.9746 1.60352 20.2676 1.48633C20.5723 1.36914 21.0059 1.29297 21.5684 1.25781C22.1309 1.21094 22.8926 1.1875 23.8535 1.1875C24.8027 1.1875 25.5586 1.21094 26.1211 1.25781C26.6836 1.29297 27.1113 1.36914 27.4043 1.48633C27.709 1.60352 27.9141 1.76758 28.0195 1.97852C28.125 2.18945 28.207 2.45898 28.2656 2.78711L32.9238 29.6289C32.9707 29.9453 32.9648 30.1973 32.9062 30.3848C32.8594 30.5605 32.7422 30.6953 32.5547 30.7891C32.3789 30.8828 32.1328 30.9414 31.8164 30.9648C31.5 30.9883 31.1133 31 30.6562 31C30.0938 31 29.6426 30.9883 29.3027 30.9648C28.9746 30.9414 28.7168 30.8828 28.5293 30.7891C28.3418 30.6953 28.2012 30.5605 28.1074 30.3848C28.0254 30.1973 27.9609 29.9453 27.9141 29.6289L27.1934 25.4277H20.4961L19.7754 29.6289C19.7168 29.9453 19.6465 30.1973 19.5645 30.3848C19.4824 30.5605 19.3477 30.6953 19.1602 30.7891C18.9727 30.8828 18.709 30.9414 18.3691 30.9648C18.041 30.9883 17.5957 31 17.0332 31C16.5762 31 16.1895 30.9883 15.873 30.9648C15.5684 30.9414 15.3223 30.8828 15.1348 30.7891C14.9473 30.6953 14.8242 30.5605 14.7656 30.3848C14.707 30.1973 14.707 29.9453 14.7656 29.6289L19.4238 2.78711ZM26.6133 22.0879L23.9238 6.49609H23.7656L21.0762 22.0879H26.6133ZM35.4727 15.4785C35.4492 14.6348 35.5605 13.8555 35.8066 13.1406C36.0527 12.4258 36.4102 11.8105 36.8789 11.2949C37.3594 10.7793 37.9336 10.3809 38.6016 10.0996C39.2695 9.80664 40.0137 9.66016 40.834 9.66016C41.3262 9.66016 41.7832 9.72461 42.2051 9.85352C42.627 9.98242 43.0137 10.1465 43.3652 10.3457C43.7168 10.5332 44.0273 10.7441 44.2969 10.9785C44.5781 11.2129 44.8184 11.4355 45.0176 11.6465L44.8242 1.97852C44.8242 1.73242 44.8477 1.52734 44.8945 1.36328C44.9531 1.1875 45.082 1.05273 45.2812 0.958984C45.4805 0.865234 45.7676 0.800781 46.1426 0.765625C46.5293 0.71875 47.0391 0.695312 47.6719 0.695312C48.3047 0.695312 48.8086 0.71875 49.1836 0.765625C49.5703 0.800781 49.8633 0.865234 50.0625 0.958984C50.2617 1.05273 50.3848 1.1875 50.4316 1.36328C50.4902 1.52734 50.5195 1.73242 50.5195 1.97852L49.9746 29.998C49.9746 30.2207 49.9453 30.3965 49.8867 30.5254C49.8281 30.6543 49.7168 30.7539 49.5527 30.8242C49.3887 30.8945 49.1543 30.9414 48.8496 30.9648C48.5566 30.9883 48.1641 31 47.6719 31C47.2148 31 46.8457 30.9883 46.5645 30.9648C46.2949 30.9414 46.084 30.8945 45.9316 30.8242C45.791 30.7539 45.6914 30.6543 45.6328 30.5254C45.5859 30.3965 45.5625 30.2207 45.5625 29.998V29.3301C45.3164 29.5527 45.0293 29.7754 44.7012 29.998C44.3848 30.2207 44.0273 30.4258 43.6289 30.6133C43.2305 30.7891 42.7969 30.9297 42.3281 31.0352C41.8594 31.1523 41.3555 31.2109 40.8164 31.2109C40.0547 31.2109 39.3691 31.1055 38.7598 30.8945C38.1621 30.6836 37.6465 30.3496 37.2129 29.8926C36.791 29.4238 36.457 28.8203 36.2109 28.082C35.9648 27.332 35.8242 26.4297 35.7891 25.375L35.4727 15.4785ZM40.6406 25.375C40.6172 26.2422 40.8164 26.9102 41.2383 27.3789C41.6719 27.8359 42.2637 28.0645 43.0137 28.0645C43.5059 28.0645 43.9453 27.9766 44.332 27.8008C44.7305 27.6133 45.0645 27.4023 45.334 27.168L45.0703 14.1953C44.7891 13.9609 44.4551 13.7559 44.0684 13.5801C43.6816 13.3926 43.2891 13.2988 42.8906 13.2988C42.6328 13.2988 42.3867 13.3398 42.1523 13.4219C41.918 13.4922 41.707 13.6152 41.5195 13.791C41.3438 13.9551 41.1973 14.1777 41.0801 14.459C40.9746 14.7402 40.916 15.0801 40.9043 15.4785L40.6406 25.375ZM54.7734 15.4785C54.75 14.6348 54.8613 13.8555 55.1074 13.1406C55.3535 12.4258 55.7109 11.8105 56.1797 11.2949C56.6602 10.7793 57.2344 10.3809 57.9023 10.0996C58.5703 9.80664 59.3145 9.66016 60.1348 9.66016C60.627 9.66016 61.084 9.72461 61.5059 9.85352C61.9277 9.98242 62.3145 10.1465 62.666 10.3457C63.0176 10.5332 63.3281 10.7441 63.5977 10.9785C63.8789 11.2129 64.1191 11.4355 64.3184 11.6465L64.125 1.97852C64.125 1.73242 64.1484 1.52734 64.1953 1.36328C64.2539 1.1875 64.3828 1.05273 64.582 0.958984C64.7812 0.865234 65.0684 0.800781 65.4434 0.765625C65.8301 0.71875 66.3398 0.695312 66.9727 0.695312C67.6055 0.695312 68.1094 0.71875 68.4844 0.765625C68.8711 0.800781 69.1641 0.865234 69.3633 0.958984C69.5625 1.05273 69.6855 1.1875 69.7324 1.36328C69.791 1.52734 69.8203 1.73242 69.8203 1.97852L69.2754 29.998C69.2754 30.2207 69.2461 30.3965 69.1875 30.5254C69.1289 30.6543 69.0176 30.7539 68.8535 30.8242C68.6895 30.8945 68.4551 30.9414 68.1504 30.9648C67.8574 30.9883 67.4648 31 66.9727 31C66.5156 31 66.1465 30.9883 65.8652 30.9648C65.5957 30.9414 65.3848 30.8945 65.2324 30.8242C65.0918 30.7539 64.9922 30.6543 64.9336 30.5254C64.8867 30.3965 64.8633 30.2207 64.8633 29.998V29.3301C64.6172 29.5527 64.3301 29.7754 64.002 29.998C63.6855 30.2207 63.3281 30.4258 62.9297 30.6133C62.5312 30.7891 62.0977 30.9297 61.6289 31.0352C61.1602 31.1523 60.6562 31.2109 60.1172 31.2109C59.3555 31.2109 58.6699 31.1055 58.0605 30.8945C57.4629 30.6836 56.9473 30.3496 56.5137 29.8926C56.0918 29.4238 55.7578 28.8203 55.5117 28.082C55.2656 27.332 55.125 26.4297 55.0898 25.375L54.7734 15.4785ZM59.9414 25.375C59.918 26.2422 60.1172 26.9102 60.5391 27.3789C60.9727 27.8359 61.5645 28.0645 62.3145 28.0645C62.8066 28.0645 63.2461 27.9766 63.6328 27.8008C64.0312 27.6133 64.3652 27.4023 64.6348 27.168L64.3711 14.1953C64.0898 13.9609 63.7559 13.7559 63.3691 13.5801C62.9824 13.3926 62.5898 13.2988 62.1914 13.2988C61.9336 13.2988 61.6875 13.3398 61.4531 13.4219C61.2188 13.4922 61.0078 13.6152 60.8203 13.791C60.6445 13.9551 60.498 14.1777 60.3809 14.459C60.2754 14.7402 60.2168 15.0801 60.2051 15.4785L59.9414 25.375ZM82.9336 2.75195C82.9219 2.44727 82.9453 2.20117 83.0039 2.01367C83.0625 1.82617 83.1855 1.67969 83.373 1.57422C83.5723 1.46875 83.8535 1.39844 84.2168 1.36328C84.5918 1.31641 85.0898 1.29297 85.7109 1.29297C86.168 1.29297 86.5547 1.30469 86.8711 1.32812C87.1992 1.35156 87.4629 1.39844 87.6621 1.46875C87.8613 1.52734 88.0137 1.60938 88.1191 1.71484C88.2363 1.82031 88.3125 1.96094 88.3477 2.13672L94.9043 19.9785H95.0449L94.2188 2.75195C94.207 2.44727 94.2305 2.20117 94.2891 2.01367C94.3594 1.82617 94.4941 1.67969 94.6934 1.57422C94.9043 1.46875 95.1973 1.39844 95.5723 1.36328C95.959 1.31641 96.4629 1.29297 97.084 1.29297C97.7754 1.29297 98.332 1.31641 98.7539 1.36328C99.1758 1.39844 99.4922 1.46875 99.7031 1.57422C99.9258 1.67969 100.072 1.82617 100.143 2.01367C100.213 2.20117 100.242 2.44727 100.23 2.75195L99.457 29.2773C99.4453 29.5469 99.416 29.7871 99.3691 29.998C99.3223 30.209 99.2285 30.3906 99.0879 30.543C98.9473 30.6953 98.7363 30.8125 98.4551 30.8945C98.1855 30.9648 97.8223 31 97.3652 31C96.9199 31 96.5566 30.9707 96.2754 30.9121C95.9941 30.8535 95.7891 30.707 95.6602 30.4727L95.625 30.5078L88.5059 12.3145H88.3125L88.1719 29.8047C88.1602 30.0742 88.1309 30.291 88.084 30.4551C88.0371 30.6074 87.9434 30.7246 87.8027 30.8066C87.6621 30.8887 87.4512 30.9414 87.1699 30.9648C86.9004 30.9883 86.5371 31 86.0801 31C85.5527 31 85.1309 30.9883 84.8145 30.9648C84.5098 30.9414 84.2754 30.8887 84.1113 30.8066C83.9473 30.7246 83.8359 30.6074 83.7773 30.4551C83.7305 30.291 83.7012 30.0742 83.6895 29.8047L82.9336 2.75195ZM104.379 15.0039C104.344 14.0664 104.537 13.2637 104.959 12.5957C105.393 11.916 105.967 11.3594 106.682 10.9258C107.408 10.4922 108.234 10.1758 109.16 9.97656C110.098 9.76562 111.053 9.66016 112.025 9.66016C112.951 9.66016 113.859 9.76562 114.75 9.97656C115.641 10.1758 116.432 10.4922 117.123 10.9258C117.814 11.3594 118.359 11.916 118.758 12.5957C119.168 13.2637 119.355 14.0664 119.32 15.0039L119.057 21.4902C119.045 21.7129 119.004 21.8887 118.934 22.0176C118.875 22.1465 118.758 22.2461 118.582 22.3164C118.406 22.3867 118.154 22.4336 117.826 22.457C117.51 22.4805 117.088 22.4922 116.561 22.4922H109.705L109.6 26.2891C109.588 26.7344 109.629 27.1094 109.723 27.4141C109.828 27.7188 109.98 27.9648 110.18 28.1523C110.379 28.3398 110.625 28.4746 110.918 28.5566C111.211 28.6387 111.545 28.6797 111.92 28.6797C112.67 28.6797 113.221 28.5156 113.572 28.1875C113.924 27.8594 114.1 27.2793 114.1 26.4473V25.9023C114.1 25.6797 114.129 25.498 114.188 25.3574C114.246 25.2051 114.357 25.0879 114.521 25.0059C114.697 24.9121 114.943 24.8477 115.26 24.8125C115.576 24.7773 115.998 24.7598 116.525 24.7598C117.041 24.7598 117.457 24.7773 117.773 24.8125C118.09 24.8477 118.33 24.9121 118.494 25.0059C118.67 25.0879 118.781 25.1992 118.828 25.3398C118.887 25.4805 118.916 25.6621 118.916 25.8848V26.6582C118.916 27.584 118.717 28.3398 118.318 28.9258C117.92 29.5117 117.393 29.9746 116.736 30.3145C116.092 30.6543 115.348 30.8887 114.504 31.0176C113.672 31.1465 112.816 31.2109 111.938 31.2109C111.047 31.2109 110.18 31.1289 109.336 30.9648C108.492 30.7891 107.736 30.5078 107.068 30.1211C106.412 29.7227 105.873 29.2012 105.451 28.5566C105.041 27.9121 104.818 27.1094 104.783 26.1484L104.379 15.0039ZM114.1 19.8555L113.924 14.7051C113.912 14.2129 113.854 13.8145 113.748 13.5098C113.654 13.2051 113.52 12.9707 113.344 12.8066C113.18 12.6426 112.98 12.5371 112.746 12.4902C112.523 12.4316 112.283 12.4023 112.025 12.4023C111.732 12.4023 111.463 12.4316 111.217 12.4902C110.971 12.5371 110.754 12.6426 110.566 12.8066C110.391 12.9707 110.244 13.2051 110.127 13.5098C110.021 13.8145 109.963 14.2129 109.951 14.7051L109.793 19.8555H114.1ZM121.693 11.1543C121.635 10.9082 121.629 10.7031 121.676 10.5391C121.723 10.375 121.846 10.2461 122.045 10.1523C122.244 10.0469 122.531 9.97656 122.906 9.94141C123.281 9.89453 123.768 9.87109 124.365 9.87109C124.998 9.87109 125.496 9.89453 125.859 9.94141C126.234 9.97656 126.516 10.041 126.703 10.1348C126.902 10.2285 127.031 10.3574 127.09 10.5215C127.148 10.6855 127.189 10.8965 127.213 11.1543L128.355 26.7812H128.777L131.432 11.1543C131.479 10.9082 131.543 10.7031 131.625 10.5391C131.719 10.3633 131.865 10.2285 132.064 10.1348C132.264 10.041 132.545 9.97656 132.908 9.94141C133.271 9.89453 133.752 9.87109 134.35 9.87109C134.982 9.87109 135.486 9.89453 135.861 9.94141C136.236 9.97656 136.523 10.041 136.723 10.1348C136.934 10.2285 137.08 10.3633 137.162 10.5391C137.244 10.7031 137.314 10.9082 137.373 11.1543L140.027 26.7812H140.449L141.592 11.1543C141.604 10.9082 141.645 10.7031 141.715 10.5391C141.785 10.3633 141.914 10.2285 142.102 10.1348C142.301 10.041 142.576 9.97656 142.928 9.94141C143.291 9.89453 143.771 9.87109 144.369 9.87109C144.967 9.87109 145.453 9.89453 145.828 9.94141C146.203 9.97656 146.484 10.0469 146.672 10.1523C146.871 10.2461 146.994 10.375 147.041 10.5391C147.088 10.7031 147.088 10.9082 147.041 11.1543L143.771 29.998C143.725 30.209 143.666 30.3848 143.596 30.5254C143.525 30.6543 143.408 30.7539 143.244 30.8242C143.092 30.8945 142.875 30.9414 142.594 30.9648C142.312 30.9883 141.943 31 141.486 31H139.658C139.201 31 138.832 30.9883 138.551 30.9648C138.281 30.9414 138.064 30.8945 137.9 30.8242C137.748 30.7539 137.631 30.6543 137.549 30.5254C137.479 30.3848 137.42 30.209 137.373 29.998L134.42 15.7422H134.262L131.326 29.998C131.268 30.209 131.203 30.3789 131.133 30.5078C131.062 30.6367 130.945 30.7422 130.781 30.8242C130.629 30.8945 130.412 30.9414 130.131 30.9648C129.861 30.9883 129.498 31 129.041 31H127.248C126.791 31 126.422 30.9883 126.141 30.9648C125.871 30.9414 125.654 30.8945 125.49 30.8242C125.338 30.7422 125.227 30.6367 125.156 30.5078C125.086 30.3789 125.021 30.209 124.963 29.998L121.693 11.1543ZM4.81641 47.7871C4.86328 47.459 4.93945 47.1895 5.04492 46.9785C5.16211 46.7676 5.36719 46.6035 5.66016 46.4863C5.96484 46.3691 6.39844 46.293 6.96094 46.2578C7.52344 46.2109 8.28516 46.1875 9.24609 46.1875C10.1953 46.1875 10.9512 46.2109 11.5137 46.2578C12.0762 46.293 12.5039 46.3691 12.7969 46.4863C13.1016 46.6035 13.3066 46.7676 13.4121 46.9785C13.5176 47.1895 13.5996 47.459 13.6582 47.7871L18.3164 74.6289C18.3633 74.9453 18.3574 75.1973 18.2988 75.3848C18.252 75.5605 18.1348 75.6953 17.9473 75.7891C17.7715 75.8828 17.5254 75.9414 17.209 75.9648C16.8926 75.9883 16.5059 76 16.0488 76C15.4863 76 15.0352 75.9883 14.6953 75.9648C14.3672 75.9414 14.1094 75.8828 13.9219 75.7891C13.7344 75.6953 13.5938 75.5605 13.5 75.3848C13.418 75.1973 13.3535 74.9453 13.3066 74.6289L12.5859 70.4277H5.88867L5.16797 74.6289C5.10938 74.9453 5.03906 75.1973 4.95703 75.3848C4.875 75.5605 4.74023 75.6953 4.55273 75.7891C4.36523 75.8828 4.10156 75.9414 3.76172 75.9648C3.43359 75.9883 2.98828 76 2.42578 76C1.96875 76 1.58203 75.9883 1.26562 75.9648C0.960938 75.9414 0.714844 75.8828 0.527344 75.7891C0.339844 75.6953 0.216797 75.5605 0.158203 75.3848C0.0996094 75.1973 0.0996094 74.9453 0.158203 74.6289L4.81641 47.7871ZM12.0059 67.0879L9.31641 51.4961H9.1582L6.46875 67.0879H12.0059ZM20.8652 56.1543C20.8535 55.9082 20.8711 55.7031 20.918 55.5391C20.9766 55.3633 21.0996 55.2285 21.2871 55.1348C21.4746 55.041 21.7441 54.9766 22.0957 54.9414C22.459 54.8945 22.9395 54.8711 23.5371 54.8711C24.1348 54.8711 24.6094 54.8945 24.9609 54.9414C25.3242 54.9766 25.5996 55.041 25.7871 55.1348C25.9746 55.2285 26.0918 55.3633 26.1387 55.5391C26.1973 55.7031 26.2207 55.9082 26.209 56.1543L26.1914 56.7695C26.4727 56.4883 26.7715 56.2246 27.0879 55.9785C27.4043 55.7207 27.7441 55.498 28.1074 55.3105C28.4707 55.1113 28.8516 54.9531 29.25 54.8359C29.6484 54.7188 30.0762 54.6602 30.5332 54.6602C31.3535 54.6602 32.0977 54.8066 32.7656 55.0996C33.4336 55.3809 34.002 55.7793 34.4707 56.2949C34.9512 56.8105 35.3145 57.4258 35.5605 58.1406C35.8066 58.8555 35.918 59.6348 35.8945 60.4785L35.5781 70.375C35.543 71.4297 35.4023 72.332 35.1562 73.082C34.9102 73.8203 34.5703 74.4238 34.1367 74.8926C33.7148 75.3496 33.1992 75.6836 32.5898 75.8945C31.9805 76.1055 31.3008 76.2109 30.5508 76.2109C29.5781 76.2109 28.7285 76.0527 28.002 75.7363C27.2754 75.4082 26.6602 75.0449 26.1562 74.6465L25.998 82.3809C25.998 82.6035 25.9688 82.7793 25.9102 82.9082C25.8516 83.0371 25.7402 83.1367 25.5762 83.207C25.4121 83.2773 25.1836 83.3242 24.8906 83.3477C24.5977 83.3711 24.2051 83.3828 23.7129 83.3828C23.2207 83.3828 22.8223 83.3711 22.5176 83.3477C22.2246 83.3242 21.9961 83.2773 21.832 83.207C21.6797 83.1367 21.5742 83.0371 21.5156 82.9082C21.4688 82.7793 21.4453 82.6035 21.4453 82.3809L20.8652 56.1543ZM26.209 72.3262C26.4785 72.5254 26.7891 72.7012 27.1406 72.8535C27.5039 72.9941 27.9082 73.0645 28.3535 73.0645C29.1035 73.0645 29.6895 72.8359 30.1113 72.3789C30.5449 71.9102 30.75 71.2422 30.7266 70.375L30.4629 60.4785C30.4512 60.0801 30.3867 59.7402 30.2695 59.459C30.1641 59.1777 30.0176 58.9551 29.8301 58.791C29.6543 58.6152 29.4492 58.4922 29.2148 58.4219C28.9805 58.3398 28.7344 58.2988 28.4766 58.2988C28.125 58.2988 27.7734 58.3691 27.4219 58.5098C27.082 58.6504 26.7773 58.8203 26.5078 59.0195L26.209 72.3262ZM39.7793 70.8848C39.7676 70.2285 39.9082 69.6543 40.2012 69.1621C40.4941 68.6582 40.8691 68.2188 41.3262 67.8438C41.7949 67.4688 42.3223 67.1523 42.9082 66.8945C43.4941 66.625 44.0742 66.3965 44.6484 66.209C45.3867 65.9629 46.166 65.752 46.9863 65.5762C47.8184 65.4004 48.627 65.248 49.4121 65.1191L49.2539 59.3008C49.2305 58.6562 49.0664 58.1816 48.7617 57.877C48.4688 57.5605 48 57.4023 47.3555 57.4023C47.0508 57.4023 46.7754 57.4258 46.5293 57.4727C46.2832 57.5195 46.0664 57.6133 45.8789 57.7539C45.7031 57.8945 45.5625 58.0879 45.457 58.334C45.3516 58.5801 45.293 58.8965 45.2812 59.2832L45.1582 63.2734C45.1582 63.4961 45.123 63.6719 45.0527 63.8008C44.9941 63.9297 44.8711 64.0293 44.6836 64.0996C44.4961 64.1699 44.2266 64.2168 43.875 64.2402C43.5352 64.2637 43.0781 64.2754 42.5039 64.2754C41.9766 64.2754 41.5488 64.2637 41.2207 64.2402C40.8926 64.2168 40.6406 64.1699 40.4648 64.0996C40.2891 64.0293 40.1719 63.9297 40.1133 63.8008C40.0547 63.6719 40.0195 63.4961 40.0078 63.2734L39.8672 59.5293C39.8438 58.9082 39.9492 58.3574 40.1836 57.877C40.418 57.3848 40.7344 56.9629 41.1328 56.6113C41.543 56.248 42.0059 55.9434 42.5215 55.6973C43.0488 55.4512 43.5938 55.252 44.1562 55.0996C44.7305 54.9355 45.2988 54.8242 45.8613 54.7656C46.4238 54.6953 46.9395 54.6602 47.4082 54.6602C48.416 54.6602 49.3711 54.7773 50.2734 55.0117C51.1875 55.2344 51.9844 55.5625 52.6641 55.9961C53.3438 56.4297 53.877 56.9629 54.2637 57.5957C54.6621 58.2168 54.8496 58.9316 54.8262 59.7402L54.2812 74.998C54.2695 75.2207 54.2344 75.3965 54.1758 75.5254C54.1289 75.6543 54.0234 75.7539 53.8594 75.8242C53.6953 75.8945 53.4609 75.9414 53.1562 75.9648C52.8633 75.9883 52.4707 76 51.9785 76C51.5215 76 51.1523 75.9883 50.8711 75.9648C50.6016 75.9414 50.3906 75.8945 50.2383 75.8242C50.0977 75.7539 49.998 75.6543 49.9395 75.5254C49.8926 75.3965 49.8691 75.2207 49.8691 74.998L49.8516 74.3828C49.5352 74.6172 49.1895 74.8457 48.8145 75.0684C48.4395 75.2793 48.041 75.4727 47.6191 75.6484C47.1973 75.8125 46.7461 75.9473 46.2656 76.0527C45.7969 76.1582 45.3047 76.2109 44.7891 76.2109C43.9688 76.2109 43.248 76.0996 42.627 75.877C42.0059 75.6426 41.4844 75.332 41.0625 74.9453C40.6523 74.5469 40.3418 74.084 40.1309 73.5566C39.9199 73.0176 39.8086 72.4434 39.7969 71.834L39.7793 70.8848ZM44.5957 71.3066C44.5957 71.6582 44.6484 71.9629 44.7539 72.2207C44.8594 72.4668 45 72.6719 45.1758 72.8359C45.3516 72.9883 45.5566 73.1055 45.791 73.1875C46.0371 73.2578 46.3008 73.293 46.582 73.293C47.2617 73.293 47.8477 73.1816 48.3398 72.959C48.832 72.7363 49.2539 72.4785 49.6055 72.1855L49.4824 67.668C48.8496 67.7734 48.293 67.8965 47.8125 68.0371C47.332 68.166 46.9043 68.3125 46.5293 68.4766C45.9434 68.7461 45.4746 69.0449 45.123 69.373C44.7715 69.6895 44.5957 70.1055 44.5957 70.6211V71.3066ZM59.0801 56.1543C59.0801 55.9082 59.1035 55.7031 59.1504 55.5391C59.209 55.3633 59.3262 55.2285 59.502 55.1348C59.6895 55.041 59.959 54.9766 60.3105 54.9414C60.6738 54.8945 61.1543 54.8711 61.752 54.8711C62.3496 54.8711 62.8242 54.8945 63.1758 54.9414C63.5273 54.9766 63.7969 55.041 63.9844 55.1348C64.1719 55.2285 64.2891 55.3633 64.3359 55.5391C64.3945 55.7031 64.4238 55.9082 64.4238 56.1543V57.1914C64.752 56.8281 65.0859 56.4941 65.4258 56.1895C65.7773 55.873 66.1406 55.6035 66.5156 55.3809C66.9023 55.1582 67.3066 54.9824 67.7285 54.8535C68.1621 54.7246 68.625 54.6602 69.1172 54.6602C69.6797 54.6602 70.2012 54.7422 70.6816 54.9062C71.1738 55.0703 71.5898 55.334 71.9297 55.6973C72.2812 56.0605 72.5508 56.5352 72.7383 57.1211C72.9258 57.6953 73.0078 58.3984 72.9844 59.2305L72.8613 63.2734C72.8613 63.4961 72.8262 63.6719 72.7559 63.8008C72.6973 63.9297 72.5801 64.0293 72.4043 64.0996C72.2285 64.1699 71.9766 64.2168 71.6484 64.2402C71.332 64.2637 70.9102 64.2754 70.3828 64.2754C69.8555 64.2754 69.4336 64.2637 69.1172 64.2402C68.8008 64.2168 68.5547 64.1699 68.3789 64.0996C68.2148 64.0293 68.1035 63.9297 68.0449 63.8008C67.998 63.6719 67.9688 63.4961 67.957 63.2734L67.8867 60.8652C67.875 60.4082 67.834 60.0273 67.7637 59.7227C67.6934 59.418 67.5938 59.1777 67.4648 59.002C67.3477 58.8262 67.207 58.7031 67.043 58.6328C66.8789 58.5625 66.6914 58.5273 66.4805 58.5273C66.1406 58.5273 65.8125 58.6562 65.4961 58.9141C65.1914 59.1719 64.916 59.459 64.6699 59.7754L64.2305 74.998C64.2305 75.2207 64.2012 75.3965 64.1426 75.5254C64.084 75.6543 63.9727 75.7539 63.8086 75.8242C63.6445 75.8945 63.4102 75.9414 63.1055 75.9648C62.8125 75.9883 62.4199 76 61.9277 76C61.4355 76 61.0371 75.9883 60.7324 75.9648C60.4395 75.9414 60.2109 75.8945 60.0469 75.8242C59.8945 75.7539 59.7891 75.6543 59.7305 75.5254C59.6719 75.3965 59.6426 75.2207 59.6426 74.998L59.0801 56.1543ZM76.6406 59.7227H75.6562C75.3516 59.7227 75.1113 59.6992 74.9355 59.6523C74.7715 59.6055 74.6484 59.5176 74.5664 59.3887C74.4844 59.2598 74.4316 59.084 74.4082 58.8613C74.3965 58.627 74.3906 58.3281 74.3906 57.9648C74.3906 57.6367 74.3965 57.373 74.4082 57.1738C74.4316 56.9629 74.4844 56.7988 74.5664 56.6816C74.6484 56.5645 74.7715 56.4883 74.9355 56.4531C75.1113 56.4062 75.3516 56.3828 75.6562 56.3828H76.5527L76.4473 51.4785C76.4473 51.2324 76.4707 51.0273 76.5176 50.8633C76.5762 50.6875 76.7051 50.5527 76.9043 50.459C77.1035 50.3652 77.3906 50.3008 77.7656 50.2656C78.1523 50.2188 78.6621 50.1953 79.2949 50.1953C79.9277 50.1953 80.4316 50.2188 80.8066 50.2656C81.1934 50.3008 81.4863 50.3652 81.6855 50.459C81.8848 50.5527 82.0078 50.6875 82.0547 50.8633C82.1133 51.0273 82.1426 51.2324 82.1426 51.4785L82.0195 56.3828H82.9336C83.2383 56.3828 83.4727 56.4062 83.6367 56.4531C83.8125 56.4883 83.9414 56.5645 84.0234 56.6816C84.1055 56.7988 84.1523 56.9629 84.1641 57.1738C84.1875 57.373 84.1992 57.6367 84.1992 57.9648C84.1992 58.3281 84.1875 58.627 84.1641 58.8613C84.1523 59.084 84.1055 59.2598 84.0234 59.3887C83.9414 59.5176 83.8125 59.6055 83.6367 59.6523C83.4727 59.6992 83.2383 59.7227 82.9336 59.7227H81.9492L81.5977 74.998C81.5977 75.2207 81.5684 75.3965 81.5098 75.5254C81.4512 75.6543 81.3398 75.7539 81.1758 75.8242C81.0117 75.8945 80.7773 75.9414 80.4727 75.9648C80.1797 75.9883 79.7871 76 79.2949 76C78.8027 76 78.4043 75.9883 78.0996 75.9648C77.8066 75.9414 77.5781 75.8945 77.4141 75.8242C77.2617 75.7539 77.1562 75.6543 77.0977 75.5254C77.0391 75.3965 77.0098 75.2207 77.0098 74.998L76.6406 59.7227ZM87.0293 56.1543C87.0293 55.9082 87.0527 55.7031 87.0996 55.5391C87.1582 55.3633 87.2754 55.2285 87.4512 55.1348C87.6387 55.041 87.9082 54.9766 88.2598 54.9414C88.623 54.8945 89.1035 54.8711 89.7012 54.8711C90.2988 54.8711 90.7734 54.8945 91.125 54.9414C91.4883 54.9766 91.7578 55.041 91.9336 55.1348C92.1211 55.2285 92.2383 55.3633 92.2852 55.5391C92.3438 55.7031 92.373 55.9082 92.373 56.1543L92.3379 57.2266C92.666 56.8516 93 56.5117 93.3398 56.207C93.6914 55.8906 94.0605 55.6211 94.4473 55.3984C94.8457 55.1641 95.2676 54.9824 95.7129 54.8535C96.1582 54.7246 96.6445 54.6602 97.1719 54.6602C98.168 54.6602 99.0527 54.9062 99.8262 55.3984C100.6 55.8906 101.186 56.5938 101.584 57.5078C101.936 57.0977 102.287 56.7227 102.639 56.3828C103.002 56.0312 103.389 55.7266 103.799 55.4688C104.209 55.2109 104.648 55.0117 105.117 54.8711C105.586 54.7305 106.102 54.6602 106.664 54.6602C107.379 54.6602 108.041 54.7891 108.65 55.0469C109.271 55.3047 109.799 55.6797 110.232 56.1719C110.678 56.6641 111.018 57.2617 111.252 57.9648C111.498 58.668 111.609 59.4648 111.586 60.3555L111.164 74.998C111.164 75.2207 111.135 75.3965 111.076 75.5254C111.018 75.6543 110.906 75.7539 110.742 75.8242C110.578 75.8945 110.344 75.9414 110.039 75.9648C109.746 75.9883 109.354 76 108.861 76C108.369 76 107.971 75.9883 107.666 75.9648C107.373 75.9414 107.145 75.8945 106.98 75.8242C106.828 75.7539 106.723 75.6543 106.664 75.5254C106.605 75.3965 106.576 75.2207 106.576 74.998L106.172 60.8652C106.16 60.4082 106.102 60.0273 105.996 59.7227C105.891 59.418 105.75 59.1777 105.574 59.002C105.398 58.8262 105.188 58.7031 104.941 58.6328C104.707 58.5625 104.449 58.5273 104.168 58.5273C103.723 58.5273 103.324 58.6562 102.973 58.9141C102.633 59.1602 102.34 59.459 102.094 59.8105V60.3555L101.672 74.998C101.672 75.2207 101.643 75.3965 101.584 75.5254C101.525 75.6543 101.414 75.7539 101.25 75.8242C101.086 75.8945 100.852 75.9414 100.547 75.9648C100.254 75.9883 99.8613 76 99.3691 76C98.877 76 98.4785 75.9883 98.1738 75.9648C97.8809 75.9414 97.6523 75.8945 97.4883 75.8242C97.3359 75.7539 97.2305 75.6543 97.1719 75.5254C97.1133 75.3965 97.084 75.2207 97.084 74.998L96.6797 60.8652C96.668 60.4082 96.6094 60.0273 96.5039 59.7227C96.3984 59.418 96.2578 59.1777 96.082 59.002C95.9062 58.8262 95.6953 58.7031 95.4492 58.6328C95.2148 58.5625 94.957 58.5273 94.6758 58.5273C94.2305 58.5273 93.8379 58.6504 93.498 58.8965C93.1582 59.1426 92.8652 59.4355 92.6191 59.7754L92.1797 74.998C92.1797 75.2207 92.1504 75.3965 92.0918 75.5254C92.0332 75.6543 91.9219 75.7539 91.7578 75.8242C91.5938 75.8945 91.3594 75.9414 91.0547 75.9648C90.7617 75.9883 90.3691 76 89.877 76C89.3848 76 88.9863 75.9883 88.6816 75.9648C88.3887 75.9414 88.1602 75.8945 87.9961 75.8242C87.8438 75.7539 87.7383 75.6543 87.6797 75.5254C87.6211 75.3965 87.5918 75.2207 87.5918 74.998L87.0293 56.1543ZM115.33 60.0039C115.295 59.0664 115.488 58.2637 115.91 57.5957C116.344 56.916 116.918 56.3594 117.633 55.9258C118.359 55.4922 119.186 55.1758 120.111 54.9766C121.049 54.7656 122.004 54.6602 122.977 54.6602C123.902 54.6602 124.811 54.7656 125.701 54.9766C126.592 55.1758 127.383 55.4922 128.074 55.9258C128.766 56.3594 129.311 56.916 129.709 57.5957C130.119 58.2637 130.307 59.0664 130.271 60.0039L130.008 66.4902C129.996 66.7129 129.955 66.8887 129.885 67.0176C129.826 67.1465 129.709 67.2461 129.533 67.3164C129.357 67.3867 129.105 67.4336 128.777 67.457C128.461 67.4805 128.039 67.4922 127.512 67.4922H120.656L120.551 71.2891C120.539 71.7344 120.58 72.1094 120.674 72.4141C120.779 72.7188 120.932 72.9648 121.131 73.1523C121.33 73.3398 121.576 73.4746 121.869 73.5566C122.162 73.6387 122.496 73.6797 122.871 73.6797C123.621 73.6797 124.172 73.5156 124.523 73.1875C124.875 72.8594 125.051 72.2793 125.051 71.4473V70.9023C125.051 70.6797 125.08 70.498 125.139 70.3574C125.197 70.2051 125.309 70.0879 125.473 70.0059C125.648 69.9121 125.895 69.8477 126.211 69.8125C126.527 69.7773 126.949 69.7598 127.477 69.7598C127.992 69.7598 128.408 69.7773 128.725 69.8125C129.041 69.8477 129.281 69.9121 129.445 70.0059C129.621 70.0879 129.732 70.1992 129.779 70.3398C129.838 70.4805 129.867 70.6621 129.867 70.8848V71.6582C129.867 72.584 129.668 73.3398 129.27 73.9258C128.871 74.5117 128.344 74.9746 127.688 75.3145C127.043 75.6543 126.299 75.8887 125.455 76.0176C124.623 76.1465 123.768 76.2109 122.889 76.2109C121.998 76.2109 121.131 76.1289 120.287 75.9648C119.443 75.7891 118.688 75.5078 118.02 75.1211C117.363 74.7227 116.824 74.2012 116.402 73.5566C115.992 72.9121 115.77 72.1094 115.734 71.1484L115.33 60.0039ZM125.051 64.8555L124.875 59.7051C124.863 59.2129 124.805 58.8145 124.699 58.5098C124.605 58.2051 124.471 57.9707 124.295 57.8066C124.131 57.6426 123.932 57.5371 123.697 57.4902C123.475 57.4316 123.234 57.4023 122.977 57.4023C122.684 57.4023 122.414 57.4316 122.168 57.4902C121.922 57.5371 121.705 57.6426 121.518 57.8066C121.342 57.9707 121.195 58.2051 121.078 58.5098C120.973 58.8145 120.914 59.2129 120.902 59.7051L120.744 64.8555H125.051ZM134.174 56.1543C134.174 55.9082 134.197 55.7031 134.244 55.5391C134.303 55.3633 134.42 55.2285 134.596 55.1348C134.783 55.041 135.053 54.9766 135.404 54.9414C135.768 54.8945 136.248 54.8711 136.846 54.8711C137.443 54.8711 137.918 54.8945 138.27 54.9414C138.633 54.9766 138.902 55.041 139.078 55.1348C139.266 55.2285 139.383 55.3633 139.43 55.5391C139.488 55.7031 139.518 55.9082 139.518 56.1543L139.482 57.2266C139.811 56.8516 140.145 56.5117 140.484 56.207C140.836 55.8906 141.205 55.6211 141.592 55.3984C141.99 55.1641 142.412 54.9824 142.857 54.8535C143.303 54.7246 143.789 54.6602 144.316 54.6602C145.031 54.6602 145.693 54.7891 146.303 55.0469C146.924 55.3047 147.451 55.6797 147.885 56.1719C148.33 56.6641 148.67 57.2617 148.904 57.9648C149.15 58.668 149.262 59.4648 149.238 60.3555L148.816 74.998C148.816 75.2207 148.787 75.3965 148.729 75.5254C148.67 75.6543 148.559 75.7539 148.395 75.8242C148.23 75.8945 147.996 75.9414 147.691 75.9648C147.398 75.9883 147.006 76 146.514 76C146.021 76 145.623 75.9883 145.318 75.9648C145.025 75.9414 144.797 75.8945 144.633 75.8242C144.48 75.7539 144.375 75.6543 144.316 75.5254C144.258 75.3965 144.229 75.2207 144.229 74.998L143.824 60.8652C143.812 60.4082 143.754 60.0273 143.648 59.7227C143.543 59.418 143.402 59.1777 143.227 59.002C143.051 58.8262 142.84 58.7031 142.594 58.6328C142.359 58.5625 142.102 58.5273 141.82 58.5273C141.375 58.5273 140.982 58.6504 140.643 58.8965C140.303 59.1426 140.01 59.4355 139.764 59.7754L139.324 74.998C139.324 75.2207 139.295 75.3965 139.236 75.5254C139.178 75.6543 139.066 75.7539 138.902 75.8242C138.738 75.8945 138.504 75.9414 138.199 75.9648C137.906 75.9883 137.514 76 137.021 76C136.529 76 136.131 75.9883 135.826 75.9648C135.533 75.9414 135.305 75.8945 135.141 75.8242C134.988 75.7539 134.883 75.6543 134.824 75.5254C134.766 75.3965 134.736 75.2207 134.736 74.998L134.174 56.1543ZM153.984 59.7227H153C152.695 59.7227 152.455 59.6992 152.279 59.6523C152.115 59.6055 151.992 59.5176 151.91 59.3887C151.828 59.2598 151.775 59.084 151.752 58.8613C151.74 58.627 151.734 58.3281 151.734 57.9648C151.734 57.6367 151.74 57.373 151.752 57.1738C151.775 56.9629 151.828 56.7988 151.91 56.6816C151.992 56.5645 152.115 56.4883 152.279 56.4531C152.455 56.4062 152.695 56.3828 153 56.3828H153.896L153.791 51.4785C153.791 51.2324 153.814 51.0273 153.861 50.8633C153.92 50.6875 154.049 50.5527 154.248 50.459C154.447 50.3652 154.734 50.3008 155.109 50.2656C155.496 50.2188 156.006 50.1953 156.639 50.1953C157.271 50.1953 157.775 50.2188 158.15 50.2656C158.537 50.3008 158.83 50.3652 159.029 50.459C159.229 50.5527 159.352 50.6875 159.398 50.8633C159.457 51.0273 159.486 51.2324 159.486 51.4785L159.363 56.3828H160.277C160.582 56.3828 160.816 56.4062 160.98 56.4531C161.156 56.4883 161.285 56.5645 161.367 56.6816C161.449 56.7988 161.496 56.9629 161.508 57.1738C161.531 57.373 161.543 57.6367 161.543 57.9648C161.543 58.3281 161.531 58.627 161.508 58.8613C161.496 59.084 161.449 59.2598 161.367 59.3887C161.285 59.5176 161.156 59.6055 160.98 59.6523C160.816 59.6992 160.582 59.7227 160.277 59.7227H159.293L158.941 74.998C158.941 75.2207 158.912 75.3965 158.854 75.5254C158.795 75.6543 158.684 75.7539 158.52 75.8242C158.355 75.8945 158.121 75.9414 157.816 75.9648C157.523 75.9883 157.131 76 156.639 76C156.146 76 155.748 75.9883 155.443 75.9648C155.15 75.9414 154.922 75.8945 154.758 75.8242C154.605 75.7539 154.5 75.6543 154.441 75.5254C154.383 75.3965 154.354 75.2207 154.354 74.998L153.984 59.7227Z" fill="#22414A"/>
</svg>
