<svg width="146" height="30" viewBox="0 0 146 30" fill="none" xmlns="http://www.w3.org/2000/svg">
<path d="M0.683594 2.32129C0.672526 2.03353 0.700195 1.80111 0.766602 1.62402C0.833008 1.44694 0.971354 1.30859 1.18164 1.20898C1.40299 1.10938 1.71289 1.04297 2.11133 1.00977C2.50977 0.965495 3.04102 0.943359 3.70508 0.943359H4.12012H7.90527C9.04525 0.943359 10.1022 1.0485 11.0762 1.25879C12.0612 1.45801 12.9134 1.77897 13.6328 2.22168C14.3522 2.65332 14.9111 3.21224 15.3096 3.89844C15.7191 4.57357 15.9072 5.39258 15.874 6.35547L15.6582 14.2412C15.6361 14.8721 15.4977 15.5029 15.2432 16.1338C14.9997 16.7646 14.5902 17.3346 14.0146 17.8438C13.4502 18.3418 12.6976 18.7513 11.7568 19.0723C10.8271 19.3822 9.67057 19.5371 8.28711 19.5371H6.22852L5.99609 27.8711C5.99609 28.1257 5.96842 28.3304 5.91309 28.4854C5.86882 28.6292 5.76367 28.7399 5.59766 28.8174C5.44271 28.8949 5.21582 28.9447 4.91699 28.9668C4.61816 28.9889 4.21419 29 3.70508 29C3.19596 29 2.78646 28.9889 2.47656 28.9668C2.17773 28.9447 1.95085 28.8949 1.7959 28.8174C1.64095 28.7399 1.53581 28.6292 1.48047 28.4854C1.4362 28.3304 1.40853 28.1257 1.39746 27.8711L0.683594 2.32129ZM7.55664 16.8311C8.08789 16.8311 8.5306 16.7923 8.88477 16.7148C9.23893 16.6263 9.51562 16.488 9.71484 16.2998C9.92513 16.1117 10.069 15.8626 10.1465 15.5527C10.235 15.2318 10.2738 14.8389 10.2627 14.374L10.0303 5.82422C10.0192 5.39258 9.97493 5.04948 9.89746 4.79492C9.81999 4.5293 9.68164 4.32454 9.48242 4.18066C9.2832 4.03678 9.01204 3.94271 8.66895 3.89844C8.33691 3.8431 7.90527 3.81543 7.37402 3.81543H6.67676L6.31152 16.8311H7.55664ZM19.1113 24.1689C19.1003 23.5492 19.2331 23.0068 19.5098 22.542C19.7865 22.0661 20.1406 21.651 20.5723 21.2969C21.015 20.9427 21.513 20.6439 22.0664 20.4004C22.6198 20.1458 23.1676 19.93 23.71 19.7529C24.4072 19.5205 25.1432 19.3213 25.918 19.1553C26.7038 18.9893 27.4674 18.8454 28.209 18.7236L28.0596 13.2285C28.0374 12.6198 27.8825 12.1715 27.5947 11.8838C27.318 11.585 26.8753 11.4355 26.2666 11.4355C25.9788 11.4355 25.7188 11.4577 25.4863 11.502C25.2539 11.5462 25.0492 11.6348 24.8721 11.7676C24.7061 11.9004 24.5732 12.083 24.4736 12.3154C24.374 12.5479 24.3187 12.8467 24.3076 13.2119L24.1914 16.9805C24.1914 17.1908 24.1582 17.3568 24.0918 17.4785C24.0365 17.6003 23.9202 17.6943 23.7432 17.7607C23.5661 17.8271 23.3115 17.8714 22.9795 17.8936C22.6585 17.9157 22.2269 17.9268 21.6846 17.9268C21.1865 17.9268 20.7826 17.9157 20.4727 17.8936C20.1628 17.8714 19.9248 17.8271 19.7588 17.7607C19.5928 17.6943 19.4821 17.6003 19.4268 17.4785C19.3714 17.3568 19.3382 17.1908 19.3271 16.9805L19.1943 13.4443C19.1722 12.8577 19.2718 12.3376 19.4932 11.8838C19.7145 11.4189 20.0133 11.0205 20.3896 10.6885C20.777 10.3454 21.2142 10.0576 21.7012 9.8252C22.1992 9.59277 22.7139 9.40462 23.2451 9.26074C23.7874 9.10579 24.3242 9.00065 24.8555 8.94531C25.3867 8.87891 25.8737 8.8457 26.3164 8.8457C27.2682 8.8457 28.1702 8.95638 29.0225 9.17773C29.8857 9.38802 30.6383 9.69792 31.2803 10.1074C31.9222 10.5169 32.4258 11.0205 32.791 11.6182C33.1673 12.2048 33.3444 12.8799 33.3223 13.6436L32.8076 28.0537C32.7965 28.264 32.7633 28.43 32.708 28.5518C32.6637 28.6735 32.5641 28.7676 32.4092 28.834C32.2542 28.9004 32.0329 28.9447 31.7451 28.9668C31.4684 28.9889 31.0977 29 30.6328 29C30.2012 29 29.8525 28.9889 29.5869 28.9668C29.3324 28.9447 29.1331 28.9004 28.9893 28.834C28.8564 28.7676 28.7624 28.6735 28.707 28.5518C28.6628 28.43 28.6406 28.264 28.6406 28.0537L28.624 27.4727C28.3252 27.694 27.9987 27.9098 27.6445 28.1201C27.2904 28.3193 26.9141 28.502 26.5156 28.668C26.1172 28.8229 25.6911 28.9502 25.2373 29.0498C24.7946 29.1494 24.3298 29.1992 23.8428 29.1992C23.068 29.1992 22.3874 29.0941 21.8008 28.8838C21.2142 28.6624 20.7217 28.3691 20.3232 28.0039C19.9359 27.6276 19.6426 27.1904 19.4434 26.6924C19.2441 26.1833 19.139 25.641 19.1279 25.0654L19.1113 24.1689ZM23.6602 24.5674C23.6602 24.8994 23.71 25.1872 23.8096 25.4307C23.9092 25.6631 24.042 25.8568 24.208 26.0117C24.374 26.1556 24.5677 26.2663 24.7891 26.3438C25.0215 26.4102 25.2705 26.4434 25.5361 26.4434C26.1781 26.4434 26.7314 26.3382 27.1963 26.1279C27.6611 25.9176 28.0596 25.6742 28.3916 25.3975L28.2754 21.1309C27.6777 21.2305 27.152 21.3467 26.6982 21.4795C26.2445 21.6012 25.8405 21.7396 25.4863 21.8945C24.9329 22.1491 24.4902 22.4313 24.1582 22.7412C23.8262 23.04 23.6602 23.4329 23.6602 23.9199V24.5674ZM37.4229 24.1689C37.4229 23.9587 37.4505 23.7871 37.5059 23.6543C37.5612 23.5215 37.6663 23.4163 37.8213 23.3389C37.9873 23.2503 38.2197 23.1895 38.5186 23.1562C38.8174 23.123 39.2103 23.1064 39.6973 23.1064C40.1953 23.1064 40.5938 23.123 40.8926 23.1562C41.1914 23.1895 41.4183 23.2503 41.5732 23.3389C41.7393 23.4163 41.8499 23.527 41.9053 23.6709C41.9606 23.8037 41.9883 23.9753 41.9883 24.1855V24.999C41.9883 25.6742 42.182 26.1445 42.5693 26.4102C42.9678 26.6758 43.5267 26.8086 44.2461 26.8086C44.9655 26.8086 45.4635 26.6592 45.7402 26.3604C46.028 26.0505 46.1719 25.5413 46.1719 24.833V24.0195C46.1719 23.7428 46.1331 23.5049 46.0557 23.3057C45.9893 23.1064 45.8841 22.9349 45.7402 22.791C45.5964 22.6361 45.4082 22.5033 45.1758 22.3926C44.9544 22.2819 44.6943 22.1768 44.3955 22.0771L39.4814 20.3506C38.6956 20.0739 38.109 19.6201 37.7217 18.9893C37.3454 18.3584 37.1406 17.5837 37.1074 16.665L37.0078 13.7598C36.9746 12.8743 37.1572 12.1217 37.5557 11.502C37.9541 10.8822 38.4909 10.3786 39.166 9.99121C39.8411 9.59277 40.6159 9.30501 41.4902 9.12793C42.3646 8.93978 43.2611 8.8457 44.1797 8.8457C45.0762 8.8457 45.9505 8.92318 46.8027 9.07812C47.6549 9.23307 48.4076 9.49316 49.0605 9.8584C49.7246 10.2126 50.2448 10.6885 50.6211 11.2861C51.0085 11.8727 51.1855 12.6087 51.1523 13.4941L51.0195 16.9805C51.0085 17.1908 50.9697 17.3568 50.9033 17.4785C50.848 17.6003 50.7373 17.6943 50.5713 17.7607C50.4053 17.8271 50.1673 17.8714 49.8574 17.8936C49.5586 17.9157 49.1602 17.9268 48.6621 17.9268C48.1198 17.9268 47.6826 17.9157 47.3506 17.8936C47.0296 17.8714 46.7806 17.8271 46.6035 17.7607C46.4264 17.6943 46.3047 17.6003 46.2383 17.4785C46.1829 17.3568 46.1553 17.1908 46.1553 16.9805L46.0391 13.2119C46.028 12.8467 45.9727 12.5479 45.873 12.3154C45.7845 12.083 45.6572 11.9004 45.4912 11.7676C45.3363 11.6348 45.1481 11.5462 44.9268 11.502C44.7054 11.4577 44.4564 11.4355 44.1797 11.4355C43.903 11.4355 43.6484 11.4632 43.416 11.5186C43.1947 11.5628 43.001 11.6514 42.835 11.7842C42.6689 11.917 42.5361 12.0996 42.4365 12.332C42.348 12.5534 42.2982 12.8411 42.2871 13.1953L42.1709 16.7979C42.1488 17.3402 42.2594 17.7884 42.5029 18.1426C42.7575 18.4857 43.1725 18.7513 43.748 18.9395L47.9316 20.4336C48.4961 20.6328 48.9609 20.8486 49.3262 21.0811C49.6914 21.3135 49.9792 21.5846 50.1895 21.8945C50.4108 22.2044 50.5602 22.5586 50.6377 22.957C50.7152 23.3444 50.7428 23.8037 50.7207 24.335L50.6875 25.0986C50.6543 25.8623 50.4551 26.5042 50.0898 27.0244C49.7357 27.5446 49.2598 27.9707 48.6621 28.3027C48.0755 28.6237 47.4004 28.8561 46.6367 29C45.8841 29.1328 45.0928 29.1992 44.2627 29.1992C43.4548 29.1992 42.6413 29.1328 41.8223 29C41.0143 28.8783 40.2839 28.6569 39.6309 28.3359C38.9779 28.0039 38.4466 27.5612 38.0371 27.0078C37.6276 26.4434 37.4229 25.724 37.4229 24.8496V24.1689ZM54.9209 24.1689C54.9209 23.9587 54.9486 23.7871 55.0039 23.6543C55.0592 23.5215 55.1644 23.4163 55.3193 23.3389C55.4854 23.2503 55.7178 23.1895 56.0166 23.1562C56.3154 23.123 56.7083 23.1064 57.1953 23.1064C57.6934 23.1064 58.0918 23.123 58.3906 23.1562C58.6895 23.1895 58.9163 23.2503 59.0713 23.3389C59.2373 23.4163 59.348 23.527 59.4033 23.6709C59.4587 23.8037 59.4863 23.9753 59.4863 24.1855V24.999C59.4863 25.6742 59.68 26.1445 60.0674 26.4102C60.4658 26.6758 61.0247 26.8086 61.7441 26.8086C62.4635 26.8086 62.9616 26.6592 63.2383 26.3604C63.526 26.0505 63.6699 25.5413 63.6699 24.833V24.0195C63.6699 23.7428 63.6312 23.5049 63.5537 23.3057C63.4873 23.1064 63.3822 22.9349 63.2383 22.791C63.0944 22.6361 62.9062 22.5033 62.6738 22.3926C62.4525 22.2819 62.1924 22.1768 61.8936 22.0771L56.9795 20.3506C56.1937 20.0739 55.6071 19.6201 55.2197 18.9893C54.8434 18.3584 54.6387 17.5837 54.6055 16.665L54.5059 13.7598C54.4727 12.8743 54.6553 12.1217 55.0537 11.502C55.4521 10.8822 55.9889 10.3786 56.6641 9.99121C57.3392 9.59277 58.1139 9.30501 58.9883 9.12793C59.8626 8.93978 60.7591 8.8457 61.6777 8.8457C62.5742 8.8457 63.4486 8.92318 64.3008 9.07812C65.153 9.23307 65.9056 9.49316 66.5586 9.8584C67.2227 10.2126 67.7428 10.6885 68.1191 11.2861C68.5065 11.8727 68.6836 12.6087 68.6504 13.4941L68.5176 16.9805C68.5065 17.1908 68.4678 17.3568 68.4014 17.4785C68.346 17.6003 68.2354 17.6943 68.0693 17.7607C67.9033 17.8271 67.6654 17.8714 67.3555 17.8936C67.0566 17.9157 66.6582 17.9268 66.1602 17.9268C65.6178 17.9268 65.1807 17.9157 64.8486 17.8936C64.5277 17.8714 64.2786 17.8271 64.1016 17.7607C63.9245 17.6943 63.8027 17.6003 63.7363 17.4785C63.681 17.3568 63.6533 17.1908 63.6533 16.9805L63.5371 13.2119C63.526 12.8467 63.4707 12.5479 63.3711 12.3154C63.2826 12.083 63.1553 11.9004 62.9893 11.7676C62.8343 11.6348 62.6462 11.5462 62.4248 11.502C62.2035 11.4577 61.9544 11.4355 61.6777 11.4355C61.401 11.4355 61.1465 11.4632 60.9141 11.5186C60.6927 11.5628 60.499 11.6514 60.333 11.7842C60.167 11.917 60.0342 12.0996 59.9346 12.332C59.846 12.5534 59.7962 12.8411 59.7852 13.1953L59.6689 16.7979C59.6468 17.3402 59.7575 17.7884 60.001 18.1426C60.2555 18.4857 60.6706 18.7513 61.2461 18.9395L65.4297 20.4336C65.9941 20.6328 66.459 20.8486 66.8242 21.0811C67.1895 21.3135 67.4772 21.5846 67.6875 21.8945C67.9089 22.2044 68.0583 22.5586 68.1357 22.957C68.2132 23.3444 68.2409 23.8037 68.2188 24.335L68.1855 25.0986C68.1523 25.8623 67.9531 26.5042 67.5879 27.0244C67.2337 27.5446 66.7578 27.9707 66.1602 28.3027C65.5736 28.6237 64.8984 28.8561 64.1348 29C63.3822 29.1328 62.5908 29.1992 61.7607 29.1992C60.9528 29.1992 60.1393 29.1328 59.3203 29C58.5124 28.8783 57.7819 28.6569 57.1289 28.3359C56.4759 28.0039 55.9447 27.5612 55.5352 27.0078C55.1257 26.4434 54.9209 25.724 54.9209 24.8496V24.1689ZM70.8916 10.2568C70.8363 10.0244 70.8307 9.83073 70.875 9.67578C70.9193 9.52083 71.0355 9.39909 71.2236 9.31055C71.4118 9.21094 71.6829 9.14453 72.0371 9.11133C72.3913 9.06706 72.8506 9.04492 73.415 9.04492C74.0127 9.04492 74.4831 9.06706 74.8262 9.11133C75.1803 9.14453 75.446 9.2054 75.623 9.29395C75.8112 9.38249 75.9329 9.50423 75.9883 9.65918C76.0436 9.81413 76.0824 10.0133 76.1045 10.2568L77.1836 25.0156H77.582L80.0889 10.2568C80.1331 10.0244 80.194 9.83073 80.2715 9.67578C80.36 9.50977 80.4984 9.38249 80.6865 9.29395C80.8747 9.2054 81.1403 9.14453 81.4834 9.11133C81.8265 9.06706 82.2803 9.04492 82.8447 9.04492C83.4424 9.04492 83.9183 9.06706 84.2725 9.11133C84.6266 9.14453 84.8978 9.2054 85.0859 9.29395C85.2852 9.38249 85.4235 9.50977 85.501 9.67578C85.5785 9.83073 85.6449 10.0244 85.7002 10.2568L88.207 25.0156H88.6055L89.6846 10.2568C89.6956 10.0244 89.7344 9.83073 89.8008 9.67578C89.8672 9.50977 89.9889 9.38249 90.166 9.29395C90.3542 9.2054 90.6143 9.14453 90.9463 9.11133C91.2894 9.06706 91.7432 9.04492 92.3076 9.04492C92.8721 9.04492 93.3314 9.06706 93.6855 9.11133C94.0397 9.14453 94.3053 9.21094 94.4824 9.31055C94.6706 9.39909 94.7868 9.52083 94.8311 9.67578C94.8753 9.83073 94.8753 10.0244 94.8311 10.2568L91.7432 28.0537C91.6989 28.2529 91.6436 28.4189 91.5771 28.5518C91.5107 28.6735 91.4001 28.7676 91.2451 28.834C91.1012 28.9004 90.8965 28.9447 90.6309 28.9668C90.3652 28.9889 90.0166 29 89.585 29H87.8584C87.4268 29 87.0781 28.9889 86.8125 28.9668C86.5579 28.9447 86.3532 28.9004 86.1982 28.834C86.0544 28.7676 85.9437 28.6735 85.8662 28.5518C85.7998 28.4189 85.7445 28.2529 85.7002 28.0537L82.9111 14.5898H82.7617L79.9893 28.0537C79.9339 28.2529 79.873 28.4134 79.8066 28.5352C79.7402 28.6569 79.6296 28.7565 79.4746 28.834C79.3307 28.9004 79.126 28.9447 78.8604 28.9668C78.6058 28.9889 78.2627 29 77.8311 29H76.1377C75.7061 29 75.3574 28.9889 75.0918 28.9668C74.8372 28.9447 74.6325 28.9004 74.4775 28.834C74.3337 28.7565 74.2285 28.6569 74.1621 28.5352C74.0957 28.4134 74.0348 28.2529 73.9795 28.0537L70.8916 10.2568ZM97.2383 13.8926C97.2051 13.0072 97.3822 12.249 97.7695 11.6182C98.168 10.9762 98.6992 10.4505 99.3633 10.041C100.038 9.63151 100.813 9.33268 101.688 9.14453C102.562 8.94531 103.458 8.8457 104.377 8.8457C105.296 8.8457 106.192 8.94531 107.066 9.14453C107.941 9.33268 108.71 9.63151 109.374 10.041C110.049 10.4505 110.58 10.9762 110.968 11.6182C111.366 12.249 111.549 13.0072 111.516 13.8926L111.134 24.4014C111.101 25.3089 110.89 26.0726 110.503 26.6924C110.116 27.3011 109.612 27.7936 108.992 28.1699C108.372 28.5352 107.664 28.8008 106.867 28.9668C106.07 29.1217 105.246 29.1992 104.394 29.1992C103.53 29.1992 102.7 29.1217 101.903 28.9668C101.106 28.8008 100.393 28.5352 99.7617 28.1699C99.1419 27.7936 98.6383 27.3011 98.251 26.6924C97.8636 26.0837 97.6533 25.3255 97.6201 24.418L97.2383 13.8926ZM102.169 24.5508C102.158 24.9714 102.191 25.3255 102.269 25.6133C102.357 25.901 102.49 26.1335 102.667 26.3105C102.855 26.4876 103.088 26.6149 103.364 26.6924C103.652 26.7699 103.99 26.8086 104.377 26.8086C105.152 26.8086 105.716 26.6426 106.07 26.3105C106.436 25.9785 106.607 25.3864 106.585 24.5342L106.253 13.6104C106.242 13.1455 106.187 12.7692 106.087 12.4814C105.998 12.1937 105.871 11.9723 105.705 11.8174C105.539 11.6624 105.345 11.5628 105.124 11.5186C104.903 11.4632 104.654 11.4355 104.377 11.4355C104.1 11.4355 103.851 11.4632 103.63 11.5186C103.409 11.5628 103.215 11.6624 103.049 11.8174C102.883 11.9723 102.75 12.1937 102.65 12.4814C102.562 12.7692 102.512 13.1455 102.501 13.6104L102.169 24.5508ZM115.367 10.2568C115.367 10.0244 115.389 9.83073 115.434 9.67578C115.489 9.50977 115.6 9.38249 115.766 9.29395C115.943 9.2054 116.197 9.14453 116.529 9.11133C116.872 9.06706 117.326 9.04492 117.891 9.04492C118.455 9.04492 118.903 9.06706 119.235 9.11133C119.567 9.14453 119.822 9.2054 119.999 9.29395C120.176 9.38249 120.287 9.50977 120.331 9.67578C120.386 9.83073 120.414 10.0244 120.414 10.2568V11.2363C120.724 10.8932 121.039 10.5778 121.36 10.29C121.692 9.99121 122.035 9.73665 122.39 9.52637C122.755 9.31608 123.137 9.15007 123.535 9.02832C123.945 8.90658 124.382 8.8457 124.847 8.8457C125.378 8.8457 125.87 8.92318 126.324 9.07812C126.789 9.23307 127.182 9.4821 127.503 9.8252C127.835 10.1683 128.09 10.6165 128.267 11.1699C128.444 11.7122 128.521 12.3763 128.499 13.1621L128.383 16.9805C128.383 17.1908 128.35 17.3568 128.283 17.4785C128.228 17.6003 128.117 17.6943 127.951 17.7607C127.785 17.8271 127.547 17.8714 127.237 17.8936C126.938 17.9157 126.54 17.9268 126.042 17.9268C125.544 17.9268 125.146 17.9157 124.847 17.8936C124.548 17.8714 124.315 17.8271 124.149 17.7607C123.994 17.6943 123.889 17.6003 123.834 17.4785C123.79 17.3568 123.762 17.1908 123.751 16.9805L123.685 14.7061C123.674 14.2744 123.635 13.9147 123.568 13.627C123.502 13.3392 123.408 13.1123 123.286 12.9463C123.175 12.7803 123.043 12.6641 122.888 12.5977C122.733 12.5312 122.556 12.498 122.356 12.498C122.035 12.498 121.726 12.6198 121.427 12.8633C121.139 13.1068 120.879 13.3779 120.646 13.6768L120.231 28.0537C120.231 28.264 120.204 28.43 120.148 28.5518C120.093 28.6735 119.988 28.7676 119.833 28.834C119.678 28.9004 119.457 28.9447 119.169 28.9668C118.892 28.9889 118.521 29 118.057 29C117.592 29 117.215 28.9889 116.928 28.9668C116.651 28.9447 116.435 28.9004 116.28 28.834C116.136 28.7676 116.037 28.6735 115.981 28.5518C115.926 28.43 115.898 28.264 115.898 28.0537L115.367 10.2568ZM131.172 14.3408C131.15 13.5439 131.255 12.8079 131.487 12.1328C131.72 11.4577 132.057 10.8766 132.5 10.3896C132.954 9.90267 133.496 9.52637 134.127 9.26074C134.758 8.98405 135.461 8.8457 136.235 8.8457C136.7 8.8457 137.132 8.90658 137.53 9.02832C137.929 9.15007 138.294 9.30501 138.626 9.49316C138.958 9.67025 139.251 9.86947 139.506 10.0908C139.771 10.3122 139.998 10.5225 140.187 10.7217L140.004 1.59082C140.004 1.3584 140.026 1.16471 140.07 1.00977C140.126 0.84375 140.247 0.716471 140.436 0.62793C140.624 0.539388 140.895 0.478516 141.249 0.445312C141.614 0.401042 142.096 0.378906 142.693 0.378906C143.291 0.378906 143.767 0.401042 144.121 0.445312C144.486 0.478516 144.763 0.539388 144.951 0.62793C145.139 0.716471 145.256 0.84375 145.3 1.00977C145.355 1.16471 145.383 1.3584 145.383 1.59082L144.868 28.0537C144.868 28.264 144.84 28.43 144.785 28.5518C144.73 28.6735 144.625 28.7676 144.47 28.834C144.315 28.9004 144.093 28.9447 143.806 28.9668C143.529 28.9889 143.158 29 142.693 29C142.262 29 141.913 28.9889 141.647 28.9668C141.393 28.9447 141.194 28.9004 141.05 28.834C140.917 28.7676 140.823 28.6735 140.768 28.5518C140.723 28.43 140.701 28.264 140.701 28.0537V27.4229C140.469 27.6331 140.198 27.8434 139.888 28.0537C139.589 28.264 139.251 28.4577 138.875 28.6348C138.499 28.8008 138.089 28.9336 137.646 29.0332C137.204 29.1439 136.728 29.1992 136.219 29.1992C135.499 29.1992 134.852 29.0996 134.276 28.9004C133.712 28.7012 133.225 28.3857 132.815 27.9541C132.417 27.5114 132.102 26.9414 131.869 26.2441C131.637 25.5358 131.504 24.6836 131.471 23.6875L131.172 14.3408ZM136.053 23.6875C136.031 24.5065 136.219 25.1374 136.617 25.5801C137.027 26.0117 137.586 26.2275 138.294 26.2275C138.759 26.2275 139.174 26.1445 139.539 25.9785C139.915 25.8014 140.231 25.6022 140.485 25.3809L140.236 13.1289C139.971 12.9076 139.655 12.7139 139.29 12.5479C138.925 12.3708 138.554 12.2822 138.178 12.2822C137.934 12.2822 137.702 12.321 137.48 12.3984C137.259 12.4648 137.06 12.5811 136.883 12.7471C136.717 12.902 136.578 13.1123 136.468 13.3779C136.368 13.6436 136.313 13.9645 136.302 14.3408L136.053 23.6875Z" fill="#22414A"/>
</svg>
