<svg width="101" height="39" viewBox="0 0 101 39" fill="none" xmlns="http://www.w3.org/2000/svg">
<path d="M0.746582 2.68994C0.731934 2.30908 0.768555 2.00146 0.856445 1.76709C0.944336 1.53271 1.12744 1.34961 1.40576 1.21777C1.69873 1.08594 2.10889 0.998047 2.63623 0.954102C3.16357 0.895508 3.8667 0.866211 4.74561 0.866211H5.29492H10.3047C11.8135 0.866211 13.2124 1.00537 14.5015 1.28369C15.8052 1.54736 16.9331 1.97217 17.8853 2.55811C18.8374 3.12939 19.5771 3.86914 20.1045 4.77734C20.6465 5.6709 20.8955 6.75488 20.8516 8.0293L20.5659 18.4663C20.5366 19.3013 20.3535 20.1362 20.0166 20.9712C19.6943 21.8062 19.1523 22.5605 18.3906 23.2344C17.6436 23.8936 16.6475 24.4355 15.4023 24.8604C14.1719 25.2705 12.6411 25.4756 10.8101 25.4756H8.08545L7.77783 36.5059C7.77783 36.8428 7.74121 37.1138 7.66797 37.3188C7.60938 37.5093 7.47021 37.6558 7.25049 37.7583C7.04541 37.8608 6.74512 37.9268 6.34961 37.9561C5.9541 37.9854 5.41943 38 4.74561 38C4.07178 38 3.52979 37.9854 3.11963 37.9561C2.72412 37.9268 2.42383 37.8608 2.21875 37.7583C2.01367 37.6558 1.87451 37.5093 1.80127 37.3188C1.74268 37.1138 1.70605 36.8428 1.69141 36.5059L0.746582 2.68994ZM9.84326 21.894C10.5464 21.894 11.1323 21.8428 11.6011 21.7402C12.0698 21.623 12.436 21.4399 12.6997 21.1909C12.978 20.9419 13.1685 20.6123 13.271 20.2021C13.3882 19.7773 13.4395 19.2573 13.4248 18.6421L13.1172 7.32617C13.1025 6.75488 13.0439 6.30078 12.9414 5.96387C12.8389 5.6123 12.6558 5.34131 12.3921 5.15088C12.1284 4.96045 11.7695 4.83594 11.3154 4.77734C10.876 4.7041 10.3047 4.66748 9.60156 4.66748H8.67871L8.19531 21.894H9.84326ZM25.3999 13.1929C25.3999 12.8853 25.4292 12.6289 25.4878 12.4238C25.561 12.2041 25.7075 12.0356 25.9272 11.9185C26.1616 11.8013 26.4985 11.7207 26.938 11.6768C27.3921 11.6182 27.9927 11.5889 28.7397 11.5889C29.4868 11.5889 30.0801 11.6182 30.5195 11.6768C30.959 11.7207 31.2959 11.8013 31.5303 11.9185C31.7646 12.0356 31.9111 12.2041 31.9697 12.4238C32.043 12.6289 32.0796 12.8853 32.0796 13.1929V14.4893C32.4897 14.0352 32.9072 13.6177 33.332 13.2368C33.7715 12.8413 34.2256 12.5044 34.6943 12.2261C35.1777 11.9478 35.6831 11.728 36.2104 11.5669C36.7524 11.4058 37.3311 11.3252 37.9463 11.3252C38.6494 11.3252 39.3013 11.4277 39.9019 11.6328C40.5171 11.8379 41.0371 12.1675 41.4619 12.6216C41.9014 13.0757 42.2383 13.6689 42.4727 14.4014C42.707 15.1191 42.8096 15.998 42.7803 17.0381L42.6265 22.0918C42.6265 22.3701 42.5825 22.5898 42.4946 22.751C42.4214 22.9121 42.2749 23.0366 42.0552 23.1245C41.8354 23.2124 41.5205 23.271 41.1104 23.3003C40.7148 23.3296 40.1875 23.3442 39.5283 23.3442C38.8691 23.3442 38.3418 23.3296 37.9463 23.3003C37.5508 23.271 37.2432 23.2124 37.0234 23.1245C36.8184 23.0366 36.6792 22.9121 36.606 22.751C36.5474 22.5898 36.5107 22.3701 36.4961 22.0918L36.4082 19.0815C36.3936 18.5103 36.3423 18.0342 36.2544 17.6533C36.1665 17.2725 36.042 16.9722 35.8809 16.7524C35.7344 16.5327 35.5586 16.3789 35.3535 16.291C35.1484 16.2031 34.9141 16.1592 34.6504 16.1592C34.2256 16.1592 33.8154 16.3203 33.4199 16.6426C33.0391 16.9648 32.6948 17.3237 32.3872 17.7192L31.8379 36.7476C31.8379 37.0259 31.8013 37.2456 31.728 37.4067C31.6548 37.5679 31.5156 37.6924 31.3105 37.7803C31.1055 37.8682 30.8125 37.9268 30.4316 37.9561C30.0654 37.9854 29.5747 38 28.9595 38C28.3442 38 27.8462 37.9854 27.4653 37.9561C27.0991 37.9268 26.8135 37.8682 26.6084 37.7803C26.418 37.6924 26.2861 37.5679 26.2129 37.4067C26.1396 37.2456 26.103 37.0259 26.103 36.7476L25.3999 13.1929ZM50.0093 8.11719C49.2915 8.11719 48.7129 8.10254 48.2734 8.07324C47.8486 8.04395 47.519 7.98535 47.2847 7.89746C47.0649 7.80957 46.9111 7.68506 46.8232 7.52393C46.75 7.36279 46.7134 7.14307 46.7134 6.86475L46.4497 2.58008C46.4497 2.27246 46.479 2.01611 46.5376 1.81104C46.6108 1.59131 46.772 1.42285 47.021 1.30566C47.27 1.18848 47.6289 1.10791 48.0977 1.06396C48.5811 1.00537 49.2183 0.976074 50.0093 0.976074C50.8003 0.976074 51.4302 1.00537 51.8989 1.06396C52.3823 1.10791 52.7485 1.18848 52.9976 1.30566C53.2466 1.42285 53.4004 1.59131 53.459 1.81104C53.5322 2.01611 53.5688 2.27246 53.5688 2.58008L53.3271 6.86475C53.3271 7.14307 53.2832 7.36279 53.1953 7.52393C53.1221 7.68506 52.9683 7.80957 52.7339 7.89746C52.4995 7.98535 52.1626 8.04395 51.7231 8.07324C51.2983 8.10254 50.7271 8.11719 50.0093 8.11719ZM46.3179 13.1929C46.3179 12.8853 46.3472 12.6289 46.4058 12.4238C46.479 12.2041 46.6401 12.0356 46.8892 11.9185C47.1382 11.8013 47.4971 11.7207 47.9658 11.6768C48.4492 11.6182 49.0864 11.5889 49.8774 11.5889C50.6685 11.5889 51.2983 11.6182 51.7671 11.6768C52.2505 11.7207 52.6167 11.8013 52.8657 11.9185C53.1147 12.0356 53.2686 12.2041 53.3271 12.4238C53.4004 12.6289 53.437 12.8853 53.437 13.1929L52.7559 36.7476C52.7559 37.0259 52.7192 37.2456 52.646 37.4067C52.5728 37.5679 52.4336 37.6924 52.2285 37.7803C52.0234 37.8682 51.7305 37.9268 51.3496 37.9561C50.9834 37.9854 50.4927 38 49.8774 38C49.2622 38 48.7642 37.9854 48.3833 37.9561C48.0171 37.9268 47.7314 37.8682 47.5264 37.7803C47.3359 37.6924 47.2041 37.5679 47.1309 37.4067C47.0576 37.2456 47.021 37.0259 47.021 36.7476L46.3179 13.1929ZM58.5786 18.0049C58.5347 16.833 58.769 15.8296 59.2817 14.9946C59.8091 14.145 60.5122 13.4492 61.3911 12.9072C62.2847 12.3652 63.3101 11.9697 64.4673 11.7207C65.6245 11.457 66.811 11.3252 68.0269 11.3252C69.272 11.3252 70.4731 11.457 71.6304 11.7207C72.7876 11.9697 73.8057 12.3652 74.6846 12.9072C75.5635 13.4492 76.2593 14.145 76.772 14.9946C77.2847 15.8296 77.519 16.833 77.4751 18.0049L77.2554 24.8384C77.2407 25.1167 77.1895 25.3364 77.1016 25.4976C77.0137 25.6587 76.8525 25.7832 76.6182 25.8711C76.3838 25.959 76.0542 26.0176 75.6294 26.0469C75.2046 26.0762 74.6553 26.0908 73.9814 26.0908C73.293 26.0908 72.7363 26.0762 72.3115 26.0469C71.8867 26.0176 71.5571 25.959 71.3228 25.8711C71.0884 25.7832 70.9272 25.6587 70.8394 25.4976C70.7661 25.3364 70.7222 25.1167 70.7075 24.8384L70.5098 17.6313C70.4951 17.0161 70.4219 16.5181 70.29 16.1372C70.1729 15.7563 70.0044 15.4634 69.7847 15.2583C69.5649 15.0532 69.3086 14.9214 69.0156 14.8628C68.7227 14.7896 68.3931 14.7529 68.0269 14.7529C67.6606 14.7529 67.3311 14.7896 67.0381 14.8628C66.7451 14.9214 66.4888 15.0532 66.269 15.2583C66.0493 15.4634 65.8735 15.7563 65.7417 16.1372C65.6245 16.5181 65.5586 17.0161 65.5439 17.6313L65.1045 32.1113C65.0898 32.668 65.1338 33.1367 65.2363 33.5176C65.3535 33.8984 65.5293 34.2061 65.7637 34.4404C66.0127 34.6748 66.3203 34.8433 66.6865 34.9458C67.0674 35.0483 67.5142 35.0996 68.0269 35.0996C69.0522 35.0996 69.792 34.8945 70.2461 34.4844C70.7148 34.0742 70.9492 33.3491 70.9492 32.3091V31.6279C70.9492 31.3496 70.9858 31.1226 71.0591 30.9468C71.1323 30.7563 71.2715 30.6099 71.4766 30.5073C71.6963 30.3901 72.0039 30.3096 72.3994 30.2656C72.7949 30.2217 73.3223 30.1997 73.9814 30.1997C74.626 30.1997 75.146 30.2217 75.5415 30.2656C75.937 30.3096 76.2373 30.3901 76.4424 30.5073C76.6621 30.6099 76.8086 30.749 76.8818 30.9248C76.9551 31.1006 76.9917 31.3276 76.9917 31.606V32.1333C76.9917 33.2905 76.7354 34.2646 76.2227 35.0557C75.71 35.832 75.0361 36.4619 74.2012 36.9453C73.3662 37.4141 72.4141 37.751 71.3447 37.9561C70.2754 38.1611 69.1768 38.2637 68.0488 38.2637C66.9062 38.2637 65.8076 38.1611 64.7529 37.9561C63.6982 37.7363 62.7534 37.3848 61.9185 36.9014C61.0981 36.4033 60.4316 35.7515 59.9189 34.9458C59.4062 34.1401 59.1279 33.1367 59.084 31.9355L58.5786 18.0049ZM81.9136 18.0049C81.8696 16.833 82.1113 15.8296 82.6387 14.9946C83.1807 14.145 83.8984 13.4492 84.792 12.9072C85.7002 12.3652 86.7329 11.9697 87.8901 11.7207C89.062 11.457 90.2559 11.3252 91.4717 11.3252C92.6289 11.3252 93.7642 11.457 94.8774 11.7207C95.9907 11.9697 96.9795 12.3652 97.8438 12.9072C98.708 13.4492 99.3892 14.145 99.8872 14.9946C100.4 15.8296 100.634 16.833 100.59 18.0049L100.261 26.1128C100.246 26.3911 100.195 26.6108 100.107 26.772C100.034 26.9331 99.8872 27.0576 99.6675 27.1455C99.4478 27.2334 99.1328 27.292 98.7227 27.3213C98.3271 27.3506 97.7998 27.3652 97.1406 27.3652H88.5713L88.4395 32.1113C88.4248 32.668 88.4761 33.1367 88.5933 33.5176C88.7251 33.8984 88.9155 34.2061 89.1646 34.4404C89.4136 34.6748 89.7212 34.8433 90.0874 34.9458C90.4536 35.0483 90.8711 35.0996 91.3398 35.0996C92.2773 35.0996 92.9658 34.8945 93.4053 34.4844C93.8447 34.0742 94.0645 33.3491 94.0645 32.3091V31.6279C94.0645 31.3496 94.1011 31.1226 94.1743 30.9468C94.2476 30.7563 94.3867 30.6099 94.5918 30.5073C94.8115 30.3901 95.1191 30.3096 95.5146 30.2656C95.9102 30.2217 96.4375 30.1997 97.0967 30.1997C97.7412 30.1997 98.2612 30.2217 98.6567 30.2656C99.0522 30.3096 99.3525 30.3901 99.5576 30.5073C99.7773 30.6099 99.9165 30.749 99.9751 30.9248C100.048 31.1006 100.085 31.3276 100.085 31.606V32.5728C100.085 33.73 99.8359 34.6748 99.3379 35.4072C98.8398 36.1396 98.1807 36.7183 97.3604 37.1431C96.5547 37.5679 95.6245 37.8608 94.5698 38.022C93.5298 38.1831 92.4604 38.2637 91.3618 38.2637C90.2485 38.2637 89.1646 38.1611 88.1099 37.9561C87.0552 37.7363 86.1104 37.3848 85.2754 36.9014C84.4551 36.4033 83.7812 35.7515 83.2539 34.9458C82.7412 34.1401 82.4629 33.1367 82.4189 31.9355L81.9136 18.0049ZM94.0645 24.0693L93.8447 17.6313C93.8301 17.0161 93.7568 16.5181 93.625 16.1372C93.5078 15.7563 93.3394 15.4634 93.1196 15.2583C92.9146 15.0532 92.6655 14.9214 92.3726 14.8628C92.0942 14.7896 91.7939 14.7529 91.4717 14.7529C91.1055 14.7529 90.7686 14.7896 90.4609 14.8628C90.1533 14.9214 89.8823 15.0532 89.6479 15.2583C89.4282 15.4634 89.2451 15.7563 89.0986 16.1372C88.9668 16.5181 88.8936 17.0161 88.8789 17.6313L88.6812 24.0693H94.0645Z" fill="#22414A"/>
</svg>
