<svg width="269" height="48" viewBox="0 0 269 48" fill="none" xmlns="http://www.w3.org/2000/svg">
<path d="M0.746582 2.68994C0.731934 2.30908 0.768555 2.00146 0.856445 1.76709C0.944336 1.53271 1.12744 1.34961 1.40576 1.21777C1.69873 1.08594 2.10889 0.998047 2.63623 0.954102C3.16357 0.895508 3.8667 0.866211 4.74561 0.866211H5.29492H10.3047C11.8135 0.866211 13.2124 1.00537 14.5015 1.28369C15.8052 1.54736 16.9331 1.97217 17.8853 2.55811C18.8374 3.12939 19.5771 3.86914 20.1045 4.77734C20.6465 5.6709 20.8955 6.75488 20.8516 8.0293L20.5659 18.4663C20.5513 19.0229 20.4634 19.5869 20.3022 20.1582C20.1558 20.7295 19.9214 21.2788 19.5991 21.8062C19.2769 22.3188 18.8594 22.8022 18.3467 23.2563C17.8486 23.7104 17.2334 24.106 16.501 24.4429L20.6099 34.8799C20.8149 35.4072 20.9688 35.8394 21.0713 36.1763C21.1885 36.4985 21.2471 36.7769 21.2471 37.0112C21.2471 37.187 21.2178 37.3408 21.1592 37.4727C21.1006 37.5898 20.9688 37.6924 20.7637 37.7803C20.5732 37.8535 20.2949 37.9121 19.9287 37.9561C19.5625 37.9854 19.0791 38 18.4785 38C17.8926 38 17.4165 37.978 17.0503 37.9341C16.6987 37.8755 16.4058 37.7803 16.1714 37.6484C15.937 37.5166 15.7393 37.3408 15.5781 37.1211C15.4316 36.8867 15.2705 36.5938 15.0947 36.2422L10.5024 25.4756H8.08545L7.77783 36.5059C7.77783 36.8428 7.74121 37.1138 7.66797 37.3188C7.60938 37.5093 7.47021 37.6558 7.25049 37.7583C7.04541 37.8608 6.74512 37.9268 6.34961 37.9561C5.9541 37.9854 5.41943 38 4.74561 38C4.07178 38 3.52979 37.9854 3.11963 37.9561C2.72412 37.9268 2.42383 37.8608 2.21875 37.7583C2.01367 37.6558 1.87451 37.5093 1.80127 37.3188C1.74268 37.1138 1.70605 36.8428 1.69141 36.5059L0.746582 2.68994ZM9.84326 21.894C10.5464 21.894 11.1323 21.8428 11.6011 21.7402C12.0698 21.623 12.436 21.4399 12.6997 21.1909C12.978 20.9419 13.1685 20.6123 13.271 20.2021C13.3882 19.7773 13.4395 19.2573 13.4248 18.6421L13.1172 7.32617C13.1025 6.75488 13.0439 6.30078 12.9414 5.96387C12.8389 5.6123 12.6558 5.34131 12.3921 5.15088C12.1284 4.96045 11.7695 4.83594 11.3154 4.77734C10.876 4.7041 10.3047 4.66748 9.60156 4.66748H8.67871L8.19531 21.894H9.84326ZM25.4878 18.0049C25.4438 16.833 25.6855 15.8296 26.2129 14.9946C26.7549 14.145 27.4727 13.4492 28.3662 12.9072C29.2744 12.3652 30.3071 11.9697 31.4644 11.7207C32.6362 11.457 33.8301 11.3252 35.0459 11.3252C36.2031 11.3252 37.3384 11.457 38.4517 11.7207C39.5649 11.9697 40.5537 12.3652 41.418 12.9072C42.2822 13.4492 42.9634 14.145 43.4614 14.9946C43.9741 15.8296 44.2085 16.833 44.1646 18.0049L43.835 26.1128C43.8203 26.3911 43.769 26.6108 43.6812 26.772C43.6079 26.9331 43.4614 27.0576 43.2417 27.1455C43.022 27.2334 42.707 27.292 42.2969 27.3213C41.9014 27.3506 41.374 27.3652 40.7148 27.3652H32.1455L32.0137 32.1113C31.999 32.668 32.0503 33.1367 32.1675 33.5176C32.2993 33.8984 32.4897 34.2061 32.7388 34.4404C32.9878 34.6748 33.2954 34.8433 33.6616 34.9458C34.0278 35.0483 34.4453 35.0996 34.9141 35.0996C35.8516 35.0996 36.54 34.8945 36.9795 34.4844C37.4189 34.0742 37.6387 33.3491 37.6387 32.3091V31.6279C37.6387 31.3496 37.6753 31.1226 37.7485 30.9468C37.8218 30.7563 37.9609 30.6099 38.166 30.5073C38.3857 30.3901 38.6934 30.3096 39.0889 30.2656C39.4844 30.2217 40.0117 30.1997 40.6709 30.1997C41.3154 30.1997 41.8354 30.2217 42.231 30.2656C42.6265 30.3096 42.9268 30.3901 43.1318 30.5073C43.3516 30.6099 43.4907 30.749 43.5493 30.9248C43.6226 31.1006 43.6592 31.3276 43.6592 31.606V32.5728C43.6592 33.73 43.4102 34.6748 42.9121 35.4072C42.4141 36.1396 41.7549 36.7183 40.9346 37.1431C40.1289 37.5679 39.1987 37.8608 38.144 38.022C37.104 38.1831 36.0347 38.2637 34.936 38.2637C33.8228 38.2637 32.7388 38.1611 31.6841 37.9561C30.6294 37.7363 29.6846 37.3848 28.8496 36.9014C28.0293 36.4033 27.3555 35.7515 26.8281 34.9458C26.3154 34.1401 26.0371 33.1367 25.9932 31.9355L25.4878 18.0049ZM37.6387 24.0693L37.4189 17.6313C37.4043 17.0161 37.3311 16.5181 37.1992 16.1372C37.082 15.7563 36.9136 15.4634 36.6938 15.2583C36.4888 15.0532 36.2397 14.9214 35.9468 14.8628C35.6685 14.7896 35.3682 14.7529 35.0459 14.7529C34.6797 14.7529 34.3428 14.7896 34.0352 14.8628C33.7275 14.9214 33.4565 15.0532 33.2222 15.2583C33.0024 15.4634 32.8193 15.7563 32.6729 16.1372C32.541 16.5181 32.4678 17.0161 32.4531 17.6313L32.2554 24.0693H37.6387ZM48.8228 18.5981C48.7935 17.5435 48.9326 16.5693 49.2402 15.6758C49.5479 14.7822 49.9946 14.0132 50.5806 13.3687C51.1812 12.7241 51.8989 12.2261 52.7339 11.8745C53.5688 11.5083 54.499 11.3252 55.5244 11.3252C56.1543 11.3252 56.7402 11.4131 57.2822 11.5889C57.8389 11.75 58.3369 11.9624 58.7764 12.2261C59.2158 12.4751 59.604 12.7534 59.9409 13.061C60.2925 13.354 60.5928 13.6396 60.8418 13.918V13.1929C60.8271 12.8853 60.8491 12.6289 60.9077 12.4238C60.981 12.2041 61.1348 12.0356 61.3691 11.9185C61.6035 11.8013 61.9404 11.7207 62.3799 11.6768C62.834 11.6182 63.4346 11.5889 64.1816 11.5889C64.9287 11.5889 65.522 11.6182 65.9614 11.6768C66.4155 11.7207 66.7598 11.8013 66.9941 11.9185C67.2285 12.0356 67.375 12.2041 67.4336 12.4238C67.5068 12.6289 67.5361 12.8853 67.5215 13.1929L66.8184 45.9761C66.8184 46.2544 66.7817 46.4741 66.7085 46.6353C66.6353 46.7964 66.4961 46.9209 66.291 47.0088C66.0859 47.0967 65.8003 47.1553 65.4341 47.1846C65.0679 47.2139 64.5771 47.2285 63.9619 47.2285C63.3467 47.2285 62.8486 47.2139 62.4678 47.1846C62.1016 47.1553 61.8159 47.0967 61.6108 47.0088C61.4204 46.9209 61.2886 46.7964 61.2153 46.6353C61.1567 46.4741 61.1274 46.2544 61.1274 45.9761L60.9077 36.374C60.2778 36.8574 59.5161 37.2969 58.6226 37.6924C57.729 38.0732 56.689 38.2637 55.5024 38.2637C54.5503 38.2637 53.6934 38.1318 52.9316 37.8682C52.1846 37.6045 51.54 37.187 50.998 36.6157C50.4707 36.0298 50.0532 35.2754 49.7456 34.3525C49.438 33.415 49.2622 32.2871 49.2183 30.9688L48.8228 18.5981ZM55.2827 30.9688C55.2534 32.0527 55.5024 32.8877 56.0298 33.4736C56.5718 34.0449 57.3115 34.3306 58.249 34.3306C58.7617 34.3306 59.2378 34.25 59.6772 34.0889C60.1167 33.9131 60.5049 33.7007 60.8418 33.4517L60.4683 16.7305C60.1313 16.4814 59.7578 16.2764 59.3477 16.1152C58.9375 15.9541 58.52 15.8735 58.0952 15.8735C57.7729 15.8735 57.4653 15.9248 57.1724 16.0273C56.8794 16.1152 56.6157 16.269 56.3813 16.4888C56.1616 16.6938 55.9785 16.9722 55.832 17.3237C55.7002 17.6753 55.627 18.1001 55.6123 18.5981L55.2827 30.9688ZM72.2896 13.1929C72.2896 12.8853 72.3188 12.6289 72.3774 12.4238C72.4507 12.2041 72.6118 12.0356 72.8608 11.9185C73.1099 11.8013 73.4688 11.7207 73.9375 11.6768C74.4209 11.6182 75.0581 11.5889 75.8491 11.5889C76.6401 11.5889 77.27 11.6182 77.7388 11.6768C78.2222 11.7207 78.5884 11.8013 78.8374 11.9185C79.0864 12.0356 79.2402 12.2041 79.2988 12.4238C79.3721 12.6289 79.4087 12.8853 79.4087 13.1929L78.9033 31.1226C78.8887 31.7671 78.9619 32.2944 79.123 32.7046C79.2842 33.1147 79.4966 33.4443 79.7603 33.6934C80.0386 33.9277 80.3462 34.0962 80.6831 34.1987C81.02 34.2866 81.3643 34.3306 81.7158 34.3306C82.3457 34.3306 82.9097 34.1987 83.4077 33.9351C83.9058 33.6567 84.3452 33.3491 84.7261 33.0122L84.1548 13.1929C84.1548 12.8853 84.1841 12.6289 84.2427 12.4238C84.3159 12.2041 84.4771 12.0356 84.7261 11.9185C84.9751 11.8013 85.334 11.7207 85.8027 11.6768C86.2861 11.6182 86.9233 11.5889 87.7144 11.5889C88.5054 11.5889 89.1353 11.6182 89.604 11.6768C90.0874 11.7207 90.4536 11.8013 90.7026 11.9185C90.9517 12.0356 91.1055 12.2041 91.1641 12.4238C91.2373 12.6289 91.2739 12.8853 91.2739 13.1929L90.5928 36.7476C90.5928 37.0259 90.5562 37.2456 90.4829 37.4067C90.4097 37.5679 90.2705 37.6924 90.0654 37.7803C89.8604 37.8682 89.5674 37.9268 89.1865 37.9561C88.8203 37.9854 88.3296 38 87.7144 38C87.1431 38 86.6816 37.9854 86.3301 37.9561C85.9932 37.9268 85.7295 37.8682 85.5391 37.7803C85.3633 37.6924 85.2388 37.5679 85.1655 37.4067C85.1069 37.2456 85.0776 37.0259 85.0776 36.7476L85.0337 35.7148C84.7114 36.0078 84.3452 36.3081 83.9351 36.6157C83.5249 36.9233 83.0562 37.2017 82.5288 37.4507C82.0161 37.6851 81.4448 37.8755 80.8149 38.022C80.1997 38.1831 79.5186 38.2637 78.7715 38.2637C76.9551 38.2637 75.5269 37.7437 74.4868 36.7036C73.4468 35.6636 72.8975 34.1328 72.8389 32.1113L72.2896 13.1929ZM100.283 8.11719C99.5649 8.11719 98.9863 8.10254 98.5469 8.07324C98.1221 8.04395 97.7925 7.98535 97.5581 7.89746C97.3384 7.80957 97.1846 7.68506 97.0967 7.52393C97.0234 7.36279 96.9868 7.14307 96.9868 6.86475L96.7231 2.58008C96.7231 2.27246 96.7524 2.01611 96.811 1.81104C96.8843 1.59131 97.0454 1.42285 97.2944 1.30566C97.5435 1.18848 97.9023 1.10791 98.3711 1.06396C98.8545 1.00537 99.4917 0.976074 100.283 0.976074C101.074 0.976074 101.704 1.00537 102.172 1.06396C102.656 1.10791 103.022 1.18848 103.271 1.30566C103.52 1.42285 103.674 1.59131 103.732 1.81104C103.806 2.01611 103.842 2.27246 103.842 2.58008L103.601 6.86475C103.601 7.14307 103.557 7.36279 103.469 7.52393C103.396 7.68506 103.242 7.80957 103.007 7.89746C102.773 7.98535 102.436 8.04395 101.997 8.07324C101.572 8.10254 101 8.11719 100.283 8.11719ZM96.5913 13.1929C96.5913 12.8853 96.6206 12.6289 96.6792 12.4238C96.7524 12.2041 96.9136 12.0356 97.1626 11.9185C97.4116 11.8013 97.7705 11.7207 98.2393 11.6768C98.7227 11.6182 99.3599 11.5889 100.151 11.5889C100.942 11.5889 101.572 11.6182 102.041 11.6768C102.524 11.7207 102.89 11.8013 103.139 11.9185C103.388 12.0356 103.542 12.2041 103.601 12.4238C103.674 12.6289 103.71 12.8853 103.71 13.1929L103.029 36.7476C103.029 37.0259 102.993 37.2456 102.919 37.4067C102.846 37.5679 102.707 37.6924 102.502 37.7803C102.297 37.8682 102.004 37.9268 101.623 37.9561C101.257 37.9854 100.766 38 100.151 38C99.5356 38 99.0376 37.9854 98.6567 37.9561C98.2905 37.9268 98.0049 37.8682 97.7998 37.7803C97.6094 37.6924 97.4775 37.5679 97.4043 37.4067C97.3311 37.2456 97.2944 37.0259 97.2944 36.7476L96.5913 13.1929ZM109.072 13.1929C109.072 12.8853 109.101 12.6289 109.16 12.4238C109.233 12.2041 109.379 12.0356 109.599 11.9185C109.833 11.8013 110.17 11.7207 110.61 11.6768C111.064 11.6182 111.665 11.5889 112.412 11.5889C113.159 11.5889 113.752 11.6182 114.191 11.6768C114.631 11.7207 114.968 11.8013 115.202 11.9185C115.437 12.0356 115.583 12.2041 115.642 12.4238C115.715 12.6289 115.751 12.8853 115.751 13.1929V14.4893C116.162 14.0352 116.579 13.6177 117.004 13.2368C117.443 12.8413 117.897 12.5044 118.366 12.2261C118.85 11.9478 119.355 11.728 119.882 11.5669C120.424 11.4058 121.003 11.3252 121.618 11.3252C122.321 11.3252 122.973 11.4277 123.574 11.6328C124.189 11.8379 124.709 12.1675 125.134 12.6216C125.573 13.0757 125.91 13.6689 126.145 14.4014C126.379 15.1191 126.481 15.998 126.452 17.0381L126.298 22.0918C126.298 22.3701 126.254 22.5898 126.167 22.751C126.093 22.9121 125.947 23.0366 125.727 23.1245C125.507 23.2124 125.192 23.271 124.782 23.3003C124.387 23.3296 123.859 23.3442 123.2 23.3442C122.541 23.3442 122.014 23.3296 121.618 23.3003C121.223 23.271 120.915 23.2124 120.695 23.1245C120.49 23.0366 120.351 22.9121 120.278 22.751C120.219 22.5898 120.183 22.3701 120.168 22.0918L120.08 19.0815C120.065 18.5103 120.014 18.0342 119.926 17.6533C119.838 17.2725 119.714 16.9722 119.553 16.7524C119.406 16.5327 119.23 16.3789 119.025 16.291C118.82 16.2031 118.586 16.1592 118.322 16.1592C117.897 16.1592 117.487 16.3203 117.092 16.6426C116.711 16.9648 116.367 17.3237 116.059 17.7192L115.51 36.7476C115.51 37.0259 115.473 37.2456 115.4 37.4067C115.327 37.5679 115.188 37.6924 114.982 37.7803C114.777 37.8682 114.484 37.9268 114.104 37.9561C113.737 37.9854 113.247 38 112.631 38C112.016 38 111.518 37.9854 111.137 37.9561C110.771 37.9268 110.485 37.8682 110.28 37.7803C110.09 37.6924 109.958 37.5679 109.885 37.4067C109.812 37.2456 109.775 37.0259 109.775 36.7476L109.072 13.1929ZM129.77 18.0049C129.726 16.833 129.968 15.8296 130.495 14.9946C131.037 14.145 131.755 13.4492 132.648 12.9072C133.557 12.3652 134.589 11.9697 135.747 11.7207C136.918 11.457 138.112 11.3252 139.328 11.3252C140.485 11.3252 141.621 11.457 142.734 11.7207C143.847 11.9697 144.836 12.3652 145.7 12.9072C146.564 13.4492 147.246 14.145 147.744 14.9946C148.256 15.8296 148.491 16.833 148.447 18.0049L148.117 26.1128C148.103 26.3911 148.051 26.6108 147.963 26.772C147.89 26.9331 147.744 27.0576 147.524 27.1455C147.304 27.2334 146.989 27.292 146.579 27.3213C146.184 27.3506 145.656 27.3652 144.997 27.3652H136.428L136.296 32.1113C136.281 32.668 136.333 33.1367 136.45 33.5176C136.582 33.8984 136.772 34.2061 137.021 34.4404C137.27 34.6748 137.578 34.8433 137.944 34.9458C138.31 35.0483 138.728 35.0996 139.196 35.0996C140.134 35.0996 140.822 34.8945 141.262 34.4844C141.701 34.0742 141.921 33.3491 141.921 32.3091V31.6279C141.921 31.3496 141.958 31.1226 142.031 30.9468C142.104 30.7563 142.243 30.6099 142.448 30.5073C142.668 30.3901 142.976 30.3096 143.371 30.2656C143.767 30.2217 144.294 30.1997 144.953 30.1997C145.598 30.1997 146.118 30.2217 146.513 30.2656C146.909 30.3096 147.209 30.3901 147.414 30.5073C147.634 30.6099 147.773 30.749 147.832 30.9248C147.905 31.1006 147.941 31.3276 147.941 31.606V32.5728C147.941 33.73 147.692 34.6748 147.194 35.4072C146.696 36.1396 146.037 36.7183 145.217 37.1431C144.411 37.5679 143.481 37.8608 142.426 38.022C141.386 38.1831 140.317 38.2637 139.218 38.2637C138.105 38.2637 137.021 38.1611 135.966 37.9561C134.912 37.7363 133.967 37.3848 133.132 36.9014C132.312 36.4033 131.638 35.7515 131.11 34.9458C130.598 34.1401 130.319 33.1367 130.275 31.9355L129.77 18.0049ZM141.921 24.0693L141.701 17.6313C141.687 17.0161 141.613 16.5181 141.481 16.1372C141.364 15.7563 141.196 15.4634 140.976 15.2583C140.771 15.0532 140.522 14.9214 140.229 14.8628C139.951 14.7896 139.65 14.7529 139.328 14.7529C138.962 14.7529 138.625 14.7896 138.317 14.8628C138.01 14.9214 137.739 15.0532 137.504 15.2583C137.285 15.4634 137.102 15.7563 136.955 16.1372C136.823 16.5181 136.75 17.0161 136.735 17.6313L136.538 24.0693H141.921ZM153.325 13.1929C153.325 12.8853 153.354 12.6289 153.413 12.4238C153.486 12.2041 153.632 12.0356 153.852 11.9185C154.086 11.8013 154.423 11.7207 154.863 11.6768C155.317 11.6182 155.917 11.5889 156.665 11.5889C157.412 11.5889 158.005 11.6182 158.444 11.6768C158.898 11.7207 159.235 11.8013 159.455 11.9185C159.689 12.0356 159.836 12.2041 159.895 12.4238C159.968 12.6289 160.004 12.8853 160.004 13.1929L159.96 14.5332C160.371 14.0645 160.788 13.6396 161.213 13.2588C161.652 12.8633 162.114 12.5264 162.597 12.248C163.095 11.9551 163.623 11.728 164.179 11.5669C164.736 11.4058 165.344 11.3252 166.003 11.3252C167.248 11.3252 168.354 11.6328 169.321 12.248C170.288 12.8633 171.02 13.7422 171.518 14.8848C171.958 14.3721 172.397 13.9033 172.836 13.4785C173.291 13.0391 173.774 12.6582 174.287 12.3359C174.799 12.0137 175.349 11.7646 175.935 11.5889C176.521 11.4131 177.165 11.3252 177.868 11.3252C178.762 11.3252 179.589 11.4863 180.351 11.8086C181.127 12.1309 181.787 12.5996 182.329 13.2148C182.885 13.8301 183.31 14.5771 183.603 15.4561C183.911 16.335 184.05 17.3311 184.021 18.4443L183.493 36.7476C183.493 37.0259 183.457 37.2456 183.383 37.4067C183.31 37.5679 183.171 37.6924 182.966 37.7803C182.761 37.8682 182.468 37.9268 182.087 37.9561C181.721 37.9854 181.23 38 180.615 38C180 38 179.501 37.9854 179.121 37.9561C178.754 37.9268 178.469 37.8682 178.264 37.7803C178.073 37.6924 177.941 37.5679 177.868 37.4067C177.795 37.2456 177.758 37.0259 177.758 36.7476L177.253 19.0815C177.238 18.5103 177.165 18.0342 177.033 17.6533C176.901 17.2725 176.726 16.9722 176.506 16.7524C176.286 16.5327 176.022 16.3789 175.715 16.291C175.422 16.2031 175.1 16.1592 174.748 16.1592C174.191 16.1592 173.693 16.3203 173.254 16.6426C172.829 16.9502 172.463 17.3237 172.155 17.7632V18.4443L171.628 36.7476C171.628 37.0259 171.591 37.2456 171.518 37.4067C171.445 37.5679 171.306 37.6924 171.101 37.7803C170.896 37.8682 170.603 37.9268 170.222 37.9561C169.855 37.9854 169.365 38 168.75 38C168.134 38 167.636 37.9854 167.255 37.9561C166.889 37.9268 166.604 37.8682 166.398 37.7803C166.208 37.6924 166.076 37.5679 166.003 37.4067C165.93 37.2456 165.893 37.0259 165.893 36.7476L165.388 19.0815C165.373 18.5103 165.3 18.0342 165.168 17.6533C165.036 17.2725 164.86 16.9722 164.641 16.7524C164.421 16.5327 164.157 16.3789 163.85 16.291C163.557 16.2031 163.234 16.1592 162.883 16.1592C162.326 16.1592 161.835 16.313 161.411 16.6206C160.986 16.9282 160.62 17.2944 160.312 17.7192L159.763 36.7476C159.763 37.0259 159.726 37.2456 159.653 37.4067C159.58 37.5679 159.44 37.6924 159.235 37.7803C159.03 37.8682 158.737 37.9268 158.356 37.9561C157.99 37.9854 157.5 38 156.884 38C156.269 38 155.771 37.9854 155.39 37.9561C155.024 37.9268 154.738 37.8682 154.533 37.7803C154.343 37.6924 154.211 37.5679 154.138 37.4067C154.064 37.2456 154.028 37.0259 154.028 36.7476L153.325 13.1929ZM188.701 18.0049C188.657 16.833 188.898 15.8296 189.426 14.9946C189.968 14.145 190.686 13.4492 191.579 12.9072C192.487 12.3652 193.52 11.9697 194.677 11.7207C195.849 11.457 197.043 11.3252 198.259 11.3252C199.416 11.3252 200.551 11.457 201.665 11.7207C202.778 11.9697 203.767 12.3652 204.631 12.9072C205.495 13.4492 206.176 14.145 206.674 14.9946C207.187 15.8296 207.421 16.833 207.377 18.0049L207.048 26.1128C207.033 26.3911 206.982 26.6108 206.894 26.772C206.821 26.9331 206.674 27.0576 206.455 27.1455C206.235 27.2334 205.92 27.292 205.51 27.3213C205.114 27.3506 204.587 27.3652 203.928 27.3652H195.358L195.227 32.1113C195.212 32.668 195.263 33.1367 195.38 33.5176C195.512 33.8984 195.703 34.2061 195.952 34.4404C196.201 34.6748 196.508 34.8433 196.875 34.9458C197.241 35.0483 197.658 35.0996 198.127 35.0996C199.064 35.0996 199.753 34.8945 200.192 34.4844C200.632 34.0742 200.852 33.3491 200.852 32.3091V31.6279C200.852 31.3496 200.888 31.1226 200.961 30.9468C201.035 30.7563 201.174 30.6099 201.379 30.5073C201.599 30.3901 201.906 30.3096 202.302 30.2656C202.697 30.2217 203.225 30.1997 203.884 30.1997C204.528 30.1997 205.048 30.2217 205.444 30.2656C205.839 30.3096 206.14 30.3901 206.345 30.5073C206.564 30.6099 206.704 30.749 206.762 30.9248C206.835 31.1006 206.872 31.3276 206.872 31.606V32.5728C206.872 33.73 206.623 34.6748 206.125 35.4072C205.627 36.1396 204.968 36.7183 204.147 37.1431C203.342 37.5679 202.412 37.8608 201.357 38.022C200.317 38.1831 199.248 38.2637 198.149 38.2637C197.036 38.2637 195.952 38.1611 194.897 37.9561C193.842 37.7363 192.897 37.3848 192.062 36.9014C191.242 36.4033 190.568 35.7515 190.041 34.9458C189.528 34.1401 189.25 33.1367 189.206 31.9355L188.701 18.0049ZM200.852 24.0693L200.632 17.6313C200.617 17.0161 200.544 16.5181 200.412 16.1372C200.295 15.7563 200.126 15.4634 199.907 15.2583C199.702 15.0532 199.453 14.9214 199.16 14.8628C198.881 14.7896 198.581 14.7529 198.259 14.7529C197.893 14.7529 197.556 14.7896 197.248 14.8628C196.94 14.9214 196.669 15.0532 196.435 15.2583C196.215 15.4634 196.032 15.7563 195.886 16.1372C195.754 16.5181 195.681 17.0161 195.666 17.6313L195.468 24.0693H200.852ZM212.255 13.1929C212.255 12.8853 212.285 12.6289 212.343 12.4238C212.417 12.2041 212.563 12.0356 212.783 11.9185C213.017 11.8013 213.354 11.7207 213.793 11.6768C214.248 11.6182 214.848 11.5889 215.595 11.5889C216.342 11.5889 216.936 11.6182 217.375 11.6768C217.829 11.7207 218.166 11.8013 218.386 11.9185C218.62 12.0356 218.767 12.2041 218.825 12.4238C218.898 12.6289 218.935 12.8853 218.935 13.1929L218.891 14.5332C219.301 14.0645 219.719 13.6396 220.144 13.2588C220.583 12.8633 221.044 12.5264 221.528 12.248C222.026 11.9551 222.553 11.728 223.11 11.5669C223.667 11.4058 224.274 11.3252 224.934 11.3252C225.827 11.3252 226.655 11.4863 227.417 11.8086C228.193 12.1309 228.852 12.5996 229.394 13.2148C229.951 13.8301 230.375 14.5771 230.668 15.4561C230.976 16.335 231.115 17.3311 231.086 18.4443L230.559 36.7476C230.559 37.0259 230.522 37.2456 230.449 37.4067C230.375 37.5679 230.236 37.6924 230.031 37.7803C229.826 37.8682 229.533 37.9268 229.152 37.9561C228.786 37.9854 228.295 38 227.68 38C227.065 38 226.567 37.9854 226.186 37.9561C225.82 37.9268 225.534 37.8682 225.329 37.7803C225.139 37.6924 225.007 37.5679 224.934 37.4067C224.86 37.2456 224.824 37.0259 224.824 36.7476L224.318 19.0815C224.304 18.5103 224.23 18.0342 224.099 17.6533C223.967 17.2725 223.791 16.9722 223.571 16.7524C223.352 16.5327 223.088 16.3789 222.78 16.291C222.487 16.2031 222.165 16.1592 221.813 16.1592C221.257 16.1592 220.766 16.313 220.341 16.6206C219.917 16.9282 219.55 17.2944 219.243 17.7192L218.693 36.7476C218.693 37.0259 218.657 37.2456 218.583 37.4067C218.51 37.5679 218.371 37.6924 218.166 37.7803C217.961 37.8682 217.668 37.9268 217.287 37.9561C216.921 37.9854 216.43 38 215.815 38C215.2 38 214.702 37.9854 214.321 37.9561C213.955 37.9268 213.669 37.8682 213.464 37.7803C213.273 37.6924 213.142 37.5679 213.068 37.4067C212.995 37.2456 212.958 37.0259 212.958 36.7476L212.255 13.1929ZM237.019 17.6533H235.788C235.407 17.6533 235.107 17.624 234.887 17.5654C234.682 17.5068 234.528 17.397 234.426 17.2358C234.323 17.0747 234.257 16.855 234.228 16.5767C234.213 16.2837 234.206 15.9102 234.206 15.4561C234.206 15.0459 234.213 14.7163 234.228 14.4673C234.257 14.2036 234.323 13.9985 234.426 13.8521C234.528 13.7056 234.682 13.6104 234.887 13.5664C235.107 13.5078 235.407 13.4785 235.788 13.4785H236.909L236.777 7.34814C236.777 7.04053 236.806 6.78418 236.865 6.5791C236.938 6.35938 237.099 6.19092 237.348 6.07373C237.597 5.95654 237.956 5.87598 238.425 5.83203C238.908 5.77344 239.545 5.74414 240.336 5.74414C241.127 5.74414 241.757 5.77344 242.226 5.83203C242.709 5.87598 243.076 5.95654 243.325 6.07373C243.574 6.19092 243.728 6.35938 243.786 6.5791C243.859 6.78418 243.896 7.04053 243.896 7.34814L243.742 13.4785H244.885C245.266 13.4785 245.559 13.5078 245.764 13.5664C245.983 13.6104 246.145 13.7056 246.247 13.8521C246.35 13.9985 246.408 14.2036 246.423 14.4673C246.452 14.7163 246.467 15.0459 246.467 15.4561C246.467 15.9102 246.452 16.2837 246.423 16.5767C246.408 16.855 246.35 17.0747 246.247 17.2358C246.145 17.397 245.983 17.5068 245.764 17.5654C245.559 17.624 245.266 17.6533 244.885 17.6533H243.654L243.215 36.7476C243.215 37.0259 243.178 37.2456 243.105 37.4067C243.032 37.5679 242.893 37.6924 242.688 37.7803C242.482 37.8682 242.189 37.9268 241.809 37.9561C241.442 37.9854 240.952 38 240.336 38C239.721 38 239.223 37.9854 238.842 37.9561C238.476 37.9268 238.19 37.8682 237.985 37.7803C237.795 37.6924 237.663 37.5679 237.59 37.4067C237.517 37.2456 237.48 37.0259 237.48 36.7476L237.019 17.6533ZM250.114 31.606C250.114 31.3276 250.151 31.1006 250.224 30.9248C250.297 30.749 250.437 30.6099 250.642 30.5073C250.861 30.3901 251.169 30.3096 251.564 30.2656C251.96 30.2217 252.48 30.1997 253.125 30.1997C253.784 30.1997 254.311 30.2217 254.707 30.2656C255.102 30.3096 255.402 30.3901 255.607 30.5073C255.827 30.6099 255.974 30.7563 256.047 30.9468C256.12 31.1226 256.157 31.3496 256.157 31.6279V32.7046C256.157 33.5981 256.413 34.2207 256.926 34.5723C257.453 34.9238 258.193 35.0996 259.145 35.0996C260.097 35.0996 260.756 34.9019 261.123 34.5063C261.503 34.0962 261.694 33.4224 261.694 32.4849V31.4082C261.694 31.042 261.643 30.7271 261.54 30.4634C261.452 30.1997 261.313 29.9727 261.123 29.7822C260.932 29.5771 260.683 29.4014 260.375 29.2549C260.083 29.1084 259.738 28.9692 259.343 28.8374L252.839 26.5522C251.799 26.186 251.022 25.5854 250.51 24.7505C250.012 23.9155 249.741 22.8901 249.697 21.6743L249.565 17.8291C249.521 16.6572 249.763 15.6611 250.29 14.8408C250.817 14.0205 251.528 13.354 252.421 12.8413C253.315 12.314 254.34 11.9331 255.498 11.6987C256.655 11.4497 257.841 11.3252 259.057 11.3252C260.244 11.3252 261.401 11.4277 262.529 11.6328C263.657 11.8379 264.653 12.1821 265.517 12.6655C266.396 13.1343 267.084 13.7642 267.583 14.5552C268.095 15.3315 268.33 16.3057 268.286 17.4775L268.11 22.0918C268.095 22.3701 268.044 22.5898 267.956 22.751C267.883 22.9121 267.736 23.0366 267.517 23.1245C267.297 23.2124 266.982 23.271 266.572 23.3003C266.176 23.3296 265.649 23.3442 264.99 23.3442C264.272 23.3442 263.693 23.3296 263.254 23.3003C262.829 23.271 262.5 23.2124 262.265 23.1245C262.031 23.0366 261.87 22.9121 261.782 22.751C261.708 22.5898 261.672 22.3701 261.672 22.0918L261.518 17.104C261.503 16.6206 261.43 16.2251 261.298 15.9175C261.181 15.6099 261.013 15.3682 260.793 15.1924C260.588 15.0166 260.339 14.8994 260.046 14.8408C259.753 14.7822 259.423 14.7529 259.057 14.7529C258.691 14.7529 258.354 14.7896 258.046 14.8628C257.753 14.9214 257.497 15.0386 257.277 15.2144C257.058 15.3901 256.882 15.6318 256.75 15.9395C256.633 16.2324 256.567 16.6133 256.552 17.082L256.398 21.8501C256.369 22.5679 256.516 23.1611 256.838 23.6299C257.175 24.084 257.724 24.4355 258.486 24.6846L264.023 26.6621C264.77 26.9258 265.385 27.2114 265.869 27.519C266.352 27.8267 266.733 28.1855 267.011 28.5957C267.304 29.0059 267.502 29.4746 267.604 30.002C267.707 30.5146 267.744 31.1226 267.714 31.8257L267.67 32.8364C267.626 33.8472 267.363 34.6968 266.879 35.3853C266.411 36.0737 265.781 36.6377 264.99 37.0771C264.213 37.502 263.32 37.8096 262.309 38C261.313 38.1758 260.266 38.2637 259.167 38.2637C258.098 38.2637 257.021 38.1758 255.937 38C254.868 37.8389 253.901 37.5459 253.037 37.1211C252.172 36.6816 251.469 36.0957 250.927 35.3633C250.385 34.6162 250.114 33.6641 250.114 32.5068V31.606Z" fill="#22414A"/>
</svg>
